<?xml version="1.0" encoding="UTF-8" standalone="no"?>
<!-- Generator: Adobe Illustrator 18.1.1, SVG Export Plug-In . SVG Version: 6.00 Build 0)  -->

<svg
   xmlns:dc="http://purl.org/dc/elements/1.1/"
   xmlns:cc="http://creativecommons.org/ns#"
   xmlns:rdf="http://www.w3.org/1999/02/22-rdf-syntax-ns#"
   xmlns:svg="http://www.w3.org/2000/svg"
   xmlns="http://www.w3.org/2000/svg"
   xmlns:sodipodi="http://sodipodi.sourceforge.net/DTD/sodipodi-0.dtd"
   xmlns:inkscape="http://www.inkscape.org/namespaces/inkscape"
   version="1.1"
   x="0px"
   y="0px"
   viewBox="0 0 65 35"
   xml:space="preserve"
   id="svg2"
   inkscape:version="0.91 r13725"
   sodipodi:docname="askizzy-icon-logotype.svg"
   width="65"
   height="35"><metadata
     id="metadata20"><rdf:RDF><cc:Work
         rdf:about=""><dc:format>image/svg+xml</dc:format><dc:type
           rdf:resource="http://purl.org/dc/dcmitype/StillImage" /><dc:title></dc:title></cc:Work></rdf:RDF></metadata><defs
     id="defs18" /><sodipodi:namedview
     pagecolor="#ffffff"
     bordercolor="#666666"
     borderopacity="1"
     objecttolerance="10"
     gridtolerance="10"
     guidetolerance="10"
     inkscape:pageopacity="0"
     inkscape:pageshadow="2"
     inkscape:window-width="1200"
     inkscape:window-height="1856"
     id="namedview16"
     showgrid="false"
     fit-margin-top="0"
     fit-margin-left="0"
     fit-margin-right="0"
     fit-margin-bottom="0"
     inkscape:zoom="3.6875"
     inkscape:cx="30.7277"
     inkscape:cy="17.335"
     inkscape:window-x="0"
     inkscape:window-y="27"
     inkscape:window-maximized="1"
     inkscape:current-layer="svg2" /><g
     id="logotype"
     transform="translate(0.49961559,-15.1145)"><g
       id="g5"><g
         id="g7"><path
           style="fill:#363e43"
           d="M 8.805,33.704 C 8.756,33.575 8.635,33.491 8.501,33.491 l -2.179,0 c -0.136,0 -0.258,0.087 -0.306,0.218 L 1.835,45.224 c -0.037,0.103 -0.023,0.218 0.038,0.308 0.061,0.09 0.161,0.144 0.268,0.144 l 1.921,0 c 0.137,0 0.259,-0.088 0.307,-0.219 l 1.099,-3.061 4.069,0 1.162,3.067 c 0.049,0.129 0.17,0.214 0.305,0.214 l 1.889,0 c 10e-4,0 0.003,0 0.004,0 0.18,0 0.327,-0.15 0.327,-0.335 0,-0.061 -0.016,-0.118 -0.044,-0.168 L 8.805,33.704 Z m -2.547,6.398 1.179,-3.279 1.248,3.279 -2.427,0 z m 14.383,1.23 C 20.485,41.148 20.304,40.979 20.104,40.831 19.905,40.684 19.69,40.56 19.469,40.463 19.058,40.278 18.63,40.132 18.197,40.028 17.784,39.929 17.371,39.819 16.954,39.697 16.829,39.666 16.702,39.63 16.575,39.588 c -0.107,-0.035 -0.204,-0.079 -0.287,-0.131 -0.07,-0.044 -0.127,-0.096 -0.175,-0.162 -0.019,-0.026 -0.045,-0.07 -0.045,-0.151 0,-0.062 0,-0.167 0.243,-0.258 0.268,-0.101 0.621,-0.152 1.048,-0.152 0.372,0 0.669,0.053 0.885,0.156 0.226,0.109 0.434,0.261 0.618,0.452 0.063,0.065 0.15,0.103 0.241,0.104 0.098,0 0.179,-0.033 0.245,-0.096 l 1.144,-1.11 c 0.13,-0.126 0.136,-0.332 0.012,-0.465 -0.39,-0.42 -0.856,-0.748 -1.385,-0.976 -0.529,-0.227 -1.11,-0.343 -1.726,-0.343 -0.54,0 -1.042,0.053 -1.491,0.158 -0.461,0.107 -0.865,0.27 -1.2,0.484 -0.347,0.222 -0.621,0.502 -0.816,0.835 -0.198,0.338 -0.298,0.728 -0.298,1.161 0,0.595 0.138,1.101 0.41,1.503 0.269,0.397 0.654,0.717 1.144,0.952 0.414,0.198 0.873,0.352 1.364,0.457 0.452,0.096 0.882,0.206 1.279,0.325 0.27,0.079 0.506,0.183 0.702,0.308 0.127,0.081 0.182,0.181 0.182,0.332 0,0.155 0,0.626 -1.308,0.626 -0.528,0 -0.933,-0.067 -1.204,-0.198 -0.267,-0.129 -0.516,-0.35 -0.74,-0.657 -0.105,-0.144 -0.306,-0.182 -0.458,-0.088 L 13.596,43.5 c -0.153,0.095 -0.204,0.291 -0.116,0.447 0.417,0.738 0.968,1.252 1.637,1.529 0.639,0.265 1.366,0.399 2.159,0.399 0.483,0 0.959,-0.053 1.415,-0.158 0.471,-0.109 0.894,-0.287 1.257,-0.529 0.375,-0.25 0.677,-0.579 0.898,-0.978 0.223,-0.402 0.336,-0.891 0.336,-1.453 0,-0.286 -0.051,-0.552 -0.153,-0.792 -0.096,-0.229 -0.227,-0.442 -0.388,-0.633 z m 9.121,2.315 c -0.187,0 -0.376,-0.015 -0.562,-0.045 -0.113,-0.018 -0.227,-0.102 -0.345,-0.254 l -1.848,-2.303 2.948,-3.857 c 0.078,-0.102 0.089,-0.237 0.029,-0.349 -0.06,-0.113 -0.181,-0.183 -0.313,-0.183 l -2.026,0 c -0.111,0 -0.215,0.05 -0.281,0.134 l -2.559,3.246 -0.148,0 0,-6.408 c 0,-0.104 -0.051,-0.202 -0.137,-0.265 C 24.434,33.3 24.321,33.278 24.216,33.304 L 22.227,33.8 c -0.155,0.039 -0.263,0.172 -0.263,0.324 l 0,11.216 c 0,0.185 0.158,0.335 0.352,0.335 l 1.989,0 c 0.194,0 0.352,-0.15 0.352,-0.335 l 0,-3.31 0.133,0 2.17,2.663 c 0.088,0.115 0.192,0.239 0.309,0.368 0.12,0.133 0.252,0.26 0.393,0.375 0.152,0.125 0.321,0.229 0.503,0.308 0.198,0.086 0.41,0.13 0.63,0.13 0.131,0 0.3,-0.018 0.518,-0.055 0.225,-0.038 0.427,-0.098 0.601,-0.176 0.122,-0.056 0.2,-0.174 0.2,-0.303 l 0,-1.359 c 0,-0.184 -0.158,-0.334 -0.352,-0.334 z"
           id="path9"
           inkscape:connector-curvature="0" /></g></g><g
       id="g11"><path
         style="fill:#ffffff"
         d="m 31.45,22.337 c -1.353,-0.652 -2.679,0.677 -2.028,2.033 0.123,0.257 0.333,0.467 0.59,0.591 1.353,0.652 2.679,-0.677 2.028,-2.033 -0.124,-0.257 -0.334,-0.467 -0.59,-0.591 z m 4.712,2.623 c 1.321,0.637 2.617,-0.615 2.071,-1.937 -0.136,-0.329 -0.398,-0.592 -0.727,-0.729 -1.319,-0.547 -2.569,0.751 -1.933,2.075 0.123,0.258 0.333,0.468 0.589,0.591 z m 0.222,6.282 c 0.078,-0.007 0.155,-0.021 0.232,-0.048 l 0.143,-0.051 c 0.195,-0.054 0.388,-0.111 0.58,-0.174 l 2.247,2.693 c 0.37,0.525 0.965,0.822 1.584,0.822 0.181,0 0.364,-0.026 0.544,-0.078 0.795,-0.233 1.355,-0.946 1.393,-1.775 L 43.462,19.02 c 0.014,-0.305 -0.044,-0.606 -0.165,-0.88 -0.426,-1.263 -1.619,-2.157 -2.989,-2.186 -0.01,0 -0.02,0 -0.031,0 l -12.794,-0.06 c -0.016,0 -0.032,0 -0.048,0 -1.451,0 -2.719,0.981 -3.102,2.339 -0.094,0.253 -0.136,0.526 -0.119,0.801 -0.004,0.225 0.017,0.451 0.062,0.675 l 0.961,8.74 c 0.069,0.629 0.44,1.185 0.993,1.49 0.125,0.069 3.096,1.681 6.974,1.681 1.094,10e-4 2.156,-0.127 3.18,-0.378 z m -9.289,-3.645 -0.902,-8.206 c -0.027,-0.105 -0.041,-0.214 -0.039,-0.327 0,-0.02 0.003,-0.04 0.004,-0.06 l -0.008,-0.09 0.017,0 c 0.089,-0.608 0.627,-1.076 1.268,-1.076 0.009,0 0.018,0 0.027,0 l 12.806,0.06 c 0.619,0.013 1.129,0.457 1.235,1.032 l 0.022,0 -0.355,13.611 -1.834,-2.312 C 39.814,30.035 40.061,29.5 39.888,29.008 39.71,28.502 39.155,28.236 38.65,28.415 l -0.589,0.208 -0.021,-0.027 c -0.126,0.061 -0.252,0.113 -0.378,0.168 l -1.498,0.53 c -1.023,0.275 -2.021,0.384 -2.96,0.384 -2.464,0 -4.508,-0.746 -5.462,-1.164 -0.435,-0.245 -0.592,-0.655 -0.647,-0.917 z m 7.013,5.536 -1.846,0 c -0.191,0 -0.345,0.159 -0.345,0.354 l 0,12.04 c 0,0.196 0.155,0.354 0.345,0.354 l 1.846,0 c 0.191,0 0.345,-0.159 0.345,-0.354 l 0,-12.04 c 0,-0.195 -0.154,-0.354 -0.345,-0.354 z m 9.263,10.414 -3.999,0 c -0.019,0 -0.037,0.002 -0.056,0.005 l -0.516,0.087 4.105,-4.664 c 0.392,-0.445 0.591,-0.965 0.591,-1.545 l 0,-0.352 c 0,-0.196 -0.155,-0.354 -0.345,-0.354 l -7.197,0 c -0.191,0 -0.345,0.159 -0.345,0.354 l 0,1.559 c 0,0.196 0.155,0.354 0.345,0.354 l 3.591,0 c 0.018,0 0.037,-0.002 0.055,-0.005 l 0.349,-0.058 -4.04,4.594 c -0.086,0.105 -0.163,0.217 -0.229,0.333 -0.067,0.117 -0.125,0.241 -0.168,0.357 -0.112,0.267 -0.169,0.546 -0.169,0.827 l 0,0.486 c 0,0.196 0.155,0.354 0.345,0.354 l 7.26,0 c 0.156,0 0.293,-0.108 0.333,-0.263 l 0.423,-1.626 c 0.028,-0.106 0.006,-0.22 -0.06,-0.307 -0.065,-0.085 -0.166,-0.136 -0.273,-0.136 z m 8.843,0 -3.999,0 c -0.019,0 -0.038,0.002 -0.056,0.005 l -0.516,0.087 4.105,-4.664 C 52.14,38.53 52.339,38.01 52.339,37.43 l 0,-0.352 c 0,-0.196 -0.155,-0.354 -0.345,-0.354 l -7.197,0 c -0.191,0 -0.345,0.159 -0.345,0.354 l 0,1.559 c 0,0.196 0.155,0.354 0.345,0.354 l 3.591,0 c 0.018,0 0.037,-0.002 0.055,-0.005 l 0.349,-0.058 -4.04,4.594 c -0.086,0.105 -0.163,0.217 -0.229,0.333 -0.067,0.117 -0.125,0.241 -0.168,0.357 -0.112,0.267 -0.169,0.546 -0.169,0.827 l 0,0.486 c 0,0.196 0.155,0.354 0.345,0.354 l 7.26,0 c 0.156,0 0.293,-0.108 0.333,-0.263 l 0.423,-1.626 c 0.028,-0.106 0.006,-0.22 -0.06,-0.307 -0.064,-0.085 -0.165,-0.136 -0.273,-0.136 z m 9.935,-6.326 c -0.043,-0.088 -0.12,-0.154 -0.212,-0.181 l -1.699,-0.503 c -0.173,-0.052 -0.356,0.043 -0.419,0.217 L 57.583,42.947 55.27,36.75 c -0.064,-0.172 -0.246,-0.265 -0.419,-0.213 l -1.682,0.503 c -0.092,0.028 -0.169,0.094 -0.212,0.182 -0.043,0.088 -0.048,0.191 -0.014,0.284 l 2.746,7.398 c 0.168,0.432 0.467,0.714 0.876,0.831 l -0.338,0.937 c -0.072,0.188 -0.123,0.256 -0.14,0.275 -0.032,0.011 -0.129,0.037 -0.355,0.037 l -0.686,0 c -0.191,0 -0.345,0.158 -0.345,0.354 l 0,1.442 c 0,0.157 0.101,0.295 0.248,0.34 0.198,0.06 0.43,0.111 0.69,0.152 0.266,0.043 0.494,0.063 0.698,0.063 0.298,0 0.57,-0.055 0.81,-0.165 0.232,-0.106 0.444,-0.254 0.63,-0.438 0.18,-0.179 0.335,-0.383 0.46,-0.607 0.116,-0.209 0.222,-0.435 0.318,-0.681 l 3.61,-9.941 c 0.033,-0.092 0.027,-0.194 -0.016,-0.282 z"
         id="path13"
         inkscape:connector-curvature="0" /></g></g><g
     id="Layer_1"
     transform="translate(-1.8146725,-14.335002)" /></svg>