<?xml version="1.0" encoding="iso-8859-1"?>
<!-- Generator: Adobe Illustrator 18.1.1, SVG Export Plug-In . SVG Version: 6.00 Build 0)  -->
<!DOCTYPE svg PUBLIC "-//W3C//DTD SVG 1.1//EN" "http://www.w3.org/Graphics/SVG/1.1/DTD/svg11.dtd">
<svg version="1.1" xmlns="http://www.w3.org/2000/svg" xmlns:xlink="http://www.w3.org/1999/xlink" x="0px" y="0px"
	 viewBox="0 0 64 64" style="enable-background:new 0 0 64 64;" xml:space="preserve">
<g id="food">
	<g id="XMLID_571_">
		<g id="XMLID_577_">
			<g id="XMLID_579_">
				<path style="fill:#231F20;" d="M48.938,38.561h-3.56c-0.829,0-1.5-0.672-1.5-1.5s0.671-1.5,1.5-1.5h3.56
					c0.829,0,1.5,0.672,1.5,1.5S49.767,38.561,48.938,38.561z"/>
			</g>
			<g id="XMLID_578_">
			</g>
		</g>
		<g id="XMLID_576_">
			<path style="fill:#231F20;" d="M50.818,59.521H50.45c-2.801,0-5.08-2.279-5.08-5.08V38.589h-1.91
				c-2.424,0-4.396-1.972-4.396-4.396c0-0.036,0.001-0.072,0.004-0.108l1.07-14.709c0.435-6.46,5.418-14.122,12.709-15.223
				c0.815-0.122,1.632,0.138,2.24,0.714c0.586,0.555,0.923,1.322,0.923,2.104v47.354C56.012,57.19,53.682,59.521,50.818,59.521z
				 M46.87,35.553c0.829,0,1.5,0.672,1.5,1.5V54.44c0,1.146,0.933,2.08,2.08,2.08h0.368c1.209,0,2.194-0.984,2.194-2.194V7.168
				c-5.49,1.015-9.527,7.174-9.88,12.417l-1.066,14.653c0.024,0.749,0.641,1.351,1.395,1.351h1.943c0.253,0,0.492,0.062,0.701,0.174
				C46.329,35.629,46.59,35.553,46.87,35.553z"/>
		</g>
		<g id="XMLID_575_">
			<path style="fill:#231F20;" d="M18.714,60.003c-2.629,0-4.777-2.101-4.854-4.711c-0.003-0.035-0.005-0.07-0.006-0.105
				l-0.652-24.283c-3.002-1.112-5.213-4.023-5.213-7.085L8.813,6.636c0.04-0.827,0.717-1.466,1.57-1.426
				c0.827,0.04,1.466,0.742,1.426,1.57l-0.823,17.11c0.002,1.962,1.785,3.97,3.977,4.403c0.688,0.137,1.189,0.73,1.208,1.432
				l0.678,25.259c0.006,0.054,0.009,0.107,0.009,0.162c0,1.023,0.833,1.856,1.856,1.856s1.856-0.833,1.856-1.856l0.649-25.419
				c0.018-0.702,0.52-1.297,1.208-1.434c2.192-0.434,3.975-2.441,3.975-4.476L25.525,6.785c-0.042-0.827,0.594-1.532,1.421-1.575
				c0.819-0.05,1.533,0.594,1.575,1.421l0.88,17.11c0.002,3.13-2.208,6.048-5.211,7.162L23.57,55.185
				C23.57,57.824,21.392,60.003,18.714,60.003z"/>
		</g>
		<g id="XMLID_572_">
			<g id="XMLID_574_">
				<path style="fill:#231F20;" d="M15.731,21.498c-0.006,0-0.012,0-0.018,0c-0.828-0.01-1.492-0.688-1.483-1.517l0.151-13.29
					c0.009-0.829,0.676-1.52,1.517-1.483c0.828,0.01,1.492,0.688,1.483,1.517l-0.151,13.29
					C17.221,20.838,16.551,21.498,15.731,21.498z"/>
			</g>
			<g id="XMLID_573_">
				<path style="fill:#231F20;" d="M21.66,21.498c-0.817,0-1.486-0.656-1.5-1.477l-0.208-13.29
					c-0.013-0.828,0.648-1.511,1.477-1.523c0.855-0.02,1.51,0.648,1.523,1.477l0.208,13.29c0.013,0.828-0.648,1.511-1.477,1.523
					C21.676,21.498,21.668,21.498,21.66,21.498z"/>
			</g>
		</g>
	</g>
</g>
<g id="Layer_1">
</g>
</svg>
