<?xml version="1.0" encoding="iso-8859-1"?>
<!-- Generator: Adobe Illustrator 18.1.1, SVG Export Plug-In . SVG Version: 6.00 Build 0)  -->
<!DOCTYPE svg PUBLIC "-//W3C//DTD SVG 1.1//EN" "http://www.w3.org/Graphics/SVG/1.1/DTD/svg11.dtd">
<svg version="1.1" xmlns="http://www.w3.org/2000/svg" xmlns:xlink="http://www.w3.org/1999/xlink" x="0px" y="0px"
	 viewBox="0 0 64 64" style="enable-background:new 0 0 64 64;" xml:space="preserve">
<g id="things">
	<g id="XMLID_602_">
		<g id="XMLID_607_">
			<g id="XMLID_610_">
				<path style="fill:#231F20;" d="M37.995,48.622H17.117c-0.829,0-1.5-0.672-1.5-1.5V24.052l-5.475,3.378
					c-0.689,0.427-1.591,0.228-2.038-0.447l-5.852-8.828c-0.222-0.336-0.3-0.747-0.217-1.142c0.084-0.394,0.323-0.737,0.663-0.953
					l11.793-7.498c1.432-0.91,3.085-1.392,4.782-1.392h5.516c0.742,0,1.372,0.542,1.483,1.275c0.414,2.732,2.808,4.793,5.571,4.793
					s5.157-2.061,5.57-4.793c0.111-0.733,0.741-1.275,1.483-1.275h5.516c1.697,0,3.352,0.481,4.782,1.392l11.794,7.498
					c0.34,0.216,0.579,0.56,0.662,0.953c0.084,0.395,0.006,0.806-0.217,1.142l-5.852,8.828c-0.447,0.675-1.35,0.871-2.037,0.447
					l-5.476-3.378v7.673c0,0.828-0.672,1.5-1.5,1.5s-1.5-0.672-1.5-1.5v-10.36c0-0.544,0.294-1.045,0.769-1.31
					c0.474-0.266,1.057-0.254,1.519,0.033l6.527,4.026l4.205-6.344l-10.504-6.678c-0.949-0.604-2.047-0.923-3.173-0.923h-4.327
					c-1.111,3.536-4.451,6.068-8.242,6.068s-7.131-2.532-8.242-6.068h-4.328c-1.126,0-2.223,0.319-3.173,0.923L5.598,17.771
					l4.205,6.344l6.527-4.026c0.463-0.285,1.044-0.298,1.519-0.033s0.769,0.766,0.769,1.31v24.257h19.378c0.828,0,1.5,0.672,1.5,1.5
					S38.823,48.622,37.995,48.622z"/>
			</g>
		</g>
		<g id="XMLID_606_">
			<path style="fill:#231F20;" d="M53.15,58.216H39.992c-1.728,0-3.133-1.405-3.133-3.133V43.783c0-1.717,0.894-3.28,2.308-4.166
				v-1.048c0-0.828,0.672-1.5,1.5-1.5s1.5,0.672,1.5,1.5v1.983c0,0.641-0.406,1.21-1.012,1.418
				c-0.775,0.268-1.296,0.995-1.296,1.812v11.301c0,0.073,0.06,0.133,0.133,0.133H53.15c0.073,0,0.133-0.06,0.133-0.133V43.783
				c0-0.817-0.521-1.545-1.297-1.812c-0.605-0.208-1.012-0.777-1.012-1.418v-1.983c0-0.828,0.672-1.5,1.5-1.5s1.5,0.672,1.5,1.5
				v1.048c1.414,0.886,2.309,2.449,2.309,4.166v11.301C56.282,56.811,54.877,58.216,53.15,58.216z"/>
		</g>
		<g id="XMLID_605_">
			<path style="fill:#231F20;" d="M53.377,39.315h-2.896c-0.828,0-1.5-0.672-1.5-1.5s0.672-1.5,1.5-1.5h1.396v-1.668
				c0-0.509-0.413-0.922-0.922-0.922h-8.769c-0.509,0-0.923,0.413-0.923,0.922v1.668h4.532c0.828,0,1.5,0.672,1.5,1.5
				s-0.672,1.5-1.5,1.5h-6.032c-0.828,0-1.5-0.672-1.5-1.5v-3.168c0-2.162,1.76-3.922,3.923-3.922h8.769
				c2.162,0,3.922,1.76,3.922,3.922v3.168C54.877,38.643,54.205,39.315,53.377,39.315z"/>
		</g>
	</g>
</g>
<g id="Layer_1">
</g>
</svg>
