<?xml version="1.0" encoding="iso-8859-1"?>
<!-- Generator: Adobe Illustrator 18.1.1, SVG Export Plug-In . SVG Version: 6.00 Build 0)  -->
<!DOCTYPE svg PUBLIC "-//W3C//DTD SVG 1.1//EN" "http://www.w3.org/Graphics/SVG/1.1/DTD/svg11.dtd">
<svg version="1.1" xmlns="http://www.w3.org/2000/svg" xmlns:xlink="http://www.w3.org/1999/xlink" x="0px" y="0px"
	 viewBox="0 0 64 64" style="enable-background:new 0 0 64 64;" xml:space="preserve">
<g id="addiction">
	<g id="XMLID_488_">
		<g id="XMLID_495_">
			<path style="fill:#231F20;" d="M42.159,48.693c-0.209,0-0.42-0.044-0.619-0.134l-6.196-2.807
				c-0.164-0.074-0.314-0.178-0.441-0.306L16.812,27.355c-0.586-0.586-0.586-1.535,0-2.121s1.535-0.586,2.121,0l17.899,17.898
				l5.001,2.266l4.135-4.135l-2.266-5.001L25.803,18.363c-0.586-0.586-0.586-1.535,0-2.121s1.535-0.586,2.121,0l18.092,18.092
				c0.128,0.128,0.231,0.277,0.306,0.441l2.808,6.195c0.258,0.569,0.136,1.238-0.306,1.68l-5.604,5.604
				C42.933,48.541,42.549,48.693,42.159,48.693z"/>
		</g>
		<g id="XMLID_494_">
			<path style="fill:#231F20;" d="M20.118,25.549c-0.384,0-0.768-0.146-1.061-0.439l-6.364-6.364
				c-0.281-0.281-0.439-0.663-0.439-1.061s0.158-0.779,0.439-1.061l4.501-4.5c0.586-0.586,1.535-0.586,2.121,0l6.364,6.363
				c0.586,0.586,0.586,1.535,0,2.121s-1.535,0.586-2.121,0l-5.303-5.303l-2.379,2.379l5.303,5.304c0.586,0.586,0.586,1.535,0,2.121
				C20.885,25.402,20.502,25.549,20.118,25.549z"/>
		</g>
		<g id="XMLID_492_">
			<path style="fill:#231F20;" d="M56.198,57.129c-0.384,0-0.768-0.146-1.061-0.439L44.435,45.986c-0.586-0.586-0.586-1.535,0-2.121
				s1.535-0.586,2.121,0l10.703,10.703c0.586,0.586,0.586,1.535,0,2.121C56.966,56.982,56.582,57.129,56.198,57.129z"/>
		</g>
		<g id="XMLID_491_">
			<path style="fill:#231F20;" d="M11.235,21.703c-0.384,0-0.768-0.146-1.061-0.439c-0.586-0.586-0.586-1.535,0-2.121l9.537-9.537
				c0.586-0.586,1.535-0.586,2.121,0s0.586,1.535,0,2.121l-9.537,9.537C12.003,21.556,11.619,21.703,11.235,21.703z"/>
		</g>
		<g id="XMLID_490_">
			<path style="fill:#231F20;" d="M14.703,30.964c-0.384,0-0.768-0.146-1.061-0.439c-0.586-0.586-0.586-1.535,0-2.121l7.237-7.237
				c0.586-0.586,1.535-0.586,2.121,0s0.586,1.535,0,2.121l-7.237,7.237C15.47,30.817,15.087,30.964,14.703,30.964z"/>
		</g>
		<g id="XMLID_489_">
			<path style="fill:#231F20;" d="M35.77,45.728c-0.384,0-0.768-0.146-1.061-0.439c-0.586-0.586-0.586-1.535,0-2.121l4.792-4.792
				c0.586-0.586,1.535-0.586,2.121,0s0.586,1.535,0,2.121l-4.792,4.792C36.538,45.582,36.154,45.728,35.77,45.728z"/>
		</g>
	</g>
	<g id="XMLID_486_">
		<g id="XMLID_487_">
			<path style="fill:#231F20;" d="M17.12,56.896c-1.823,0-3.537-0.71-4.826-1.999c-2.661-2.661-2.661-6.991,0-9.652
				c1.289-1.289,3.003-1.999,4.826-1.999c1.823,0,3.537,0.71,4.826,1.999c2.661,2.661,2.661,6.991,0,9.652
				C20.656,56.186,18.943,56.896,17.12,56.896z M17.12,46.246c-1.022,0-1.982,0.398-2.705,1.12c-1.491,1.491-1.491,3.919,0,5.41
				c1.445,1.442,3.964,1.444,5.41,0c1.491-1.491,1.491-3.919,0-5.41C19.102,46.644,18.141,46.246,17.12,46.246z"/>
		</g>
	</g>
	<g id="XMLID_482_">
		<g id="XMLID_484_">
			<path style="fill:#231F20;" d="M51.362,27.119c-1.727,0-3.346-0.669-4.56-1.883l-4.999-4.999
				c-1.214-1.214-1.883-2.834-1.883-4.56c0-1.727,0.669-3.346,1.883-4.56s2.833-1.883,4.56-1.883s3.346,0.669,4.56,1.883
				l4.999,4.998c2.515,2.515,2.515,6.605,0,9.12C54.708,26.45,53.089,27.119,51.362,27.119z M46.364,12.235
				c-0.925,0-1.791,0.356-2.439,1.004c-0.647,0.647-1.004,1.514-1.004,2.438s0.357,1.791,1.004,2.438l4.999,4.999
				c1.296,1.295,3.582,1.295,4.878,0c1.345-1.345,1.345-3.533,0-4.878l-4.999-4.998C48.155,12.592,47.289,12.235,46.364,12.235z"/>
		</g>
		<g id="XMLID_483_">
			<path style="fill:#231F20;" d="M45.681,22.859c-0.384,0-0.768-0.146-1.061-0.439c-0.586-0.585-0.586-1.535,0-2.121l3.182-3.183
				c0.586-0.586,1.536-0.586,2.122,0c0.586,0.585,0.586,1.535,0,2.121l-3.182,3.183C46.449,22.713,46.065,22.859,45.681,22.859z"/>
		</g>
	</g>
	<g id="XMLID_481_">
		<path style="fill:#231F20;" d="M24.618,21.048c-0.384,0-0.768-0.146-1.061-0.439c-0.586-0.586-0.586-1.535,0-2.121l4.673-4.672
			c0.586-0.586,1.536-0.586,2.121,0c0.586,0.586,0.586,1.535,0,2.121l-4.673,4.672C25.386,20.901,25.002,21.048,24.618,21.048z"/>
	</g>
</g>
<g id="Layer_1">
</g>
</svg>
