<?xml version="1.0" encoding="iso-8859-1"?>
<!-- Generator: Adobe Illustrator 18.1.1, SVG Export Plug-In . SVG Version: 6.00 Build 0)  -->
<!DOCTYPE svg PUBLIC "-//W3C//DTD SVG 1.1//EN" "http://www.w3.org/Graphics/SVG/1.1/DTD/svg11.dtd">
<svg version="1.1" xmlns="http://www.w3.org/2000/svg" xmlns:xlink="http://www.w3.org/1999/xlink" x="0px" y="0px"
	 viewBox="0 0 64 64" style="enable-background:new 0 0 64 64;" xml:space="preserve">
<g id="clock">
	<g id="XMLID_614_">
		<g>
			<path style="fill:#231F20;" d="M33.071,20.487c-5.511,0-9.995,4.481-9.995,9.991c0,5.509,4.484,9.992,9.995,9.992
				c5.511,0,9.994-4.482,9.994-9.992C43.065,24.968,38.582,20.487,33.071,20.487z M33.071,38.457c-4.401,0-7.982-3.58-7.982-7.979
				c0-4.399,3.581-7.978,7.982-7.978c4.4,0,7.981,3.579,7.981,7.978C41.052,34.877,37.472,38.457,33.071,38.457z M36.871,31.736
				l-2.793-1.806l-0.001-4.994c0-0.556-0.451-1.006-1.006-1.006c-0.556,0-1.007,0.451-1.007,1.006l0.001,5.542
				c0,0.342,0.173,0.659,0.46,0.845l3.253,2.104c0.169,0.109,0.358,0.161,0.545,0.161c0.33,0,0.654-0.162,0.846-0.46
				C37.472,32.661,37.338,32.038,36.871,31.736z"/>
		</g>
	</g>
</g>
<g id="Layer_1">
</g>
</svg>
