<?xml version="1.0" encoding="iso-8859-1"?>
<!-- Generator: Adobe Illustrator 18.1.1, SVG Export Plug-In . SVG Version: 6.00 Build 0)  -->
<!DOCTYPE svg PUBLIC "-//W3C//DTD SVG 1.1//EN" "http://www.w3.org/Graphics/SVG/1.1/DTD/svg11.dtd">
<svg version="1.1" xmlns="http://www.w3.org/2000/svg" xmlns:xlink="http://www.w3.org/1999/xlink" x="0px" y="0px"
	 viewBox="0 0 64 64" style="enable-background:new 0 0 64 64;" xml:space="preserve">
<g id="demographic-veteran">
	<g id="XMLID_444_">
		<path style="fill:#231F20;" d="M45.627,25.31H18.374c-0.829,0-1.5-0.671-1.5-1.5s0.671-1.5,1.5-1.5h27.253
			c0.828,0,1.5,0.671,1.5,1.5S46.455,25.31,45.627,25.31z"/>
	</g>
	<g id="XMLID_1067_">
		<path style="fill:#231F20;" d="M41.973,25.31H22.027c-0.829,0-1.5-0.671-1.5-1.5V8.176c0-0.829,0.671-1.5,1.5-1.5h19.945
			c0.828,0,1.5,0.671,1.5,1.5V23.81C43.473,24.639,42.801,25.31,41.973,25.31z M23.527,22.31h16.945V9.676H23.527V22.31z"/>
	</g>
	<g id="XMLID_1114_">
		<path style="fill:#231F20;" d="M28.676,24.469c-0.829,0-1.5-0.671-1.5-1.5V8.617c0-0.829,0.671-1.5,1.5-1.5s1.5,0.671,1.5,1.5
			v14.352C30.176,23.797,29.504,24.469,28.676,24.469z"/>
	</g>
	<g id="XMLID_1115_">
		<path style="fill:#231F20;" d="M35.324,24.204c-0.828,0-1.5-0.671-1.5-1.5V8.881c0-0.829,0.672-1.5,1.5-1.5s1.5,0.671,1.5,1.5
			v13.823C36.824,23.533,36.152,24.204,35.324,24.204z"/>
	</g>
	<g id="XMLID_443_">
		<path style="fill:#231F20;" d="M32,57.323c-0.594,0-1.133-0.351-1.373-0.895l-3.435-7.789l-8.463,0.92
			c-0.586,0.065-1.164-0.226-1.461-0.741c-0.297-0.515-0.263-1.156,0.088-1.636l5.029-6.87l-5.029-6.869
			c-0.351-0.479-0.386-1.121-0.088-1.636c0.297-0.515,0.875-0.805,1.461-0.741l8.463,0.92l3.435-7.79
			c0.24-0.544,0.778-0.895,1.373-0.895s1.133,0.351,1.372,0.895l3.436,7.79l8.463-0.92c0.596-0.066,1.164,0.226,1.461,0.741
			c0.298,0.515,0.263,1.156-0.089,1.636l-5.027,6.869l4.905,6.702c0.268,0.271,0.432,0.644,0.432,1.054c0,0.828-0.671,1.5-1.5,1.5
			c-0.006-0.001-0.012-0.001-0.02,0c-0.054,0-0.107-0.003-0.162-0.009l-8.463-0.92l-3.436,7.789
			C33.133,56.973,32.594,57.323,32,57.323z M28.123,45.529c0.589,0,1.13,0.347,1.372,0.895L32,52.105l2.506-5.682
			c0.264-0.6,0.889-0.956,1.534-0.886l6.173,0.671l-3.667-5.011c-0.387-0.527-0.387-1.244,0-1.771l3.667-5.01l-6.173,0.671
			c-0.646,0.064-1.271-0.287-1.534-0.886L32,28.52l-2.505,5.682c-0.264,0.598-0.881,0.954-1.535,0.886l-6.173-0.671l3.668,5.01
			c0.386,0.527,0.386,1.244,0,1.771l-3.668,5.011l6.173-0.671C28.015,45.532,28.069,45.529,28.123,45.529z"/>
	</g>
</g>
<g id="Layer_1">
</g>
</svg>
