<?xml version="1.0" encoding="iso-8859-1"?>
<!-- Generator: Adobe Illustrator 18.1.1, SVG Export Plug-In . SVG Version: 6.00 Build 0)  -->
<!DOCTYPE svg PUBLIC "-//W3C//DTD SVG 1.1//EN" "http://www.w3.org/Graphics/SVG/1.1/DTD/svg11.dtd">
<svg version="1.1" xmlns="http://www.w3.org/2000/svg" xmlns:xlink="http://www.w3.org/1999/xlink" x="0px" y="0px"
	 viewBox="0 0 64 64" style="enable-background:new 0 0 64 64;" xml:space="preserve">
<g id="health">
	<g id="XMLID_1071_">
		<g id="XMLID_1072_">
			<path style="fill:#231F20;" d="M46.899,42.384c-4.9,0-8.887-3.986-8.887-8.887c0-4.9,3.986-8.886,8.887-8.886
				c4.899,0,8.886,3.986,8.886,8.886C55.785,38.397,51.799,42.384,46.899,42.384z M46.899,27.611c-3.246,0-5.887,2.641-5.887,5.886
				c0,3.246,2.641,5.887,5.887,5.887c3.245,0,5.886-2.641,5.886-5.887C52.785,30.251,50.145,27.611,46.899,27.611z"/>
		</g>
		<g id="XMLID_1073_">
			<g id="XMLID_456_">
				<path style="fill:#231F20;" d="M23.347,36.509c-2.004,0-3.895-1.065-4.933-2.779L9.232,18.569
					c-1.395-2.302-1.365-5.145,0.077-7.417l1.056-1.666c0.521-0.82,1.41-1.309,2.38-1.309h1.22c0.829,0,1.5,0.671,1.5,1.5
					s-0.671,1.5-1.5,1.5h-1.12l-1.002,1.581c-0.828,1.305-0.845,2.936-0.044,4.256l9.181,15.161
					c0.498,0.822,1.405,1.333,2.367,1.333s1.87-0.511,2.368-1.334l9.18-15.16c0.801-1.321,0.783-2.952-0.043-4.257l-1.003-1.581
					h-1.188c-0.829,0-1.5-0.671-1.5-1.5s0.671-1.5,1.5-1.5h1.287c0.97,0,1.858,0.489,2.379,1.307l1.058,1.667
					c1.441,2.273,1.47,5.115,0.076,7.417l-9.181,15.16C27.242,35.443,25.352,36.509,23.347,36.509z"/>
			</g>
			<g id="XMLID_1074_">
				<path style="fill:none;stroke:#231F20;stroke-width:3;stroke-linecap:round;stroke-linejoin:round;stroke-miterlimit:10;" d="
					M37.674,9.677"/>
			</g>
		</g>
		<g>
			<path style="fill:#231F20;" d="M35.123,57.571c-7.32,0-13.276-5.956-13.276-13.276v-8.914c0-0.828,0.671-1.5,1.5-1.5
				s1.5,0.672,1.5,1.5v8.914c0,5.666,4.61,10.276,10.276,10.276s10.276-4.61,10.276-10.276v-3.411c0-0.828,0.672-1.5,1.5-1.5
				s1.5,0.672,1.5,1.5v3.411C48.399,51.615,42.443,57.571,35.123,57.571z"/>
		</g>
		<g id="XMLID_1108_">
			<path style="fill:#231F20;" d="M16.077,12.925c-1.791,0-3.249-1.457-3.249-3.248s1.458-3.249,3.249-3.249
				s3.248,1.458,3.248,3.249S17.868,12.925,16.077,12.925z M16.077,9.429c-0.137,0-0.249,0.111-0.249,0.249
				c0,0.273,0.497,0.274,0.497,0C16.325,9.54,16.213,9.429,16.077,9.429z"/>
		</g>
		<g id="XMLID_1109_">
			<path style="fill:#231F20;" d="M30.453,12.925c-1.791,0-3.248-1.457-3.248-3.248s1.457-3.249,3.248-3.249
				s3.249,1.458,3.249,3.249S32.244,12.925,30.453,12.925z M30.453,9.429c-0.137,0-0.248,0.111-0.248,0.249
				c0,0.273,0.496,0.273,0.496,0C30.701,9.54,30.589,9.429,30.453,9.429z"/>
		</g>
	</g>
</g>
<g id="Layer_1">
</g>
</svg>
