<?xml version="1.0" encoding="iso-8859-1"?>
<!-- Generator: Adobe Illustrator 18.1.1, SVG Export Plug-In . SVG Version: 6.00 Build 0)  -->
<!DOCTYPE svg PUBLIC "-//W3C//DTD SVG 1.1//EN" "http://www.w3.org/Graphics/SVG/1.1/DTD/svg11.dtd">
<svg version="1.1" xmlns="http://www.w3.org/2000/svg" xmlns:xlink="http://www.w3.org/1999/xlink" x="0px" y="0px"
	 viewBox="0 0 64 64" style="enable-background:new 0 0 64 64;" xml:space="preserve">
<g id="loading">
	<g>
		<path style="fill:#231F20;" d="M32.001,21.933c-0.607,0-1.1-0.492-1.1-1.1v-7c0-0.607,0.492-1.1,1.1-1.1s1.1,0.492,1.1,1.1v7
			C33.101,21.44,32.608,21.933,32.001,21.933z"/>
	</g>
	<g>
		<path style="fill:#231F20;" d="M26.418,23.43c-0.38,0-0.75-0.197-0.953-0.551l-3.5-6.062c-0.305-0.525-0.124-1.198,0.402-1.502
			c0.525-0.305,1.199-0.124,1.502,0.402l3.5,6.062c0.305,0.525,0.124,1.198-0.402,1.502C26.794,23.382,26.604,23.43,26.418,23.43z"
			/>
	</g>
	<g>
		<path style="fill:#231F20;" d="M22.329,27.518c-0.187,0-0.376-0.048-0.549-0.147l-6.062-3.5c-0.526-0.305-0.707-0.977-0.403-1.503
			c0.305-0.527,0.978-0.706,1.503-0.403l6.062,3.5c0.526,0.305,0.707,0.977,0.403,1.503C23.079,27.32,22.709,27.518,22.329,27.518z"
			/>
	</g>
	<g>
		<path style="fill:#231F20;" d="M20.834,33.1h-7c-0.607,0-1.1-0.492-1.1-1.1s0.492-1.1,1.1-1.1h7c0.607,0,1.1,0.492,1.1,1.1
			S21.441,33.1,20.834,33.1z"/>
	</g>
	<g>
		<path style="fill:#231F20;" d="M16.269,42.184c-0.38,0-0.75-0.197-0.954-0.551c-0.304-0.526-0.123-1.198,0.403-1.503l6.062-3.5
			c0.525-0.302,1.199-0.124,1.503,0.403c0.304,0.526,0.123,1.198-0.403,1.503l-6.062,3.5C16.645,42.136,16.455,42.184,16.269,42.184
			z"/>
	</g>
	<g>
		<path style="fill:#231F20;" d="M22.916,48.834c-0.187,0-0.376-0.048-0.549-0.147c-0.526-0.305-0.707-0.977-0.403-1.503l3.5-6.062
			c0.304-0.527,0.978-0.706,1.503-0.403c0.526,0.305,0.707,0.977,0.403,1.503l-3.5,6.062C23.666,48.637,23.296,48.834,22.916,48.834
			z"/>
	</g>
	<g>
		<path style="fill:#231F20;" d="M32.001,51.267c-0.607,0-1.1-0.492-1.1-1.1v-7c0-0.607,0.492-1.1,1.1-1.1s1.1,0.492,1.1,1.1v7
			C33.101,50.774,32.608,51.267,32.001,51.267z"/>
	</g>
	<g>
		<path style="fill:#231F20;" d="M41.085,48.834c-0.38,0-0.75-0.197-0.954-0.551l-3.5-6.062c-0.304-0.526-0.123-1.198,0.403-1.503
			c0.525-0.302,1.199-0.123,1.503,0.403l3.5,6.062c0.304,0.526,0.123,1.198-0.403,1.503C41.461,48.786,41.271,48.834,41.085,48.834z
			"/>
	</g>
	<g>
		<path style="fill:#231F20;" d="M47.732,42.184c-0.187,0-0.376-0.048-0.549-0.147l-6.062-3.5c-0.526-0.305-0.707-0.977-0.403-1.503
			c0.304-0.527,0.979-0.706,1.503-0.403l6.062,3.5c0.526,0.305,0.707,0.977,0.403,1.503C48.482,41.986,48.112,42.184,47.732,42.184z
			"/>
	</g>
	<g>
		<path style="fill:#231F20;" d="M50.167,33.1h-7c-0.607,0-1.1-0.492-1.1-1.1s0.492-1.1,1.1-1.1h7c0.607,0,1.1,0.492,1.1,1.1
			S50.774,33.1,50.167,33.1z"/>
	</g>
	<g>
		<path style="fill:#231F20;" d="M41.672,27.518c-0.38,0-0.75-0.197-0.954-0.551c-0.304-0.526-0.123-1.198,0.403-1.503l6.062-3.5
			c0.525-0.302,1.199-0.123,1.503,0.403s0.123,1.198-0.403,1.503l-6.062,3.5C42.048,27.47,41.858,27.518,41.672,27.518z"/>
	</g>
	<g>
		<path style="fill:#231F20;" d="M37.583,23.43c-0.187,0-0.376-0.048-0.549-0.148c-0.526-0.304-0.707-0.977-0.402-1.502l3.5-6.062
			c0.303-0.526,0.977-0.708,1.502-0.402c0.526,0.304,0.707,0.977,0.402,1.502l-3.5,6.062C38.333,23.232,37.963,23.43,37.583,23.43z"
			/>
	</g>
</g>
<g id="Layer_1">
</g>
</svg>
