<?xml version="1.0" encoding="iso-8859-1"?>
<!-- Generator: Adobe Illustrator 18.1.1, SVG Export Plug-In . SVG Version: 6.00 Build 0)  -->
<!DOCTYPE svg PUBLIC "-//W3C//DTD SVG 1.1//EN" "http://www.w3.org/Graphics/SVG/1.1/DTD/svg11.dtd">
<svg version="1.1" xmlns="http://www.w3.org/2000/svg" xmlns:xlink="http://www.w3.org/1999/xlink" x="0px" y="0px"
	 viewBox="0 0 64 64" style="enable-background:new 0 0 64 64;" xml:space="preserve">
<g id="money">
	<g id="XMLID_619_">
		<g id="XMLID_625_">
			<path style="fill:#231F20;" d="M32.272,58.883c-14.64,0-26.55-11.91-26.55-26.55s11.91-26.55,26.55-26.55
				s26.55,11.91,26.55,26.55S46.912,58.883,32.272,58.883z M32.272,8.783c-12.985,0-23.55,10.564-23.55,23.55
				s10.564,23.55,23.55,23.55s23.55-10.564,23.55-23.55S45.258,8.783,32.272,8.783z"/>
		</g>
		<g id="XMLID_620_">
			<g id="XMLID_624_">
				<path style="fill:#231F20;stroke:#231F20;stroke-width:0.6;stroke-miterlimit:10;" d="M25.053,39.726
					c-0.265-0.188-0.529-0.566-0.529-1.058c0-0.681,0.567-1.248,1.285-1.248c0.265,0,0.529,0.076,0.718,0.228
					c2.003,1.36,4.082,2.078,6.199,2.078c2.343,0,4.044-1.209,4.044-3.099v-0.076c0-1.965-2.305-2.721-4.875-3.439
					c-3.062-0.869-6.463-1.928-6.463-5.518v-0.076c0-3.363,2.797-5.594,6.652-5.594c2.079,0,4.347,0.643,6.236,1.663
					c0.378,0.227,0.718,0.643,0.718,1.21c0,0.68-0.567,1.247-1.285,1.247c-0.265,0-0.491-0.076-0.643-0.151
					c-1.663-0.945-3.439-1.512-5.103-1.512c-2.305,0-3.779,1.209-3.779,2.835v0.075c0,1.852,2.419,2.57,5.027,3.364
					c3.023,0.906,6.274,2.078,6.274,5.594v0.075c0,3.704-3.062,5.858-6.955,5.858C30.004,42.183,27.169,41.237,25.053,39.726z"/>
			</g>
			<g id="XMLID_621_">
				<g id="XMLID_623_">
					<line style="fill:#FFFFFF;" x1="32.272" y1="22.357" x2="32.272" y2="19.395"/>
					<path style="fill:#231F20;" d="M32.272,23.856c-0.829,0-1.5-0.672-1.5-1.5v-2.961c0-0.828,0.671-1.5,1.5-1.5s1.5,0.672,1.5,1.5
						v2.961C33.772,23.185,33.101,23.856,32.272,23.856z"/>
				</g>
				<g id="XMLID_622_">
					<line style="fill:#FFFFFF;" x1="32.272" y1="44.271" x2="32.272" y2="41.31"/>
					<path style="fill:#231F20;" d="M32.272,45.771c-0.829,0-1.5-0.672-1.5-1.5V41.31c0-0.828,0.671-1.5,1.5-1.5s1.5,0.672,1.5,1.5
						v2.962C33.772,45.1,33.101,45.771,32.272,45.771z"/>
				</g>
			</g>
		</g>
	</g>
</g>
<g id="Layer_1">
</g>
</svg>
