<?xml version="1.0" encoding="iso-8859-1"?>
<!-- Generator: Adobe Illustrator 18.1.1, SVG Export Plug-In . SVG Version: 6.00 Build 0)  -->
<!DOCTYPE svg PUBLIC "-//W3C//DTD SVG 1.1//EN" "http://www.w3.org/Graphics/SVG/1.1/DTD/svg11.dtd">
<svg version="1.1" xmlns="http://www.w3.org/2000/svg" xmlns:xlink="http://www.w3.org/1999/xlink" x="0px" y="0px"
	 viewBox="0 0 64 64" style="enable-background:new 0 0 64 64;" xml:space="preserve">
<g id="demographic-pets">
	<g id="XMLID_949_">
		<g id="XMLID_935_">
			<path style="fill:#231F20;" d="M38.47,53.867c-2.088,0-3.332-0.759-4.331-1.368c-0.777-0.475-1.338-0.816-2.27-0.816
				c-0.897,0-1.385,0.31-2.125,0.778c-0.988,0.627-2.217,1.406-4.445,1.406c-4.458,0-8.085-3.676-8.085-8.194
				c0-1.954,0.691-3.846,1.947-5.326c0.29-0.342,0.738-0.814,1.249-1.35c0.827-0.867,2.747-2.879,2.997-3.595
				c0.008-0.11,0.028-0.22,0.06-0.326c1.223-4.082,3.179-8.255,8.417-8.255c5.221,0,6.955,3.883,8.403,8.208
				c0.041,0.12,0.065,0.245,0.074,0.372c0.252,0.717,2.173,2.73,3.001,3.599c0.51,0.535,0.957,1.006,1.246,1.347
				c1.255,1.48,1.946,3.372,1.946,5.326C46.555,50.191,42.928,53.867,38.47,53.867z M31.869,48.683c1.775,0,2.916,0.696,3.832,1.255
				c0.852,0.52,1.524,0.93,2.77,0.93c2.804,0,5.085-2.33,5.085-5.194c0-1.244-0.438-2.447-1.235-3.387
				c-0.261-0.308-0.668-0.732-1.129-1.216c-2.146-2.249-3.604-3.873-3.802-5.249c-1.593-4.705-2.792-6-5.504-6
				c-2.676,0-4.175,1.621-5.5,5.969c-0.18,1.385-1.645,3.014-3.805,5.278c-0.461,0.484-0.869,0.909-1.131,1.218
				c-0.796,0.939-1.235,2.143-1.235,3.387c0,2.864,2.281,5.194,5.085,5.194c1.356,0,2.01-0.415,2.838-0.939
				C29.012,49.373,30.1,48.683,31.869,48.683z"/>
		</g>
		<g id="XMLID_932_">
			<g id="XMLID_933_">
				<path style="fill:#231F20;" d="M25.239,25.833c-3.414,0-6.087-3.448-6.087-7.85s2.674-7.85,6.087-7.85s6.088,3.448,6.088,7.85
					S28.652,25.833,25.239,25.833z M25.239,13.132c-1.673,0-3.087,2.221-3.087,4.85s1.414,4.85,3.087,4.85
					c1.674,0,3.088-2.221,3.088-4.85S26.913,13.132,25.239,13.132z"/>
			</g>
			<g id="XMLID_950_">
				<path style="fill:#231F20;" d="M16.585,38.533c-3.414,0-6.087-3.448-6.087-7.851c0-4.402,2.674-7.85,6.087-7.85
					s6.088,3.448,6.088,7.85C22.673,35.085,19.999,38.533,16.585,38.533z M16.585,25.833c-1.673,0-3.087,2.221-3.087,4.85
					s1.414,4.851,3.087,4.851c1.674,0,3.088-2.222,3.088-4.851S18.259,25.833,16.585,25.833z"/>
			</g>
			<g id="XMLID_951_">
				<path style="fill:#231F20;" d="M47.414,38.533c-3.413,0-6.087-3.448-6.087-7.851c0-4.402,2.674-7.85,6.087-7.85
					c3.414,0,6.088,3.448,6.088,7.85C53.502,35.085,50.828,38.533,47.414,38.533z M47.414,25.833c-1.673,0-3.087,2.221-3.087,4.85
					s1.414,4.851,3.087,4.851c1.674,0,3.088-2.222,3.088-4.851S49.088,25.833,47.414,25.833z"/>
			</g>
			<g id="XMLID_942_">
				<path style="fill:#231F20;" d="M38.53,25.833c-3.414,0-6.088-3.448-6.088-7.85s2.674-7.85,6.088-7.85
					c3.413,0,6.087,3.448,6.087,7.85S41.943,25.833,38.53,25.833z M38.53,13.132c-1.674,0-3.088,2.221-3.088,4.85
					s1.414,4.85,3.088,4.85c1.673,0,3.087-2.221,3.087-4.85S40.203,13.132,38.53,13.132z"/>
			</g>
		</g>
	</g>
</g>
<g id="Layer_1">
</g>
</svg>
