<?xml version="1.0" encoding="iso-8859-1"?>
<!-- Generator: Adobe Illustrator 18.1.1, SVG Export Plug-In . SVG Version: 6.00 Build 0)  -->
<!DOCTYPE svg PUBLIC "-//W3C//DTD SVG 1.1//EN" "http://www.w3.org/Graphics/SVG/1.1/DTD/svg11.dtd">
<svg version="1.1" xmlns="http://www.w3.org/2000/svg" xmlns:xlink="http://www.w3.org/1999/xlink" x="0px" y="0px"
	 viewBox="0 0 64 64" style="enable-background:new 0 0 64 64;" xml:space="preserve">
<g id="demographic-recently-arrived">
	<g id="XMLID_986_">
		<path style="fill:#231F20;" d="M33.52,36.683c-0.054,0-0.108-0.003-0.163-0.009l-5.429-0.585c-0.396-0.042-0.758-0.24-1.008-0.551
			c-0.25-0.31-0.366-0.706-0.323-1.102l0.585-5.428c0.089-0.824,0.826-1.419,1.652-1.331c0.824,0.089,1.419,0.829,1.331,1.652
			l-0.424,3.937l3.937,0.425c0.823,0.089,1.42,0.828,1.331,1.652C34.926,36.112,34.276,36.683,33.52,36.683z"/>
	</g>
	<g id="XMLID_997_">
		<g id="XMLID_985_">
			<path style="fill:#231F20;" d="M37.091,58.099h-0.824c-1.188,0-2.28-0.597-2.924-1.595l-6.273-9.759
				c-0.194-0.303-0.468-0.547-0.792-0.705l-1.694-0.832c-0.762-0.375-1.715-0.159-2.247,0.492l-2.747,3.382
				c-0.285,0.352-0.712,0.555-1.164,0.555h-6.714c-0.522,0-1.006-0.271-1.279-0.716l-6.063-9.893
				c-2.549-4.159-2.092-9.41,1.135-13.067l9.366-10.61c1.14-1.292,2.782-2.033,4.505-2.033h6.054c0.456,0,0.886,0.207,1.171,0.562
				s0.393,0.821,0.293,1.266l-0.714,3.185c-0.078,0.345,0.13,0.686,0.472,0.775l3.476,0.915c0.328,0.089,0.67-0.1,0.782-0.412
				l4.2-11.762c0.197-0.55,0.695-0.937,1.277-0.989c0.591-0.055,1.143,0.237,1.435,0.743l12.416,21.482
				c2.035,3.521,1.972,7.859-0.165,11.318l-5.866,9.5l-4.179,6.584C39.385,57.495,38.288,58.099,37.091,58.099z M23.77,42.019
				c0.735,0,1.474,0.172,2.135,0.496l1.694,0.832c0.814,0.4,1.503,1.014,1.993,1.775l6.272,9.758
				c0.088,0.137,0.238,0.219,0.401,0.219h0.824c0.164,0,0.314-0.082,0.402-0.221l4.169-6.568l5.856-9.484
				c1.557-2.519,1.603-5.677,0.12-8.241L36.844,11.908l-3.111,8.71c-0.518,1.451-1.9,2.425-3.44,2.425
				c-0.313,0-0.627-0.041-0.931-0.121l-3.476-0.915c-1.91-0.502-3.067-2.406-2.636-4.333l0.304-1.357h-4.18
				c-0.862,0-1.685,0.371-2.256,1.018l-9.366,10.61c-2.35,2.663-2.682,6.486-0.827,9.514l5.624,9.177h5.161l2.297-2.827
				C20.932,42.671,22.303,42.019,23.77,42.019z"/>
		</g>
	</g>
	<g id="XMLID_995_">
		<path style="fill:#231F20;" d="M41.131,51.613h-8.998c-0.552,0-1-0.447-1-1s0.448-1,1-1h8.998c0.553,0,1,0.447,1,1
			S41.683,51.613,41.131,51.613z"/>
	</g>
	<g id="XMLID_984_">
		<path style="fill:#231F20;" d="M28.089,36.215c-0.396,0-0.791-0.155-1.085-0.465c-0.572-0.6-0.549-1.549,0.05-2.12l0.354-0.336
			c0.604-0.569,1.552-0.542,2.121,0.06c0.569,0.602,0.542,1.552-0.06,2.12L29.124,35.8C28.834,36.077,28.461,36.215,28.089,36.215z
			 M59.771,34.187c-0.389,0-0.776-0.15-1.07-0.451c-0.026-0.026-0.248-0.248-0.643-0.587c-0.63-0.539-0.702-1.485-0.163-2.115
			c0.537-0.628,1.486-0.702,2.114-0.163c0.55,0.471,0.839,0.771,0.839,0.771c0.575,0.595,0.562,1.544-0.032,2.121
			C60.525,34.045,60.147,34.187,59.771,34.187z M31.49,33.301c-0.455,0-0.905-0.207-1.2-0.599c-0.498-0.662-0.365-1.603,0.297-2.101
			c0.282-0.212,0.563-0.417,0.843-0.616c0.678-0.478,1.612-0.316,2.091,0.359c0.478,0.677,0.317,1.613-0.359,2.091
			c-0.256,0.181-0.513,0.369-0.771,0.563C32.12,33.202,31.804,33.301,31.49,33.301z M55.769,31.197c-0.258,0-0.52-0.066-0.758-0.206
			c-0.26-0.152-0.533-0.305-0.818-0.457c-0.731-0.388-1.01-1.296-0.622-2.028c0.389-0.731,1.296-1.008,2.028-0.622
			c0.324,0.172,0.633,0.345,0.93,0.519c0.714,0.418,0.954,1.337,0.535,2.052C56.785,30.932,56.284,31.197,55.769,31.197z
			 M35.711,30.635c-0.545,0-1.07-0.298-1.336-0.816c-0.378-0.737-0.087-1.641,0.65-2.019c0.319-0.164,0.638-0.318,0.953-0.464
			c0.75-0.348,1.644-0.021,1.991,0.732c0.348,0.752,0.021,1.644-0.731,1.991c-0.28,0.129-0.562,0.266-0.844,0.411
			C36.175,30.582,35.941,30.635,35.711,30.635z M51.215,29.158c-0.149,0-0.302-0.022-0.452-0.07c-0.292-0.092-0.59-0.179-0.894-0.26
			c-0.801-0.213-1.277-1.034-1.065-1.835c0.213-0.801,1.037-1.275,1.835-1.064c0.351,0.093,0.693,0.193,1.028,0.299
			c0.79,0.25,1.228,1.092,0.979,1.882C52.442,28.749,51.851,29.158,51.215,29.158z M40.365,28.847c-0.669,0-1.278-0.451-1.452-1.128
			c-0.205-0.803,0.278-1.62,1.081-1.825c0.352-0.09,0.699-0.17,1.044-0.242c0.812-0.169,1.604,0.354,1.771,1.167
			c0.168,0.812-0.354,1.604-1.166,1.772c-0.3,0.062-0.601,0.131-0.905,0.209C40.613,28.832,40.488,28.847,40.365,28.847z
			 M46.312,28.249c-0.027,0-0.056,0-0.083-0.002c-0.303-0.017-0.609-0.026-0.921-0.027c-0.829-0.002-1.498-0.676-1.496-1.504
			c0.002-0.827,0.674-1.496,1.5-1.496c0.35-0.019,0.727,0.012,1.081,0.032c0.827,0.045,1.461,0.753,1.416,1.58
			C47.765,27.63,47.103,28.249,46.312,28.249z"/>
	</g>
</g>
<g id="Layer_1">
</g>
</svg>
