<?xml version="1.0" encoding="iso-8859-1"?>
<!-- Generator: Adobe Illustrator 18.1.1, SVG Export Plug-In . SVG Version: 6.00 Build 0)  -->
<!DOCTYPE svg PUBLIC "-//W3C//DTD SVG 1.1//EN" "http://www.w3.org/Graphics/SVG/1.1/DTD/svg11.dtd">
<svg version="1.1" xmlns="http://www.w3.org/2000/svg" xmlns:xlink="http://www.w3.org/1999/xlink" x="0px" y="0px"
	 viewBox="0 0 64 64" style="enable-background:new 0 0 64 64;" xml:space="preserve">
<g id="legal">
	<g id="XMLID_522_">
		<g id="XMLID_570_">
			<path style="fill:#231F20;" d="M48.418,47.596c-6.138,0-11.131-4.994-11.131-11.132c0-0.195,0.038-0.389,0.112-0.569
				l8.413-20.487h-31.67c-0.829,0-1.5-0.672-1.5-1.5s0.671-1.5,1.5-1.5h33.875c0.163-0.01,0.341,0.021,0.509,0.077
				c0.053,0.018,0.105,0.039,0.156,0.062c0.336,0.155,0.589,0.422,0.733,0.736l0,0c0,0.001,0.001,0.003,0.001,0.004
				c0,0.001,0,0.001,0,0.001c0.002,0.004,0.003,0.008,0.005,0.011l10,22.557c0.085,0.192,0.129,0.399,0.129,0.608
				C59.55,42.602,54.556,47.596,48.418,47.596z M40.291,36.748c0.15,4.353,3.738,7.848,8.126,7.848c4.382,0,7.965-3.483,8.126-7.827
				l-8.441-19.041L40.291,36.748z"/>
		</g>
		<g id="XMLID_569_">
			<path style="fill:none;stroke:#231F20;stroke-width:3;stroke-linecap:round;stroke-linejoin:round;stroke-miterlimit:10;" d="
				M14.141,13.908"/>
		</g>
		<g id="XMLID_568_">
			<path style="fill:#231F20;" d="M31.05,54.333c-0.829,0-1.5-0.672-1.5-1.5v-43c0-0.828,0.671-1.5,1.5-1.5s1.5,0.672,1.5,1.5v43
				C32.55,53.661,31.878,54.333,31.05,54.333z"/>
		</g>
		<g id="XMLID_567_">
			<path style="fill:#231F20;" d="M48.05,56.333h-33.5c-0.829,0-1.5-0.672-1.5-1.5s0.671-1.5,1.5-1.5h33.5
				c0.829,0,1.5,0.672,1.5,1.5S48.878,56.333,48.05,56.333z"/>
		</g>
		<g id="XMLID_566_">
			<path style="fill:#231F20;" d="M50.286,37.964h-11.5c-0.829,0-1.5-0.672-1.5-1.5s0.671-1.5,1.5-1.5h11.5
				c0.829,0,1.5,0.672,1.5,1.5S51.115,37.964,50.286,37.964z"/>
		</g>
		<g id="XMLID_565_">
			<path style="fill:#231F20;" d="M14.51,47.596c-6.138,0-11.131-4.994-11.131-11.132c0-0.195,0.038-0.389,0.112-0.569l9.263-22.557
				c0.229-0.557,0.766-0.922,1.367-0.931c0.6,0.009,1.148,0.344,1.392,0.892l10,22.557c0.085,0.192,0.129,0.399,0.129,0.608
				C25.641,42.602,20.648,47.596,14.51,47.596z M6.383,36.748c0.15,4.353,3.738,7.848,8.126,7.848c4.382,0,7.965-3.483,8.126-7.827
				l-8.441-19.041L6.383,36.748z"/>
		</g>
		<g id="XMLID_564_">
			<path style="fill:#231F20;" d="M16.378,37.964h-11.5c-0.829,0-1.5-0.672-1.5-1.5s0.671-1.5,1.5-1.5h11.5
				c0.829,0,1.5,0.672,1.5,1.5S17.207,37.964,16.378,37.964z"/>
		</g>
	</g>
</g>
<g id="Layer_1">
</g>
</svg>
