<?xml version="1.0" encoding="iso-8859-1"?>
<!-- Generator: Adobe Illustrator 18.1.1, SVG Export Plug-In . SVG Version: 6.00 Build 0)  -->
<!DOCTYPE svg PUBLIC "-//W3C//DTD SVG 1.1//EN" "http://www.w3.org/Graphics/SVG/1.1/DTD/svg11.dtd">
<svg version="1.1" xmlns="http://www.w3.org/2000/svg" xmlns:xlink="http://www.w3.org/1999/xlink" x="0px" y="0px"
	 viewBox="0 0 64 64" style="enable-background:new 0 0 64 64;" xml:space="preserve">
<g id="demographic-children">
	<g id="XMLID_918_">
		<path style="fill:#231F20;" d="M44.711,27.677c-2.583,0-4.684-2.101-4.684-4.684c0-2.583,2.101-4.684,4.684-4.684
			s4.684,2.101,4.684,4.684C49.395,25.576,47.294,27.677,44.711,27.677z M44.711,21.31c-0.928,0-1.684,0.755-1.684,1.684
			c0,0.929,0.755,1.684,1.684,1.684s1.684-0.755,1.684-1.684C46.395,22.065,45.64,21.31,44.711,21.31z"/>
	</g>
	<g id="XMLID_917_">
		<path style="fill:#231F20;" d="M45.556,56.094h-1.689c-2.039,0-3.697-1.658-3.697-3.697v-8.463
			c-1.525-0.456-2.64-1.872-2.64-3.543v-5.674c0-3.103,2.524-5.627,5.627-5.627h3.109c3.103,0,5.627,2.524,5.627,5.627v5.674
			c0,1.671-1.115,3.087-2.64,3.543v8.463C49.253,54.436,47.595,56.094,45.556,56.094z M43.157,32.09
			c-1.449,0-2.627,1.179-2.627,2.627v5.674c0,0.385,0.313,0.697,0.698,0.697h0.442c0.829,0,1.5,0.672,1.5,1.5v9.809
			c0,0.385,0.313,0.697,0.697,0.697h1.689c0.385,0,0.698-0.312,0.698-0.697v-9.809c0-0.828,0.671-1.5,1.5-1.5h0.442
			c0.385,0,0.698-0.312,0.698-0.697v-5.674c0-1.448-1.179-2.627-2.627-2.627H43.157z"/>
	</g>
	<g id="XMLID_913_">
		<g id="XMLID_916_">
			<path style="fill:#231F20;" d="M22.623,18.829c-3.011,0-5.461-2.45-5.461-5.461s2.45-5.461,5.461-5.461s5.461,2.45,5.461,5.461
				S25.634,18.829,22.623,18.829z M22.623,10.906c-1.357,0-2.461,1.104-2.461,2.461s1.104,2.461,2.461,2.461
				s2.461-1.104,2.461-2.461S23.98,10.906,22.623,10.906z"/>
		</g>
		<g id="XMLID_914_">
			<path style="fill:#231F20;" d="M23.778,56.094h-2.312c-2.486,0-4.508-2.022-4.508-4.508v-8.402h-3.352
				c-0.438,0-0.854-0.191-1.139-0.523s-0.411-0.772-0.344-1.205l2.221-14.396c0.175-3.832,3.294-6.819,7.141-6.819h2.271
				c3.848,0,6.966,2.988,7.141,6.819l2.222,14.396c0.067,0.433-0.059,0.873-0.344,1.205s-0.701,0.523-1.139,0.523h-3.353v8.402
				C28.286,54.072,26.264,56.094,23.778,56.094z M15.356,40.184h3.103c0.829,0,1.5,0.672,1.5,1.5v9.902
				c0,0.831,0.676,1.508,1.508,1.508h2.312c0.832,0,1.508-0.677,1.508-1.508v-9.902c0-0.828,0.671-1.5,1.5-1.5h3.103l-1.968-12.751
				c-0.009-0.06-0.015-0.119-0.017-0.18c-0.074-2.25-1.895-4.013-4.146-4.013h-2.271c-2.251,0-4.072,1.763-4.146,4.013
				c-0.002,0.061-0.007,0.12-0.017,0.18L15.356,40.184z"/>
		</g>
	</g>
</g>
<g id="Layer_1">
</g>
</svg>
