<?xml version="1.0" encoding="iso-8859-1"?>
<!-- Generator: Adobe Illustrator 18.1.1, SVG Export Plug-In . SVG Version: 6.00 Build 0)  -->
<!DOCTYPE svg PUBLIC "-//W3C//DTD SVG 1.1//EN" "http://www.w3.org/Graphics/SVG/1.1/DTD/svg11.dtd">
<svg version="1.1" xmlns="http://www.w3.org/2000/svg" xmlns:xlink="http://www.w3.org/1999/xlink" x="0px" y="0px"
	 viewBox="0 0 64 64" style="enable-background:new 0 0 64 64;" xml:space="preserve">
<g id="checkbox-unselected">
	<g id="XMLID_675_">
		<g id="XMLID_676_">
			<path style="fill:#231F20;" d="M44.381,47.476H20.086c-1.964,0-3.562-1.597-3.562-3.561V19.619c0-1.707,1.388-3.095,3.095-3.095
				h24.762c1.707,0,3.095,1.388,3.095,3.095v24.762C47.476,46.088,46.088,47.476,44.381,47.476z M19.619,18.724
				c-0.493,0-0.896,0.402-0.896,0.896v24.296c0,0.75,0.611,1.361,1.362,1.361h24.295c0.493,0,0.896-0.402,0.896-0.896V19.619
				c0-0.493-0.402-0.896-0.896-0.896H19.619z"/>
		</g>
	</g>
</g>
<g id="Layer_1">
</g>
</svg>
