<?xml version="1.0" encoding="iso-8859-1"?>
<!-- Generator: Adobe Illustrator 18.1.1, SVG Export Plug-In . SVG Version: 6.00 Build 0)  -->
<!DOCTYPE svg PUBLIC "-//W3C//DTD SVG 1.1//EN" "http://www.w3.org/Graphics/SVG/1.1/DTD/svg11.dtd">
<svg version="1.1" xmlns="http://www.w3.org/2000/svg" xmlns:xlink="http://www.w3.org/1999/xlink" x="0px" y="0px"
	 viewBox="0 0 64 64" style="enable-background:new 0 0 64 64;" xml:space="preserve">
<g id="tech">
	<g id="XMLID_611_">
		<g id="XMLID_615_">
			<path style="fill:#231F20;" d="M58.038,56.233H5.506c-2.396,0-4.345-1.949-4.345-4.345V49.16c0-0.594,0.35-1.131,0.892-1.371
				l5.553-2.462l0.789-28.148c0-2.354,1.903-4.303,4.242-4.303h38.271c2.339,0,4.243,1.949,4.243,4.345l0.788,28.106l5.554,2.462
				c0.542,0.24,0.892,0.777,0.892,1.371v2.729C62.383,54.284,60.434,56.233,58.038,56.233z M4.161,50.136v1.753
				c0,0.741,0.603,1.345,1.345,1.345h52.532c0.742,0,1.345-0.604,1.345-1.345v-1.753l-5.526-2.449
				c-0.528-0.234-0.875-0.751-0.892-1.329L52.15,17.263c0-0.783-0.558-1.387-1.243-1.387H12.636c-0.685,0-1.243,0.604-1.243,1.345
				l-0.772,27.595h38.544c0.829,0,1.5,0.672,1.5,1.5s-0.671,1.5-1.5,1.5H9.396L4.161,50.136z"/>
		</g>
		<g id="XMLID_612_">
			<path style="fill:#231F20;" d="M48.792,42.36c-0.006,0-0.013,0-0.02,0h-34c-0.405,0-0.793-0.164-1.076-0.455
				c-0.282-0.291-0.435-0.684-0.423-1.089l0.61-20.995c0.024-0.811,0.688-1.456,1.5-1.456h32.779c0.812,0,1.476,0.646,1.5,1.456
				l0.603,20.75c0.018,0.094,0.028,0.19,0.028,0.289C50.292,41.688,49.62,42.36,48.792,42.36z M16.316,39.36h30.911l-0.523-17.995
				H16.839L16.316,39.36z"/>
		</g>
	</g>
</g>
<g id="Layer_1">
</g>
</svg>
