<?xml version="1.0" encoding="iso-8859-1"?>
<!-- Generator: Adobe Illustrator 18.1.1, SVG Export Plug-In . SVG Version: 6.00 Build 0)  -->
<!DOCTYPE svg PUBLIC "-//W3C//DTD SVG 1.1//EN" "http://www.w3.org/Graphics/SVG/1.1/DTD/svg11.dtd">
<svg version="1.1" xmlns="http://www.w3.org/2000/svg" xmlns:xlink="http://www.w3.org/1999/xlink" x="0px" y="0px"
	 viewBox="0 0 64 64" style="enable-background:new 0 0 64 64;" xml:space="preserve">
<g id="support">
	<g id="XMLID_638_">
		<g id="XMLID_642_">
			<g id="XMLID_645_">
				<path style="fill:#231F20;" d="M59.036,56.381H33.44c-0.828,0-1.5-0.672-1.5-1.5s0.672-1.5,1.5-1.5h25.597
					c0.543,0,1.067-0.271,1.438-0.745c0.411-0.524,0.593-1.225,0.5-1.923l-0.412-3.618c-0.322-2.841-2.119-5.159-4.577-5.905
					c-2.009-0.61-4.066-1.041-6.115-1.28c-0.823-0.097-1.412-0.842-1.316-1.664c0.097-0.823,0.854-1.411,1.664-1.316
					c2.227,0.261,4.46,0.728,6.639,1.39c3.604,1.095,6.229,4.406,6.687,8.438l0.408,3.589c0.196,1.466-0.209,2.986-1.115,4.142
					C61.893,55.691,60.508,56.381,59.036,56.381z"/>
			</g>
			<g id="XMLID_644_">
				<path style="fill:#231F20;" d="M46.23,42.886c-2.407,0-4.568-1.666-5.254-4.052c-0.229-0.796,0.23-1.627,1.027-1.855
					c0.788-0.23,1.627,0.229,1.855,1.027c0.318,1.106,1.293,1.88,2.371,1.88c0.828,0,1.5,0.672,1.5,1.5S47.058,42.886,46.23,42.886z
					"/>
			</g>
			<g id="XMLID_643_">
				<path style="fill:#231F20;" d="M46.23,42.886c-2.407,0-4.568-1.666-5.254-4.052c-0.162-0.559-0.241-1.075-0.241-1.575V36.85
					c-1.957-2.167-3.075-5.414-3.075-8.959c0-4.992,4.005-9.371,8.57-9.371c4.566,0,8.571,4.379,8.571,9.371
					c0,3.612-1.118,6.878-3.076,9.017v0.352c0,0.499-0.078,1.014-0.239,1.574c-0.229,0.795-1.056,1.259-1.855,1.027
					c-0.796-0.228-1.256-1.059-1.027-1.855c0.083-0.291,0.122-0.528,0.122-0.746v-0.618c0-0.607,0.232-1.182,0.653-1.617
					c1.541-1.58,2.423-4.179,2.423-7.133c0-3.334-2.655-6.371-5.571-6.371c-2.915,0-5.57,3.037-5.57,6.371
					c0,2.892,0.887,5.476,2.433,7.089c0.415,0.435,0.643,1.005,0.643,1.607v0.672c0,0.217,0.039,0.453,0.123,0.744
					c0.319,1.109,1.294,1.883,2.372,1.883c0.828,0,1.5,0.672,1.5,1.5S47.058,42.886,46.23,42.886z"/>
			</g>
		</g>
		<g id="XMLID_639_">
			<g id="XMLID_641_">
				<path style="fill:#231F20;" d="M36.479,56.381H6.678c-1.636,0-3.178-0.77-4.23-2.111c-1.014-1.292-1.468-2.994-1.245-4.67
					l0.472-4.151c0.522-4.595,3.51-8.368,7.611-9.614c2.522-0.766,5.103-1.307,7.67-1.607c0.731-0.089,1.413,0.369,1.616,1.075
					c0.401,1.394,1.635,2.367,2.999,2.367c0.829,0,1.5,0.672,1.5,1.5s-0.671,1.5-1.5,1.5c-2.26,0-4.327-1.313-5.388-3.314
					c-2.019,0.295-4.041,0.747-6.024,1.351c-2.956,0.897-5.115,3.677-5.502,7.082l-0.475,4.18c-0.121,0.908,0.11,1.791,0.628,2.451
					c0.48,0.612,1.162,0.963,1.87,0.963h29.801c0.708,0,1.39-0.351,1.869-0.963c0.519-0.661,0.749-1.544,0.632-2.422l-0.479-4.209
					c-0.388-3.405-2.547-6.185-5.502-7.082c-2.356-0.716-4.767-1.221-7.164-1.5c-0.823-0.097-1.412-0.841-1.316-1.664
					c0.096-0.823,0.84-1.413,1.664-1.316c2.575,0.301,5.161,0.842,7.687,1.609c4.102,1.246,7.089,5.02,7.611,9.613l0.476,4.181
					c0.22,1.647-0.234,3.35-1.249,4.642C39.657,55.612,38.116,56.381,36.479,56.381z"/>
			</g>
			<g id="XMLID_640_">
				<path style="fill:#231F20;" d="M21.57,40.669c-2.693,0-5.112-1.865-5.881-4.537c-0.185-0.643-0.27-1.204-0.27-1.768v-0.571
					c-2.278-2.479-3.581-6.23-3.581-10.336c0-5.681,4.548-10.664,9.732-10.664s9.732,4.983,9.732,10.664
					c0,4.183-1.303,7.958-3.581,10.402v0.505c0,0.556-0.088,1.133-0.27,1.765c-0.229,0.797-1.062,1.258-1.856,1.027
					c-0.796-0.229-1.256-1.06-1.028-1.855c0.104-0.363,0.153-0.661,0.153-0.937v-0.72c0-0.646,0.247-1.256,0.695-1.715
					c1.834-1.882,2.886-4.97,2.886-8.473c0-4.011-3.209-7.664-6.732-7.664s-6.732,3.653-6.732,7.664c0,3.43,1.057,6.5,2.9,8.424
					c0.439,0.46,0.681,1.063,0.681,1.7v0.783c0,0.275,0.049,0.574,0.153,0.939c0.401,1.392,1.634,2.365,2.998,2.365
					c0.829,0,1.5,0.672,1.5,1.5S22.398,40.669,21.57,40.669z"/>
			</g>
		</g>
	</g>
</g>
<g id="Layer_1">
</g>
</svg>
