<?xml version="1.0" encoding="iso-8859-1"?>
<!-- Generator: Adobe Illustrator 18.1.1, SVG Export Plug-In . SVG Version: 6.00 Build 0)  -->
<!DOCTYPE svg PUBLIC "-//W3C//DTD SVG 1.1//EN" "http://www.w3.org/Graphics/SVG/1.1/DTD/svg11.dtd">
<svg version="1.1" xmlns="http://www.w3.org/2000/svg" xmlns:xlink="http://www.w3.org/1999/xlink" x="0px" y="0px"
	 viewBox="0 0 64 64" style="enable-background:new 0 0 64 64;" xml:space="preserve">
<g id="mental">
	<g id="XMLID_480_">
		<path style="fill:#231F20;" d="M36.67,62.456c-3.912,0-8.285-0.984-9.928-3.888l-0.15-0.264c-0.607-1.056-0.923-1.678-1.482-4.246
			c-0.455-2.092-1.514-2.291-4.424-2.328c-2.283-0.029-5.125-0.066-6.796-2.704c-1.227-1.936-0.934-4.179-0.676-6.158
			c0.178-1.363,0.346-2.651-0.001-3.561c-0.136-0.357-0.78-0.691-1.402-1.016c-1.254-0.652-3.149-1.638-3.041-4.132
			c0.062-1.422,0.984-2.689,1.797-3.809c0.249-0.343,0.486-0.664,0.655-0.951c0.164-0.279,0.328-0.55,0.489-0.815
			c0.928-1.529,1.599-2.635,1.443-3.998c-0.46-4.027-0.759-6.633,1.578-10.727c2.455-4.302,5.548-7.109,9.735-8.836
			c7.076-2.917,15.654-2.595,22.386,0.841c5.768,2.944,9.745,7.897,11.199,13.949c1.145,4.765-0.061,10.326-3.581,16.529
			c-0.282,0.496-0.581,0.994-0.882,1.495c-1.124,1.868-2.285,3.801-2.539,5.818c-0.322,2.562,0.719,5.463,1.78,7.963
			c0.324,0.763-0.032,1.643-0.795,1.967c-0.76,0.322-1.643-0.032-1.967-0.795c-1.217-2.867-2.406-6.24-1.995-9.509
			c0.333-2.646,1.66-4.854,2.944-6.99c0.288-0.479,0.574-0.955,0.844-1.43c3.133-5.521,4.234-10.348,3.273-14.348
			c-1.246-5.186-4.671-9.439-9.646-11.979c-5.975-3.049-13.592-3.331-19.878-0.739c-3.538,1.459-6.167,3.857-8.273,7.549
			c-1.85,3.242-1.637,5.104-1.212,8.816c0.282,2.466-0.802,4.252-1.85,5.979c-0.154,0.253-0.31,0.511-0.465,0.775
			c-0.227,0.388-0.514,0.781-0.816,1.198c-0.479,0.66-1.204,1.657-1.227,2.176c-0.021,0.466,0.117,0.658,1.428,1.34
			c1.015,0.527,2.277,1.185,2.821,2.606c0.617,1.616,0.392,3.347,0.173,5.019c-0.211,1.618-0.41,3.146,0.235,4.165
			c0.763,1.203,2.131,1.281,4.3,1.31c2.665,0.034,6.314,0.081,7.317,4.69c0.484,2.229,0.68,2.568,1.151,3.39l0.16,0.279
			c1.519,2.682,9.299,2.844,12.162,1.677c0.766-0.311,1.643,0.057,1.955,0.824c0.312,0.768-0.057,1.643-0.824,1.955
			C41.334,62.079,39.09,62.456,36.67,62.456z"/>
	</g>
	<g id="XMLID_479_">
		<path style="fill:#231F20;" d="M42.888,34.732c-1.575,0-3.121-0.559-4.26-1.503c-0.709,0.217-1.461,0.329-2.221,0.33
			c-2.082,0-4.097-0.804-5.638-2.227c-3.059,0.203-4.4-1.04-4.906-2.527c-1.509-0.036-2.833-0.79-3.558-2.033
			c-0.418-0.716-0.598-1.518-0.539-2.312c-0.99-0.646-1.708-1.839-1.887-3.295c-0.203-1.664,0.364-3.096,1.463-3.903
			c0.001-1.097,0.374-2.185,1.084-3.111c1.024-1.334,2.606-2.121,4.367-2.179c0.834-1.682,2.42-2.651,4.431-2.651
			c0.738,0,1.509,0.125,2.302,0.373c1.053-0.829,2.144-1.249,3.251-1.249c0.986,0,2.381,0.347,3.742,1.868
			c2.897-0.46,4.917,0.784,5.526,3.235c1.784,0.498,3.065,1.391,3.737,2.613c0.354,0.645,0.664,1.622,0.42,2.898
			c1.487,1.257,2.275,2.701,2.24,4.141c-0.024,0.972-0.424,1.873-1.15,2.627c0.541,1.372,0.502,2.874-0.151,4.152
			c-0.737,1.444-2.168,2.343-3.87,2.449C46.492,33.846,44.872,34.731,42.888,34.732z M38.997,29.977
			c0.446,0,0.884,0.199,1.176,0.568c0.572,0.721,1.637,1.187,2.715,1.187c0.396,0,1.704-0.079,1.868-1.087
			c0.132-0.809,0.89-1.357,1.698-1.242c0.966,0.144,1.684-0.137,2.016-0.787c0.341-0.669,0.223-1.569-0.303-2.296
			c-0.245-0.339-0.338-0.765-0.255-1.175s0.333-0.767,0.689-0.984c0.378-0.231,0.832-0.598,0.842-1.033
			c0.012-0.487-0.459-1.336-1.816-2.258c-0.588-0.399-0.815-1.156-0.544-1.812c0.372-0.902,0.145-1.314,0.071-1.45
			c-0.336-0.611-1.317-1.101-2.691-1.343c-0.68-0.12-1.19-0.688-1.236-1.376c-0.095-1.398-0.637-1.673-1.543-1.673
			c-0.397,0-0.859,0.07-1.373,0.207c-0.609,0.161-1.253-0.072-1.614-0.587c-0.446-0.635-1.141-1.391-1.918-1.391
			c-0.684,0-1.397,0.562-1.875,1.033c-0.432,0.426-1.077,0.552-1.636,0.313c-0.73-0.308-1.437-0.471-2.042-0.471
			c-1.082,0-1.685,0.484-1.954,1.571c-0.187,0.753-0.917,1.241-1.684,1.122c-0.201-0.03-0.396-0.046-0.584-0.046
			c-1.238,0-1.907,0.632-2.196,1.009c-0.406,0.529-0.556,1.191-0.401,1.771c0.104,0.389,0.048,0.804-0.157,1.15
			s-0.54,0.598-0.931,0.694c-0.574,0.143-0.474,1.101-0.461,1.209c0.088,0.722,0.466,1.182,0.634,1.182
			c0.535-0.037,1.079,0.234,1.372,0.701c0.292,0.466,0.312,1.055,0.041,1.534c-0.192,0.341-0.196,0.721-0.008,1.042
			c0.119,0.204,0.418,0.546,1.082,0.546c0.213,0,0.443-0.036,0.686-0.107c0.445-0.129,0.926-0.048,1.302,0.224
			s0.605,0.702,0.621,1.166c0.032,0.963,0.109,1.268,1.499,1.268c0.312,0,0.674-0.024,1.075-0.071
			c0.485-0.062,0.965,0.123,1.29,0.485c1.01,1.12,2.489,1.789,3.958,1.789c0.687-0.001,1.356-0.149,1.935-0.431
			C38.551,30.026,38.776,29.977,38.997,29.977z"/>
	</g>
	<g id="XMLID_478_">
		<path style="fill:#231F20;" d="M30.283,31.434c-1.11,0-2.058-0.239-2.82-0.72c-1.158-0.729-1.824-1.981-1.875-3.526
			c-0.028-0.828,0.621-1.521,1.449-1.549c0.809-0.06,1.521,0.62,1.549,1.449c0.027,0.805,0.353,1.01,0.476,1.088
			c0.704,0.442,2.543,0.439,5.598-0.901c0.757-0.332,1.644,0.013,1.976,0.771c0.333,0.759-0.012,1.644-0.771,1.977
			C33.725,30.962,31.843,31.434,30.283,31.434z"/>
	</g>
</g>
<g id="Layer_1">
</g>
</svg>
