<?xml version="1.0" encoding="iso-8859-1"?>
<!-- Generator: Adobe Illustrator 18.1.1, SVG Export Plug-In . SVG Version: 6.00 Build 0)  -->
<!DOCTYPE svg PUBLIC "-//W3C//DTD SVG 1.1//EN" "http://www.w3.org/Graphics/SVG/1.1/DTD/svg11.dtd">
<svg version="1.1" xmlns="http://www.w3.org/2000/svg" xmlns:xlink="http://www.w3.org/1999/xlink" x="0px" y="0px"
	 viewBox="0 0 64 64" style="enable-background:new 0 0 64 64;" xml:space="preserve">
<g id="centrelink">
	<g id="XMLID_420_">
		<path id="XMLID_433_" style="fill:#231F20;" d="M40.811,56.348c-0.371,0-0.736-0.138-1.019-0.398l-7.297-6.743
			c-0.277-0.256-0.713-0.257-0.993,0.001l-7.296,6.742c-0.425,0.393-1.039,0.507-1.576,0.291c-1.089-0.437-2.157-0.955-3.175-1.541
			c-0.499-0.287-0.79-0.835-0.748-1.409l0.722-9.898c0.028-0.378-0.244-0.718-0.618-0.775L9.07,41.129
			c-0.573-0.087-1.044-0.497-1.21-1.053c-0.346-1.157-0.609-2.339-0.782-3.512c-0.083-0.567,0.163-1.133,0.636-1.456l8.115-5.557
			c0.313-0.214,0.41-0.639,0.221-0.968l-4.852-8.443c-0.288-0.501-0.262-1.124,0.067-1.601c0.695-1.005,1.473-1.971,2.312-2.869
			c0.392-0.419,0.988-0.576,1.536-0.411l9.294,2.847c0.359,0.11,0.754-0.077,0.894-0.43l3.554-9.002
			c0.211-0.536,0.711-0.903,1.287-0.945c1.415-0.104,2.306-0.104,3.721,0c0.575,0.042,1.075,0.409,1.287,0.945l3.554,9.002
			c0.139,0.353,0.533,0.541,0.894,0.43l9.294-2.847c0.546-0.166,1.145-0.009,1.536,0.411c0.839,0.899,1.617,1.865,2.311,2.87
			c0.329,0.476,0.355,1.099,0.067,1.6l-4.852,8.443c-0.188,0.328-0.092,0.754,0.22,0.968h0l8.115,5.557
			c0.473,0.323,0.72,0.89,0.636,1.457c-0.173,1.172-0.437,2.354-0.782,3.51c-0.166,0.557-0.638,0.967-1.211,1.054l-9.741,1.488
			c-0.375,0.058-0.646,0.398-0.619,0.776l0.722,9.897c0.042,0.574-0.249,1.122-0.748,1.409c-1.017,0.585-2.085,1.104-3.176,1.541
			C41.188,56.313,40.998,56.348,40.811,56.348z M32,46.02c0.911,0,1.822,0.328,2.531,0.983l6.585,6.085
			c0.376-0.17,0.748-0.351,1.114-0.541l-0.652-8.937c-0.14-1.929,1.247-3.668,3.158-3.959l8.78-1.342
			c0.107-0.422,0.201-0.846,0.283-1.27l-7.323-5.015h0c-1.595-1.091-2.09-3.26-1.127-4.937l4.369-7.604
			c-0.277-0.367-0.567-0.727-0.868-1.077l-8.377,2.566c-1.85,0.566-3.853-0.399-4.562-2.197l-3.202-8.11
			c-0.471-0.018-0.947-0.018-1.418,0l-3.202,8.11c-0.709,1.798-2.712,2.764-4.562,2.197l-8.377-2.566
			c-0.3,0.351-0.59,0.71-0.868,1.077l4.369,7.604c0.963,1.677,0.468,3.846-1.127,4.937l-7.323,5.014
			c0.082,0.424,0.176,0.848,0.283,1.27l8.781,1.342c1.912,0.292,3.298,2.031,3.157,3.959l-0.652,8.937
			c0.366,0.19,0.738,0.371,1.114,0.541l6.584-6.085C30.178,46.348,31.089,46.02,32,46.02z"/>
	</g>
</g>
<g id="Layer_1">
</g>
</svg>
