<?xml version="1.0" encoding="iso-8859-1"?>
<!-- Generator: Adobe Illustrator 18.1.1, SVG Export Plug-In . SVG Version: 6.00 Build 0)  -->
<!DOCTYPE svg PUBLIC "-//W3C//DTD SVG 1.1//EN" "http://www.w3.org/Graphics/SVG/1.1/DTD/svg11.dtd">
<svg version="1.1" xmlns="http://www.w3.org/2000/svg" xmlns:xlink="http://www.w3.org/1999/xlink" x="0px" y="0px"
	 viewBox="0 0 64 64" style="enable-background:new 0 0 64 64;" xml:space="preserve">
<g id="entertainment">
	<g id="XMLID_581_">
		<g id="XMLID_590_">
			<g id="XMLID_592_">
				<path style="fill:#231F20;" d="M26.13,50.276c-0.373,0-0.747-0.139-1.036-0.416c-3.13-2.99-7.47-4.571-12.55-4.571
					c-2.664,0-5.303,0.501-7.632,1.45c-0.452,0.185-0.965,0.137-1.376-0.127c-0.411-0.264-0.667-0.71-0.688-1.198L1.382,11.518
					c-0.027-0.633,0.346-1.215,0.933-1.454C5.169,8.903,8.39,8.288,11.63,8.288c5.531,0,10.733,1.743,14.5,4.822
					c3.767-3.079,8.968-4.822,14.5-4.822c3.24,0,6.462,0.614,9.315,1.775c0.565,0.23,0.935,0.779,0.935,1.39v4.304
					c0,0.828-0.672,1.5-1.5,1.5s-1.5-0.672-1.5-1.5V12.49c-2.259-0.787-4.744-1.201-7.25-1.201c-5.293,0-10.2,1.788-13.463,4.906
					c-0.58,0.555-1.494,0.555-2.073,0c-3.263-3.118-8.17-4.906-13.464-4.906c-2.489,0-4.958,0.408-7.205,1.186l1.331,30.792
					c2.156-0.643,4.466-0.978,6.787-0.978c5.337,0,10.002,1.545,13.586,4.484c4.311-3.544,10.134-5.071,16.563-4.307
					c0.822,0.098,1.41,0.844,1.312,1.666c-0.097,0.823-0.856,1.425-1.666,1.312c-6.058-0.712-11.441,0.851-15.173,4.415
					C26.877,50.137,26.503,50.276,26.13,50.276z"/>
			</g>
			<g id="XMLID_591_">
				<path style="fill:#231F20;" d="M26.13,42.453c-0.829,0-1.5-0.672-1.5-1.5V15.111c0-0.828,0.671-1.5,1.5-1.5s1.5,0.672,1.5,1.5
					v25.843C27.63,41.781,26.959,42.453,26.13,42.453z"/>
			</g>
		</g>
		<g id="XMLID_582_">
			<g id="XMLID_589_">
				<path style="fill:#231F20;" d="M60.807,60.141H37.906c-0.828,0-1.5-0.672-1.5-1.5v-7.006c0-0.828,0.672-1.5,1.5-1.5h0.608
					v-1.766c0-0.619,0.381-1.175,0.958-1.398c1.013-0.393,3.408-1.647,3.778-4.805l0.633-7.463l-2.76-2.566
					c-0.305-0.284-0.479-0.682-0.479-1.099V20.494c0-0.828,0.672-1.5,1.5-1.5s1.5,0.672,1.5,1.5v9.891l2.816,2.618
					c0.338,0.314,0.512,0.766,0.473,1.226l-0.699,8.239c-0.468,3.993-3.096,5.991-4.721,6.857v2.31c0,0.828-0.672,1.5-1.5,1.5
					h-0.608v4.006h19.901v-4.006h-0.599c-0.828,0-1.51-0.672-1.51-1.5v-2.308c-1.646-0.87-4.312-2.873-4.72-6.832l-0.701-8.267
					c-0.039-0.46,0.135-0.912,0.473-1.226l2.817-2.618v-9.891c0-0.828,0.672-1.5,1.5-1.5s1.5,0.672,1.5,1.5v10.544
					c0,0.417-0.174,0.814-0.479,1.099l-2.761,2.566l0.637,7.511c0.319,3.094,2.747,4.358,3.775,4.757
					c0.577,0.224,0.958,0.779,0.958,1.398v1.766h0.608c0.828,0,1.5,0.672,1.5,1.5v7.006C62.307,59.469,61.635,60.141,60.807,60.141z
					"/>
			</g>
			<g id="XMLID_587_">
				<g id="XMLID_588_">
					<path style="fill:#231F20;" d="M53.699,53.135H40.004c-0.828,0-1.5-0.672-1.5-1.5s0.672-1.5,1.5-1.5h13.695
						c0.828,0,1.5,0.672,1.5,1.5S54.527,53.135,53.699,53.135z"/>
				</g>
			</g>
			<g id="XMLID_586_">
				<path style="fill:#231F20;" d="M46.953,26.421c-0.828,0-1.5-0.672-1.5-1.5v-4.427c0-0.828,0.672-1.5,1.5-1.5s1.5,0.672,1.5,1.5
					v4.427C48.453,25.749,47.781,26.421,46.953,26.421z"/>
			</g>
			<g id="XMLID_585_">
				<path style="fill:#231F20;" d="M42.145,26.421c-0.828,0-1.5-0.672-1.5-1.5v-4.427c0-0.828,0.672-1.5,1.5-1.5s1.5,0.672,1.5,1.5
					v4.427C43.645,25.749,42.973,26.421,42.145,26.421z"/>
			</g>
			<g id="XMLID_584_">
				<path style="fill:#231F20;" d="M56.568,26.421c-0.828,0-1.5-0.672-1.5-1.5v-4.427c0-0.828,0.672-1.5,1.5-1.5s1.5,0.672,1.5,1.5
					v4.427C58.068,25.749,57.396,26.421,56.568,26.421z"/>
			</g>
			<g id="XMLID_583_">
				<path style="fill:#231F20;" d="M51.76,26.421c-0.828,0-1.5-0.672-1.5-1.5v-4.427c0-0.828,0.672-1.5,1.5-1.5s1.5,0.672,1.5,1.5
					v4.427C53.26,25.749,52.589,26.421,51.76,26.421z"/>
			</g>
		</g>
	</g>
</g>
<g id="Layer_1">
</g>
</svg>
