<?xml version="1.0" encoding="iso-8859-1"?>
<!-- Generator: Adobe Illustrator 18.1.1, SVG Export Plug-In . SVG Version: 6.00 Build 0)  -->
<!DOCTYPE svg PUBLIC "-//W3C//DTD SVG 1.1//EN" "http://www.w3.org/Graphics/SVG/1.1/DTD/svg11.dtd">
<svg version="1.1" xmlns="http://www.w3.org/2000/svg" xmlns:xlink="http://www.w3.org/1999/xlink" x="0px" y="0px"
	 viewBox="0 0 64 64" style="enable-background:new 0 0 64 64;" xml:space="preserve">
<g id="job">
	<g id="XMLID_593_">
		<g id="XMLID_601_">
			<path style="fill:#231F20;" d="M54.051,56.34h-47.5c-0.812,0-1.476-0.646-1.5-1.456L4.074,21.383
				c-0.012-0.405,0.141-0.798,0.423-1.089c0.283-0.291,0.671-0.455,1.076-0.455h49.455c0.405,0,0.794,0.164,1.076,0.455
				s0.435,0.684,0.423,1.089L55.55,54.884C55.526,55.695,54.862,56.34,54.051,56.34z M8.008,53.34h44.586l0.891-30.501H7.118
				L8.008,53.34z"/>
		</g>
		<g id="XMLID_598_">
			<g id="XMLID_600_">
				<path style="fill:#231F20;" d="M13.55,56.34c-0.809,0-1.475-0.644-1.499-1.457l-0.689-24.131
					c-0.023-0.828,0.628-1.519,1.457-1.542c0.814-0.064,1.519,0.628,1.542,1.456l0.689,24.131c0.023,0.828-0.628,1.519-1.457,1.542
					C13.579,56.34,13.564,56.34,13.55,56.34z"/>
			</g>
			<g id="XMLID_599_">
				<path style="fill:#231F20;" d="M47.052,56.34c-0.015,0-0.029,0-0.044-0.001c-0.828-0.023-1.48-0.714-1.456-1.542l0.689-24.131
					c0.023-0.828,0.733-1.52,1.542-1.456c0.828,0.023,1.48,0.714,1.456,1.542L48.55,54.883C48.527,55.697,47.86,56.34,47.052,56.34z
					"/>
			</g>
		</g>
		<g id="XMLID_595_">
			<g id="XMLID_597_">
				<path style="fill:#231F20;" d="M12.861,27.065c-0.862,0-1.562-0.699-1.562-1.562V21.86c0-0.862,0.699-1.562,1.562-1.562
					s1.562,0.699,1.562,1.562v3.644C14.423,26.366,13.724,27.065,12.861,27.065z"/>
			</g>
			<g id="XMLID_596_">
				<path style="fill:#231F20;" d="M47.74,27.065c-0.862,0-1.562-0.699-1.562-1.562V21.86c0-0.862,0.699-1.562,1.562-1.562
					s1.562,0.699,1.562,1.562v3.644C49.302,26.366,48.602,27.065,47.74,27.065z"/>
			</g>
		</g>
		<g id="XMLID_594_">
			<path style="fill:#231F20;" d="M40.392,22.901c-0.862,0-1.562-0.699-1.562-1.562v-6.346c0-0.772-0.628-1.4-1.4-1.4h-14.26
				c-0.772,0-1.4,0.628-1.4,1.4v6.346c0,0.862-0.699,1.562-1.562,1.562s-1.562-0.699-1.562-1.562v-6.346
				c0-2.494,2.029-4.523,4.523-4.523h14.26c2.494,0,4.523,2.029,4.523,4.523v6.346C41.954,22.202,41.255,22.901,40.392,22.901z"/>
		</g>
	</g>
</g>
<g id="Layer_1">
</g>
</svg>
