<?xml version="1.0" encoding="iso-8859-1"?>
<!-- Generator: Adobe Illustrator 18.1.1, SVG Export Plug-In . SVG Version: 6.00 Build 0)  -->
<!DOCTYPE svg PUBLIC "-//W3C//DTD SVG 1.1//EN" "http://www.w3.org/Graphics/SVG/1.1/DTD/svg11.dtd">
<svg version="1.1" xmlns="http://www.w3.org/2000/svg" xmlns:xlink="http://www.w3.org/1999/xlink" x="0px" y="0px"
	 viewBox="0 0 64 64" style="enable-background:new 0 0 64 64;" xml:space="preserve">
<g id="demographic-family-violence">
	<circle id="XMLID_1182_" style="fill:#231F20;" cx="30.195" cy="40.877" r="2.817"/>
	<g id="XMLID_1201_">
		<path style="fill:#231F20;" d="M30.79,7.995c1.033,0,1.878,0.845,1.878,1.878l0.609,18.72c0.012,0.373,0.276,0.69,0.641,0.768
			c0.034,0.007,0.068,0.015,0.101,0.022c0.059,0.013,0.118,0.019,0.177,0.019c0.338,0,0.65-0.213,0.766-0.544l5.035-14.347
			c0.252-0.8,0.997-1.314,1.795-1.314c0.186,0,0.374,0.028,0.56,0.086c0.985,0.31,1.538,1.37,1.228,2.356l-4.505,16.128
			c-0.919,5.154,1.351,7.354,2.522,7.354c0.1,0,0.192-0.016,0.273-0.048c1.033-0.401,5.283-4.91,7.059-6.587
			c1.198-1.131,2.214-1.492,3.025-1.492c1.43,0,2.217,1.124,2.217,1.124L41.529,47.877c-2.623,2.726-5.564,6.128-10.739,6.128
			c-6.12,0-9.723-3.678-11.081-8.138l-2.505-8.782l-7.156-13.907c-0.47-0.854-0.156-1.936,0.697-2.406v0
			c0.269-0.148,0.561-0.218,0.849-0.218c0.626,0,1.235,0.331,1.557,0.916l6.758,11.649c0.154,0.192,0.388,0.303,0.634,0.303
			c0.002,0,0.003,0,0.005,0c0.248-0.001,0.482-0.116,0.635-0.311c0.218-0.277,0.457-0.544,0.716-0.799
			c0.191-0.188,0.277-0.46,0.229-0.724l-3.451-19.214c-0.216-1.01,0.435-2.013,1.445-2.229c0.131-0.028,0.261-0.041,0.39-0.041
			c0.866,0,1.651,0.607,1.839,1.486l4.259,17.193c0.092,0.37,0.422,0.618,0.788,0.618c0.058,0,0.118-0.006,0.177-0.019
			c0.029-0.006,0.057-0.013,0.086-0.019c0.364-0.079,0.629-0.396,0.641-0.768l0.609-18.72C28.911,8.841,29.757,7.995,30.79,7.995
			L30.79,7.995 M30.79,5.184c-2.567,0-4.659,2.074-4.689,4.634l-0.15,4.606l-0.861-3.476c-0.48-2.122-2.395-3.656-4.576-3.656
			c-0.327,0-0.656,0.035-0.977,0.103c-1.223,0.261-2.272,0.984-2.955,2.037c-0.672,1.037-0.907,2.269-0.664,3.474l2.01,11.191
			l-2.331-4.018c-0.81-1.443-2.34-2.337-4.001-2.337c-0.769,0-1.532,0.196-2.206,0.567c-2.2,1.211-3.013,3.976-1.827,6.183
			l7.015,13.632l2.428,8.514c1.945,6.391,7.093,10.178,13.784,10.178c6.085,0,9.691-3.774,12.324-6.529l0.441-0.461
			c0.059-0.061,0.114-0.124,0.167-0.19l12.642-15.757c0.782-0.975,0.827-2.348,0.11-3.372c-0.75-1.072-2.384-2.323-4.52-2.323
			c-1.701,0-3.368,0.76-4.955,2.259c-0.537,0.507-1.239,1.211-2.053,2.025c-0.828,0.829-2.116,2.119-3.106,3.044
			c-0.174-0.667-0.261-1.686-0.019-3.125l4.458-15.957c0.74-2.451-0.633-5.057-3.082-5.828c-0.455-0.143-0.928-0.216-1.404-0.216
			c-2.042,0-3.827,1.295-4.46,3.228l-1.583,4.511l-0.27-8.308C35.449,7.257,33.357,5.184,30.79,5.184L30.79,5.184z"/>
	</g>
</g>
<g id="Layer_1">
</g>
</svg>
