<?xml version="1.0" encoding="iso-8859-1"?>
<!-- Generator: Adobe Illustrator 18.1.1, SVG Export Plug-In . SVG Version: 6.00 Build 0)  -->
<!DOCTYPE svg PUBLIC "-//W3C//DTD SVG 1.1//EN" "http://www.w3.org/Graphics/SVG/1.1/DTD/svg11.dtd">
<svg version="1.1" xmlns="http://www.w3.org/2000/svg" xmlns:xlink="http://www.w3.org/1999/xlink" x="0px" y="0px"
	 viewBox="0 0 64 64" style="enable-background:new 0 0 64 64;" xml:space="preserve">
<g id="facilaties">
	<g id="XMLID_634_">
		<g id="XMLID_637_">
			<path style="fill:#231F20;" d="M15.934,20.571c-2.703,0-4.902-2.199-4.902-4.902s2.199-4.902,4.902-4.902
				s4.902,2.199,4.902,4.902S18.637,20.571,15.934,20.571z M15.934,13.766c-1.049,0-1.902,0.854-1.902,1.902
				s0.854,1.902,1.902,1.902s1.902-0.854,1.902-1.902S16.983,13.766,15.934,13.766z"/>
		</g>
		<g id="XMLID_636_">
			<path style="fill:#231F20;" d="M49.541,20.571c-2.703,0-4.902-2.199-4.902-4.902s2.199-4.902,4.902-4.902
				c2.704,0,4.903,2.199,4.903,4.902S52.245,20.571,49.541,20.571z M49.541,13.766c-1.049,0-1.902,0.854-1.902,1.902
				s0.854,1.902,1.902,1.902c1.049,0,1.903-0.854,1.903-1.902S50.59,13.766,49.541,13.766z"/>
		</g>
		<g id="XMLID_635_">
			<path style="fill:#231F20;" d="M16.926,51.151h-1.985c-2.251,0-4.083-1.832-4.083-4.083v-8.531
				c-1.779-0.44-3.103-2.051-3.103-3.964v-5.86c0-3.502,2.849-6.352,6.352-6.352h3.654c3.502,0,6.352,2.85,6.352,6.352v5.86
				c0,1.914-1.323,3.524-3.103,3.964v8.531C21.01,49.319,19.178,51.151,16.926,51.151z M14.107,25.361
				c-1.848,0-3.352,1.504-3.352,3.352v5.86c0,0.597,0.486,1.083,1.083,1.083h0.52c0.829,0,1.5,0.672,1.5,1.5v9.912
				c0,0.598,0.486,1.083,1.083,1.083h1.985c0.598,0,1.083-0.485,1.083-1.083v-9.912c0-0.828,0.671-1.5,1.5-1.5h0.52
				c0.598,0,1.083-0.486,1.083-1.083v-5.86c0-1.848-1.504-3.352-3.352-3.352H14.107z"/>
		</g>
	</g>
	<g id="XMLID_632_">
		<g id="XMLID_633_">
			<path style="fill:#231F20;" d="M50.534,51.151h-1.985c-2.251,0-4.083-1.832-4.083-4.083V41.68h-2.667
				c-0.44,0-0.859-0.193-1.144-0.529c-0.285-0.336-0.408-0.78-0.336-1.215L42.221,28.4c0.166-3.396,2.933-6.039,6.344-6.039h1.951
				c3.412,0,6.179,2.644,6.344,6.039l1.904,11.536c0.072,0.435-0.051,0.879-0.336,1.215c-0.285,0.336-0.703,0.529-1.144,0.529
				h-2.668v5.388C54.617,49.319,52.785,51.151,50.534,51.151z M43.566,38.68h2.399c0.829,0,1.5,0.672,1.5,1.5v6.888
				c0,0.598,0.486,1.083,1.083,1.083h1.985c0.598,0,1.083-0.485,1.083-1.083V40.18c0-0.828,0.671-1.5,1.5-1.5h2.4l-1.631-9.883
				c-0.011-0.064-0.017-0.13-0.019-0.195c-0.06-1.817-1.531-3.241-3.35-3.241h-1.951c-1.819,0-3.29,1.424-3.35,3.241
				c-0.002,0.065-0.008,0.131-0.019,0.195L43.566,38.68z"/>
		</g>
	</g>
	<g id="XMLID_472_">
		<path style="fill:#231F20;" d="M32.497,57.624c-0.829,0-1.5-0.672-1.5-1.5V8.794c0-0.828,0.671-1.5,1.5-1.5s1.5,0.672,1.5,1.5
			v47.33C33.997,56.952,33.325,57.624,32.497,57.624z"/>
	</g>
</g>
<g id="Layer_1">
</g>
</svg>
