<?xml version="1.0" encoding="iso-8859-1"?>
<!-- Generator: Adobe Illustrator 18.1.1, SVG Export Plug-In . SVG Version: 6.00 Build 0)  -->
<!DOCTYPE svg PUBLIC "-//W3C//DTD SVG 1.1//EN" "http://www.w3.org/Graphics/SVG/1.1/DTD/svg11.dtd">
<svg version="1.1" xmlns="http://www.w3.org/2000/svg" xmlns:xlink="http://www.w3.org/1999/xlink" x="0px" y="0px"
	 viewBox="0 0 64 64" style="enable-background:new 0 0 64 64;" xml:space="preserve">
<g id="demographic-couple">
	<path style="fill:#231F20;" d="M42.715,48.789c0.045-0.085,0.084-0.171,0.123-0.259c0.069-0.156,0.127-0.314,0.177-0.475
		c0.027-0.089,0.056-0.176,0.077-0.266c0.031-0.129,0.052-0.258,0.071-0.389l10.319-9.207c5.34-4.651,5.899-12.78,1.247-18.119
		l-3.794-4.355c-2.253-2.587-5.379-4.141-8.801-4.377c-3.423-0.236-6.731,0.876-9.317,3.128l-0.837,0.73l0.059,0.072l-0.008,0.008
		c-4.554-4.43-11.387-4.437-16.638,0.137l-4.355,3.794c-5.34,4.651-5.899,12.78-1.247,18.119l6.009,6.898l7.104,8.155
		c0.193,0.221,0.405,0.419,0.633,0.594c0.083,0.063,0.175,0.107,0.261,0.164c0.151,0.1,0.3,0.205,0.462,0.285
		c0.129,0.063,0.266,0.102,0.4,0.152c0.129,0.048,0.252,0.108,0.386,0.143c0.274,0.074,0.553,0.121,0.835,0.141
		c0.282,0.019,0.566,0.01,0.847-0.025c0.146-0.018,0.284-0.062,0.426-0.095c0.131-0.03,0.264-0.047,0.393-0.09
		c0.174-0.057,0.337-0.142,0.503-0.221c0.091-0.044,0.187-0.073,0.276-0.124c0.25-0.142,0.487-0.309,0.709-0.502
		c0.204-0.177,0.382-0.373,0.545-0.577c0.055-0.069,0.099-0.144,0.15-0.216c0.07-0.101,0.149-0.197,0.21-0.303
		c0.024,0.02,0.051,0.034,0.075,0.053c0.06,0.048,0.124,0.087,0.186,0.131c0.15,0.107,0.305,0.205,0.467,0.292
		c0.079,0.042,0.158,0.081,0.239,0.118c0.164,0.075,0.333,0.137,0.506,0.191c0.077,0.024,0.152,0.052,0.231,0.072
		c0.252,0.063,0.509,0.111,0.774,0.129c1.161,0.08,2.28-0.294,3.153-1.054c0.209-0.182,0.395-0.383,0.563-0.597
		c0.056-0.071,0.097-0.15,0.148-0.224c0.088-0.128,0.183-0.251,0.257-0.387c0.089,0.056,0.184,0.096,0.276,0.146
		c0.08,0.043,0.158,0.089,0.241,0.127c0.181,0.083,0.367,0.149,0.556,0.207c0.059,0.018,0.114,0.043,0.174,0.059
		c0.245,0.063,0.495,0.104,0.747,0.124c0.016,0.001,0.032,0.007,0.048,0.008c0.064,0.004,0.127-0.007,0.191-0.005
		c0.177,0.004,0.354,0.003,0.531-0.014c0.097-0.009,0.192-0.026,0.288-0.042c0.163-0.027,0.323-0.062,0.483-0.107
		c0.094-0.027,0.187-0.055,0.28-0.088c0.167-0.06,0.329-0.134,0.489-0.215c0.077-0.039,0.155-0.072,0.23-0.116
		c0.231-0.135,0.454-0.287,0.663-0.469c0.208-0.182,0.39-0.382,0.555-0.592c0.053-0.068,0.096-0.14,0.145-0.21
		C42.536,49.098,42.632,48.947,42.715,48.789z M48.673,17.689l3.794,4.355c1.727,1.983,2.579,4.519,2.398,7.142
		s-1.371,5.018-3.368,6.757l-5.899,5.445c0.008-0.069,0.029-0.134,0.034-0.204c0.08-1.16-0.295-2.28-1.047-3.142L34.086,25.825
		l1.155-1.006c2.13,1.943,4.821,3.106,7.74,3.307c0.064,0.004,0.128,0.009,0.192,0.012c0.828,0.045,1.534-0.589,1.58-1.416
		s-0.587-1.532-1.416-1.58c-2.675-0.107-5.127-1.34-6.89-3.363c-0.544-0.625-1.491-0.69-2.116-0.146L29.18,26.12
		c-0.56,0.488-1.413,0.428-1.899-0.13c-0.488-0.56-0.429-1.413,0.202-1.966l7.495-7.443c1.954-1.62,4.408-2.42,6.948-2.246
		C44.55,14.516,46.945,15.707,48.673,17.689z M31.7,49.248l-2.243-2.575l-7.103-8.154c-0.544-0.625-1.491-0.69-2.116-0.146
		c-0.625,0.544-0.69,1.491-0.146,2.116l7.103,8.154c0.12,0.138,0.205,0.294,0.26,0.457c0.054,0.165,0.077,0.34,0.065,0.519
		s-0.059,0.35-0.135,0.506c-0.076,0.154-0.182,0.297-0.32,0.417c-0.384,0.334-0.947,0.387-1.41,0.2
		c-0.023-0.009-0.049-0.008-0.071-0.018c-0.158-0.074-0.302-0.178-0.418-0.313l-7.104-8.155l-6.009-6.898
		c-1.727-1.983-2.579-4.519-2.398-7.142s1.371-5.018,3.354-6.746l4.355-3.794c2.045-1.782,4.478-2.74,6.85-2.699
		c2.152,0.04,4.097,0.871,5.693,2.412l-4.465,4.436c-1.807,1.573-1.996,4.324-0.422,6.133c0.788,0.902,1.868,1.401,2.979,1.478
		c1.11,0.076,2.249-0.27,3.153-1.056l0.673-0.587l0.891,1.037c0.061,0.155,0.135,0.307,0.25,0.44l9.348,10.731
		c0.234,0.268,0.349,0.614,0.324,0.976c-0.025,0.36-0.186,0.688-0.456,0.922c-0.45,0.392-1.139,0.391-1.63,0.069
		c-0.093-0.061-0.193-0.114-0.267-0.2l-0.001,0l-9.348-10.73c-0.544-0.625-1.491-0.69-2.116-0.146
		c-0.625,0.544-0.69,1.491-0.146,2.116l9.347,10.73c0,0,0.001,0,0.001,0.001l1.869,2.145c0.488,0.559,0.429,1.413-0.13,1.899
		c-0.56,0.488-1.412,0.428-1.9-0.13l-1.868-2.144c-0.001-0.001-0.001-0.002-0.002-0.003c-0.001-0.001-0.002-0.001-0.003-0.002
		L26.644,34.78c-0.544-0.625-1.491-0.69-2.116-0.146c-0.625,0.544-0.69,1.491-0.146,2.116l9.348,10.731
		c0.234,0.268,0.349,0.614,0.324,0.975c-0.025,0.361-0.186,0.689-0.456,0.923C33.063,49.846,32.168,49.786,31.7,49.248z"/>
</g>
<g id="Layer_1">
</g>
</svg>
