<svg class="${this.classNames}" viewBox="0 0 64 64"><path fill="#363e43" d="M26.346 16.253a4.373 4.373 0 1 0-4.47-4.362 4.418 4.418 0 0 0 4.47 4.362zM53.85 45.195a1.826 1.826 0 0 0-2.399-.787l-2.206 1.085-6.308-10.47a2.675 2.675 0 0 0-2.294-1.277h-9.83v-3.511h7.147a1.745 1.745 0 1 0 0-3.49h-7.146v-4.363a4.469 4.469 0 0 0-8.938 0V27a14.896 14.896 0 1 0 17.875 14.599 14.362 14.362 0 0 0-.264-2.618h.337l7.214 11.662 6.01-3.107a1.722 1.722 0 0 0 .804-2.341zM35.632 41.62a10.615 10.615 0 0 1-11.066 10.832A10.615 10.615 0 0 1 13.501 41.62a10.402 10.402 0 0 1 8.393-10.534v3.533a4.418 4.418 0 0 0 4.469 4.362h8.976a11.17 11.17 0 0 1 .296 2.639z" fill-rule="evenodd"/></svg>