<svg viewbox="0 0 64 64" xmlns="http://www.w3.org/2000/svg"><title>demographic-children</title><g data-name="Layer 2" id="Layer_2"><g data-name="Layer 1" id="Layer_1-2"><rect height="64" style="fill:none" width="64"></rect><rect height="14.74" style="fill:#c77600" width="13.16" x="39.78" y="23.39"></rect><path d="M59.52,47.21V60H33.2V47.21c0-9.08,9.08-10.66,9.08-10.66h8.29C50.44,36.55,59.52,38.13,59.52,47.21Z" style="fill:#4a8cd3"></path><path d="M38.46,21.28v6.19a7.91,7.91,0,0,0,3.95,6.82v2.39S43.2,41,46.36,41s3.95-4.34,3.95-4.34V34.29a7.91,7.91,0,0,0,3.95-6.82V21.28C54.26,14.57,38.46,16.94,38.46,21.28Z" style="fill:#ffcc80"></path><path d="M46.36,13c-5,0-11.85,3.55-11.85,22.38l5.27,2V26.15L49,20.89l3.95,3.95v12.5l5.27-3.29c0-7-.26-19.74-8.69-19.74L48.73,13Z" style="fill:#c77600"></path><path d="M30.8,44.21V60H4.48V44.21c0-9.08,9.08-10.66,9.08-10.66h8.29C21.72,33.55,30.8,35.13,30.8,44.21Z" style="fill:#43a047"></path><path d="M9.74,18.28v6.19a7.91,7.91,0,0,0,3.95,6.82v2.39S14.48,38,17.64,38s3.95-4.34,3.95-4.34V31.29a7.91,7.91,0,0,0,3.95-6.82V18.28C25.54,11.57,9.74,13.94,9.74,18.28Z" style="fill:#ffcc80"></path><path d="M17.64,10c-15.75,4.1-6.58,17.83-6.58,17.83V23.15l9.21-5.27,3.95,3.95v6s8.3-12.17-3.42-16.51L20,10Z" style="fill:#795548"></path><path d="M36.67,44.35V42.9c0-4.48-10.53-2.9-10.53,0v1.45a1.32,1.32,0,0,0,0,2.63,5.27,5.27,0,0,0,2.63,4.55v1.9a2.38,2.38,0,0,0,2.63,2.63A2.38,2.38,0,0,0,34,53.43v-1.9A5.27,5.27,0,0,0,36.67,47a1.32,1.32,0,0,0,0-2.63Z" style="fill:#ffcc80"></path><path d="M31.4,36.45c-3.95,0-6.58,3.29-6.58,7.24v2.11l1.32.53V43L34,40.4,36.67,43v3.29L38,45.79V43.69c0-2.63-.66-5.27-3.95-5.92l-.66-1.32Z" style="fill:#b56b00"></path><path d="M34,52.51a2.67,2.67,0,0,1-5.27,0s-6.58,1.18-6.58,7.5H40.62C40.62,53.69,34,52.51,34,52.51Z" style="fill:#80deea"></path></g></g></svg>