<svg width="1006.2" height="239.03" version="1.1" viewBox="0 0 1006.2 239.03" xml:space="preserve"
    xmlns="http://www.w3.org/2000/svg">
    <defs>
        <clipPath id="clipPath18">
            <path d="m0 400h800v-400h-800z"/>
        </clipPath>
    </defs>
    <g transform="matrix(1.3333 0 0 -1.3333 -29.753 419.37)">
        <g clip-path="url(#clipPath18)">
            <g transform="translate(480.26 187.47)">
                <path d="m0 0c-1.756 0-3.535 0.146-5.288 0.431-1.063 0.172-2.139 0.965-3.243 2.42l-17.386 21.93 27.731 36.734c0.735 0.969 0.842 2.258 0.275 3.327-0.564 1.071-1.703 1.748-2.949 1.748h-19.058c-1.039 0-2.02-0.473-2.646-1.278l-24.072-30.913h-1.391v61.027c0 0.987-0.474 1.924-1.286 2.529s-1.874 0.806-2.861 0.561l-18.717-4.736c-1.455-0.367-2.47-1.637-2.47-3.088v-106.82c0-1.764 1.482-3.192 3.309-3.192h18.717c1.829 0 3.308 1.428 3.308 3.192v31.52h1.252l20.413-25.363c0.829-1.092 1.806-2.269 2.902-3.5 1.13-1.273 2.375-2.476 3.699-3.575 1.43-1.191 3.023-2.179 4.732-2.932 1.861-0.821 3.854-1.238 5.928-1.238 1.229 0 2.822 0.171 4.874 0.524 2.113 0.361 4.014 0.929 5.65 1.68 1.151 0.529 1.887 1.651 1.887 2.884v12.94c0 1.762-1.482 3.19-3.31 3.19m-85.817 22.051c-1.469 1.757-3.168 3.358-5.048 4.77-1.876 1.4-3.894 2.583-5.971 3.503-3.868 1.76-7.896 3.155-11.966 4.143-3.885 0.941-7.772 1.989-11.693 3.15-1.176 0.292-2.373 0.64-3.561 1.036-1.011 0.334-1.921 0.756-2.705 1.25-0.659 0.412-1.197 0.915-1.647 1.539-0.181 0.248-0.42 0.668-0.42 1.442 0 0.591 0 1.586 2.29 2.457 2.524 0.96 5.841 1.447 9.858 1.447 3.496 0 6.297-0.499 8.321-1.489 2.125-1.038 4.082-2.484 5.816-4.302 0.592-0.619 1.409-0.978 2.269-0.99 0.924-4e-3 1.688 0.316 2.3 0.918l10.76 10.571c1.227 1.205 1.278 3.162 0.115 4.428-3.666 3.994-8.049 7.121-13.029 9.296-4.979 2.163-10.441 3.261-16.236 3.261-5.081 0-9.802-0.505-14.031-1.504-4.341-1.025-8.137-2.576-11.291-4.611-3.264-2.11-5.846-4.785-7.68-7.949-1.858-3.213-2.8-6.936-2.8-11.062 0-5.664 1.298-10.483 3.862-14.315 2.528-3.779 6.147-6.832 10.757-9.069 3.901-1.889 8.217-3.354 12.829-4.354 4.255-0.917 8.295-1.958 12.03-3.094 2.541-0.751 4.764-1.739 6.604-2.93 1.197-0.777 1.707-1.721 1.707-3.16 0-1.474 0-5.958-12.303-5.958-4.97 0-8.78 0.633-11.33 1.883-2.513 1.231-4.854 3.331-6.959 6.254-0.988 1.368-2.875 1.739-4.308 0.839l-12.816-8.046c-1.442-0.907-1.921-2.777-1.093-4.259 3.923-7.024 9.107-11.924 15.404-14.565 6.013-2.52 12.847-3.799 20.31-3.799 4.547 0 9.025 0.505 13.311 1.504 4.43 1.032 8.409 2.729 11.826 5.04 3.525 2.381 6.369 5.517 8.452 9.319 2.099 3.825 3.163 8.482 3.163 13.84 0 2.726-0.482 5.262-1.435 7.541-0.91 2.176-2.142 4.202-3.662 6.025m-135.31 11.715 11.093 31.226 11.737-31.226zm23.967 60.932c-0.462 1.221-1.597 2.03-2.863 2.03h-20.502c-1.284 0-2.432-0.832-2.882-2.082l-39.333-109.66c-0.351-0.978-0.221-2.077 0.356-2.935 0.573-0.86 1.516-1.37 2.523-1.37h18.074c1.288 0 2.439 0.832 2.885 2.086l10.344 29.154h38.278l10.933-29.207c0.46-1.226 1.596-2.033 2.865-2.033h17.805c1.698 0 3.074 1.428 3.074 3.192 0 0.58-0.15 1.124-0.411 1.595zm-106.58-121.77-16.68 21.408c4.345 1.794 6.597 6.753 5.022 11.311-1.623 4.687-6.662 7.144-11.253 5.489l-5.354-1.929-0.191 0.246c-1.147-0.563-2.293-1.043-3.439-1.551l-13.618-4.905c-9.297-2.55-18.38-3.556-26.908-3.556-22.402 0-40.991 6.906-49.66 10.782-3.968 2.255-5.39 6.05-5.893 8.482l-8.202 75.983c-0.244 0.969-0.376 1.982-0.354 3.029 3e-3 0.186 0.027 0.371 0.041 0.557l-0.074 0.837 0.155-5e-3c0.809 5.631 5.703 9.959 11.529 9.959 0.083 0 0.164-2e-3 0.248-2e-3l116.43-0.559c5.627-0.116 10.266-4.235 11.227-9.551l0.2-4e-3zm-7.838 153.57c-0.093 2e-3 -0.185 2e-3 -0.278 2e-3l-116.33 0.559c-0.146 0-0.291 2e-3 -0.437 2e-3 -13.188 0-24.721-9.083-28.208-21.659-0.856-2.343-1.234-4.87-1.079-7.416-0.036-2.079 0.155-4.175 0.566-6.252l8.733-80.92c0.631-5.826 4-10.975 9.033-13.8 1.134-0.636 28.15-15.567 63.413-15.567 9.938 0 19.599 1.178 28.909 3.501 0.705 0.067 1.411 0.192 2.11 0.445l1.299 0.466c1.77 0.5 3.53 1.029 5.272 1.615l20.428-24.932c3.362-4.856 8.778-7.61 14.404-7.61 1.647 0 3.311 0.236 4.949 0.725 7.23 2.154 12.318 8.758 12.667 16.436l3.227 126.02c0.129 2.824-0.398 5.61-1.502 8.144-3.869 11.691-14.719 19.976-27.18 20.238m-25.476-58.701c-11.995 5.07-23.357-6.952-17.578-19.213 1.12-2.379 3.027-4.326 5.36-5.469 12.014-5.9 23.795 5.696 18.83 17.936-1.238 3.048-3.623 5.48-6.612 6.746m-55.064-0.397c-12.304 6.042-24.36-6.263-18.441-18.816 1.12-2.379 3.029-4.326 5.359-5.469 12.304-6.039 24.361 6.264 18.443 18.817-1.121 2.378-3.03 4.326-5.361 5.468" fill="#fed800"/>
            </g>
            <g transform="translate(776.65 250.63)">
                <path d="m0 0c-0.407 0.839-1.132 1.465-1.999 1.722l-15.981 4.79c-1.632 0.491-3.353-0.411-3.943-2.068l-21.038-58.984-21.755 59.021c-0.604 1.639-2.316 2.522-3.94 2.031l-15.829-4.792c-0.869-0.262-1.595-0.892-1.997-1.734-0.403-0.844-0.45-1.825-0.128-2.703l25.836-70.461c1.583-4.115 4.395-6.797 8.244-7.914l-3.18-8.923c-0.677-1.794-1.162-2.436-1.321-2.619-0.297-0.107-1.21-0.348-3.34-0.348h-6.455c-1.792 0-3.247-1.509-3.247-3.371v-13.733c0-1.495 0.95-2.814 2.33-3.236 1.865-0.568 4.048-1.057 6.491-1.453 2.5-0.406 4.649-0.601 6.567-0.601 2.798 0 5.364 0.529 7.621 1.572 2.186 1.011 4.181 2.413 5.927 4.168 1.698 1.704 3.156 3.649 4.329 5.779 1.093 1.991 2.089 4.145 2.99 6.482l33.962 94.681c0.315 0.879 0.263 1.855-0.144 2.694m-93.463-60.252h-37.619c-0.178 0-0.354-0.014-0.527-0.044l-4.857-0.832 38.625 44.416c3.688 4.24 5.559 9.192 5.559 14.716v3.352c0 1.864-1.455 3.375-3.247 3.375h-67.714c-1.792 0-3.247-1.511-3.247-3.375v-14.848c0-1.864 1.455-3.373 3.247-3.373h33.783c0.173 0 0.346 0.016 0.516 0.044l3.285 0.55-38.007-43.749c-0.806-1.001-1.533-2.07-2.155-3.173-0.627-1.113-1.178-2.3-1.584-3.408-1.056-2.543-1.592-5.198-1.592-7.88v-4.629c0-1.864 1.454-3.373 3.247-3.373h68.303c1.47 0 2.757 1.024 3.137 2.504l3.985 15.483c0.258 1.015 0.051 2.093-0.563 2.925-0.615 0.832-1.567 1.319-2.575 1.319m-83.202 0h-37.619c-0.177 0-0.352-0.014-0.527-0.044l-4.856-0.832 38.623 44.416c3.69 4.24 5.559 9.192 5.559 14.716v3.352c0 1.864-1.452 3.375-3.246 3.375h-67.713c-1.793 0-3.248-1.511-3.248-3.375v-14.848c0-1.864 1.455-3.373 3.248-3.373h33.782c0.173 0 0.346 0.016 0.518 0.044l3.284 0.55-38.006-43.749c-0.808-1.001-1.535-2.07-2.158-3.173-0.627-1.113-1.177-2.3-1.584-3.408-1.054-2.543-1.591-5.198-1.591-7.88v-4.629c0-1.864 1.453-3.373 3.247-3.373h68.303c1.47 0 2.757 1.024 3.137 2.504l3.984 15.483c0.259 1.015 0.053 2.093-0.561 2.925-0.615 0.832-1.566 1.319-2.576 1.319m-87.143 99.179h-17.364c-1.794 0-3.247-1.509-3.247-3.373v-114.66c0-1.864 1.453-3.373 3.247-3.373h17.364c1.793 0 3.247 1.509 3.247 3.373v114.66c0 1.864-1.454 3.373-3.247 3.373" fill="#fff"/>
            </g>
        </g>
    </g>
</svg>
