<?xml version="1.0" encoding="utf-8"?>
<!-- Generator: Adobe Illustrator 24.3.0, SVG Export Plug-In . SVG Version: 6.00 Build 0)  -->
<svg version="1.1" id="Layer_1" xmlns="http://www.w3.org/2000/svg" xmlns:xlink="http://www.w3.org/1999/xlink" x="0px" y="0px"
	 viewBox="0 0 753.65 178.41" style="enable-background:new 0 0 753.65 178.41;" xml:space="preserve">
<style type="text/css">
	.st0{fill:#777777;}
	.st1{fill:#FFFFFF;}
	.st2{fill:#FCEE1F;}
	.st3{fill:#3C4144;}
	.st4{fill:#DA3B34;}
	.st5{fill:#7B6FB3;}
	.st6{fill:#FCEE1D;}
</style>
<g>
	<g>
		<g>
			<path class="st6" d="M68.1,59.37c-12.24-6.01-24.24,6.23-18.35,18.73c1.12,2.37,3.02,4.3,5.33,5.44
				c12.24,6.01,24.24-6.23,18.35-18.73C72.32,62.45,70.42,60.51,68.1,59.37z M122.9,58.98c-11.94-5.05-23.25,6.92-17.49,19.12
				c1.12,2.37,3.01,4.3,5.33,5.44c11.96,5.87,23.68-5.67,18.74-17.85C128.25,62.66,125.87,60.24,122.9,58.98z M148.25,0.56
				c-0.09,0-0.18,0-0.28,0L32.21,0c-0.15,0-0.29,0-0.43,0C18.65,0,7.17,9.04,3.7,21.55c-0.85,2.33-1.23,4.85-1.07,7.38
				C2.59,31,2.78,33.09,3.19,35.16l8.69,80.53c0.63,5.8,3.98,10.92,8.99,13.73c1.13,0.63,28.01,15.49,63.11,15.49
				c9.89,0,19.5-1.17,28.77-3.48c0.7-0.07,1.4-0.19,2.1-0.44l1.29-0.46c1.76-0.5,3.51-1.02,5.25-1.61l20.33,24.81
				c3.35,4.83,8.74,7.57,14.33,7.57c1.64,0,3.3-0.24,4.93-0.72c7.19-2.14,12.26-8.72,12.61-16.36l3.21-125.42
				c0.13-2.81-0.4-5.58-1.49-8.1C171.45,9.07,160.65,0.82,148.25,0.56z M156.05,153.39l-16.6-21.31c4.32-1.79,6.56-6.72,5-11.26
				c-1.61-4.66-6.63-7.11-11.2-5.46l-5.33,1.92l-0.19-0.24c-1.14,0.56-2.28,1.04-3.42,1.54l-13.55,4.88
				c-9.25,2.54-18.29,3.54-26.78,3.54c-22.29,0-40.79-6.87-49.42-10.73c-3.95-2.24-5.36-6.02-5.86-8.44l-8.16-75.62
				c-0.24-0.96-0.38-1.97-0.35-3.02c0-0.18,0.03-0.37,0.04-0.55l-0.07-0.83l0.15,0c0.81-5.6,5.68-9.91,11.47-9.91
				c0.08,0,0.16,0,0.25,0l115.87,0.56c5.6,0.12,10.22,4.22,11.17,9.51l0.2,0L156.05,153.39z M262.13,32.2
				c-0.46-1.22-1.59-2.02-2.85-2.02h-20.4c-1.28,0-2.42,0.83-2.87,2.07l-39.14,109.14c-0.35,0.97-0.22,2.07,0.35,2.92
				c0.57,0.86,1.51,1.36,2.51,1.36h17.99c1.28,0,2.43-0.83,2.87-2.08l10.3-29.01h38.09l10.88,29.07c0.46,1.22,1.59,2.02,2.85,2.02
				h17.72c1.69,0,3.06-1.42,3.06-3.18c0-0.58-0.15-1.12-0.41-1.59L262.13,32.2z M238.27,92.84l11.04-31.08l11.68,31.08H238.27z
				 M372.94,104.5c-1.46-1.75-3.15-3.34-5.02-4.75c-1.87-1.39-3.87-2.57-5.94-3.49c-3.85-1.75-7.86-3.14-11.91-4.12
				c-3.87-0.94-7.73-1.98-11.64-3.14c-1.17-0.29-2.36-0.64-3.54-1.03c-1.01-0.33-1.91-0.75-2.69-1.24
				c-0.66-0.41-1.19-0.91-1.64-1.53c-0.18-0.25-0.42-0.66-0.42-1.44c0-0.59,0-1.58,2.28-2.45c2.51-0.96,5.81-1.44,9.81-1.44
				c3.48,0,6.27,0.5,8.28,1.48c2.11,1.03,4.06,2.47,5.79,4.28c0.59,0.62,1.4,0.97,2.26,0.98c0.92,0,1.68-0.31,2.29-0.91l10.71-10.52
				c1.22-1.2,1.27-3.15,0.12-4.41c-3.65-3.97-8.01-7.09-12.97-9.25c-4.96-2.15-10.39-3.25-16.16-3.25c-5.06,0-9.75,0.5-13.96,1.5
				c-4.32,1.02-8.1,2.56-11.24,4.59c-3.25,2.1-5.82,4.76-7.64,7.91c-1.85,3.2-2.79,6.9-2.79,11.01c0,5.64,1.29,10.43,3.84,14.25
				c2.52,3.76,6.12,6.8,10.71,9.03c3.88,1.88,8.18,3.34,12.77,4.33c4.23,0.91,8.25,1.95,11.97,3.08c2.53,0.75,4.74,1.73,6.57,2.92
				c1.19,0.77,1.7,1.71,1.7,3.14c0,1.47,0,5.93-12.24,5.93c-4.95,0-8.74-0.63-11.28-1.87c-2.5-1.23-4.83-3.32-6.93-6.22
				c-0.98-1.36-2.86-1.73-4.29-0.84l-12.75,8.01c-1.44,0.9-1.91,2.76-1.09,4.24c3.9,6.99,9.06,11.87,15.33,14.5
				c5.98,2.51,12.79,3.78,20.21,3.78c4.53,0,8.98-0.5,13.25-1.5c4.41-1.03,8.37-2.72,11.77-5.02c3.51-2.37,6.34-5.49,8.41-9.27
				c2.09-3.81,3.15-8.44,3.15-13.77c0-2.71-0.48-5.24-1.43-7.5C375.67,108.33,374.45,106.32,372.94,104.5z M458.34,126.45
				c-1.75,0-3.52-0.15-5.26-0.43c-1.06-0.17-2.13-0.96-3.23-2.41l-17.3-21.82l27.6-36.56c0.73-0.96,0.84-2.25,0.27-3.31
				c-0.56-1.07-1.69-1.74-2.93-1.74h-18.97c-1.03,0-2.01,0.47-2.63,1.27l-23.96,30.76h-1.38V31.48c0-0.98-0.47-1.91-1.28-2.52
				c-0.81-0.6-1.86-0.8-2.85-0.56l-18.63,4.71c-1.45,0.36-2.46,1.63-2.46,3.07V142.5c0,1.76,1.48,3.18,3.29,3.18h18.63
				c1.82,0,3.29-1.42,3.29-3.18v-31.37h1.25l20.31,25.24c0.82,1.09,1.8,2.26,2.89,3.48c1.12,1.27,2.36,2.46,3.68,3.56
				c1.42,1.19,3.01,2.17,4.71,2.92c1.85,0.82,3.84,1.23,5.9,1.23c1.22,0,2.81-0.17,4.85-0.52c2.1-0.36,3.99-0.93,5.62-1.67
				c1.15-0.53,1.88-1.64,1.88-2.87v-12.88C461.64,127.87,460.16,126.45,458.34,126.45z"/>
		</g>
	</g>
	<g>
		<g>
			<path class="st1" d="M490.77,24.85h-17.28c-1.79,0-3.23,1.5-3.23,3.36v114.11c0,1.85,1.45,3.36,3.23,3.36h17.28
				c1.78,0,3.23-1.5,3.23-3.36V28.21C494,26.35,492.55,24.85,490.77,24.85z M577.49,123.55h-37.44c-0.18,0-0.35,0.01-0.52,0.04
				l-4.83,0.83l38.44-44.2c3.67-4.22,5.53-9.15,5.53-14.65v-3.34c0-1.85-1.45-3.36-3.23-3.36h-67.39c-1.78,0-3.23,1.5-3.23,3.36
				v14.78c0,1.85,1.45,3.36,3.23,3.36h33.62c0.17,0,0.34-0.02,0.52-0.04l3.27-0.55l-37.82,43.54c-0.8,1-1.53,2.06-2.15,3.16
				c-0.62,1.11-1.17,2.29-1.58,3.39c-1.05,2.53-1.58,5.17-1.58,7.84v4.61c0,1.85,1.45,3.36,3.23,3.36h67.98
				c1.46,0,2.74-1.02,3.12-2.49l3.96-15.41c0.26-1.01,0.05-2.08-0.56-2.91C579.44,124.04,578.49,123.55,577.49,123.55z
				 M660.29,123.55h-37.44c-0.18,0-0.35,0.01-0.52,0.04l-4.83,0.83l38.44-44.2c3.67-4.22,5.53-9.15,5.53-14.65v-3.34
				c0-1.85-1.45-3.36-3.23-3.36h-67.39c-1.78,0-3.23,1.5-3.23,3.36v14.78c0,1.85,1.45,3.36,3.23,3.36h33.62
				c0.17,0,0.34-0.02,0.51-0.04l3.27-0.55l-37.82,43.54c-0.8,1-1.53,2.06-2.15,3.16c-0.62,1.11-1.17,2.29-1.58,3.39
				c-1.05,2.53-1.58,5.17-1.58,7.84v4.61c0,1.85,1.45,3.36,3.23,3.36h67.97c1.46,0,2.74-1.02,3.12-2.49l3.97-15.41
				c0.26-1.01,0.05-2.08-0.56-2.91C662.24,124.04,661.3,123.55,660.29,123.55z M753.31,63.59c-0.4-0.84-1.13-1.46-1.99-1.71
				l-15.9-4.77c-1.62-0.49-3.34,0.41-3.92,2.06l-20.94,58.7L688.9,59.13c-0.6-1.63-2.3-2.51-3.92-2.02l-15.75,4.77
				c-0.87,0.26-1.59,0.89-1.99,1.73c-0.4,0.84-0.45,1.82-0.13,2.69l25.71,70.12c1.58,4.09,4.37,6.76,8.2,7.88l-3.17,8.88
				c-0.67,1.79-1.16,2.42-1.31,2.61c-0.3,0.11-1.2,0.35-3.32,0.35h-6.42c-1.78,0-3.23,1.5-3.23,3.35v13.67
				c0,1.49,0.94,2.8,2.32,3.22c1.86,0.57,4.03,1.05,6.46,1.45c2.49,0.4,4.63,0.6,6.54,0.6c2.78,0,5.34-0.53,7.58-1.56
				c2.18-1.01,4.16-2.4,5.9-4.15c1.69-1.7,3.14-3.63,4.31-5.75c1.09-1.98,2.08-4.12,2.98-6.45l33.8-94.23
				C753.76,65.4,753.71,64.42,753.31,63.59z"/>
		</g>
	</g>
	<g>
		<path class="st1" d="M633.29,2.31c0-1.25,1.02-2.27,2.21-2.27h14.7c4.54,0,8.12,1.31,10.39,3.52c1.65,1.7,2.55,3.8,2.55,6.36v0.11
			c0,5.17-3.18,7.83-6.3,9.2c4.71,1.42,8.52,4.14,8.52,9.59v0.11c0,6.81-5.73,10.84-14.42,10.84H635.5c-1.19,0-2.21-1.02-2.21-2.27
			V2.31z M649.47,17.75c5.39,0,9.14-2.44,9.14-7.1v-0.11c0-3.92-3.12-6.47-8.8-6.47h-12.09v13.68H649.47z M651.06,35.75
			c6.02,0,9.76-2.67,9.76-7.1v-0.11c0-4.32-3.63-6.81-10.56-6.81h-12.55v14.02H651.06z"/>
		<path class="st1" d="M686.37,40.46c-8.06,0-14.65-6.19-14.65-15.27v-0.11c0-8.46,5.96-15.27,14.08-15.27
			c8.69,0,13.63,7.1,13.63,14.87c0,1.19-0.97,2.04-2.04,2.04h-21.23c0.62,6.36,5.11,9.93,10.33,9.93c3.63,0,6.3-1.42,8.46-3.41
			c0.34-0.28,0.74-0.51,1.25-0.51c1.08,0,1.93,0.85,1.93,1.87c0,0.51-0.23,1.02-0.68,1.42C694.66,38.7,691.37,40.46,686.37,40.46z
			 M695.06,23.49c-0.45-5.34-3.52-9.99-9.37-9.99c-5.11,0-8.97,4.26-9.54,9.99H695.06z"/>
		<path class="st1" d="M708.69,32V14.29h-2.38c-1.02,0-1.93-0.91-1.93-1.93c0-1.08,0.91-1.93,1.93-1.93h2.38V3.5
			c0-1.19,0.91-2.21,2.16-2.21c1.19,0,2.21,1.02,2.21,2.21v6.93h7.61c1.08,0,1.99,0.91,1.99,1.93c0,1.08-0.91,1.93-1.99,1.93h-7.61
			v17.15c0,3.58,1.99,4.88,4.94,4.88c1.53,0,2.33-0.4,2.67-0.4c1.02,0,1.87,0.85,1.87,1.87c0,0.79-0.51,1.42-1.25,1.7
			c-1.25,0.51-2.61,0.79-4.32,0.79C712.26,40.29,708.69,37.96,708.69,32z"/>
		<path class="st1" d="M727.88,31.27v-0.11c0-6.19,5.11-9.48,12.55-9.48c3.75,0,6.42,0.51,9.03,1.25V21.9
			c0-5.28-3.24-8.01-8.74-8.01c-2.95,0-5.45,0.68-7.61,1.65c-0.28,0.11-0.57,0.17-0.79,0.17c-1.02,0-1.93-0.85-1.93-1.87
			c0-0.91,0.62-1.59,1.19-1.82c2.9-1.25,5.85-1.99,9.59-1.99c4.14,0,7.32,1.08,9.48,3.24c1.99,1.99,3.01,4.82,3.01,8.57v16.07
			c0,1.25-0.91,2.16-2.1,2.16c-1.25,0-2.1-0.91-2.1-2.04v-2.67c-2.04,2.67-5.45,5.05-10.62,5.05
			C733.38,40.41,727.88,37.28,727.88,31.27z M749.51,28.99v-2.84c-2.16-0.62-5.05-1.25-8.63-1.25c-5.51,0-8.57,2.38-8.57,6.07v0.11
			c0,3.69,3.41,5.85,7.38,5.85C745.08,36.94,749.51,33.65,749.51,28.99z"/>
	</g>
</g>
</svg>
