<svg id="Layer_1" data-name="Layer 1" xmlns="http://www.w3.org/2000/svg" xmlns:xlink="http://www.w3.org/1999/xlink" width="742" height="41" viewBox="0 0 742 41"><defs><style>.cls-1,.cls-2{fill:none;}.cls-2,.cls-3{clip-path:url(#clip-path);}.cls-4{fill:#4285f4;}.cls-5{fill:#ea4335;}.cls-6{fill:#fbbc05;}.cls-7{fill:#34a853;}.cls-8{fill:#81848a;}.cls-9{fill:#ef3829;}.cls-10{fill:#231f20;}.cls-11{fill:#5a7ebe;}.cls-12{fill:#1d2b39;}.cls-13{fill:#ec1c3b;}.cls-14{fill:#fff;}</style><clipPath id="clip-path"><rect class="cls-1" x="178" y="5" width="99" height="36"/></clipPath></defs><title>logo-four-founding-partners</title><g class="cls-3"><g class="cls-3"><path class="cls-4" d="M190.2,27.9A11.2253,11.2253,0,0,1,179,16.8,11.2253,11.2253,0,0,1,190.2,5.7a10.6081,10.6081,0,0,1,7.6,3l-2.1,2.1a7.9689,7.9689,0,1,0-5.5,13.8,7.7054,7.7054,0,0,0,5.6-2.2,6.0693,6.0693,0,0,0,1.6-3.8h-7.2v-3h10.2a10.0733,10.0733,0,0,1,.2,1.9,9.9758,9.9758,0,0,1-2.6,7.1,9.7287,9.7287,0,0,1-7.8,3.3"/><path class="cls-5" d="M216.6,20.8a7.1,7.1,0,1,1-7.1-7.1,7.0011,7.0011,0,0,1,7.1,7.1m-3.1,0a4.0275,4.0275,0,0,0-4-4.3,4.149,4.149,0,0,0-4,4.3,4.0865,4.0865,0,0,0,4,4.3,4.149,4.149,0,0,0,4-4.3"/><path class="cls-6" d="M232.3,20.8a7.1,7.1,0,1,1-7.1-7.1,6.9413,6.9413,0,0,1,7.1,7.1m-3.1,0a4.0275,4.0275,0,0,0-4-4.3,4.149,4.149,0,0,0-4,4.3,4.01,4.01,0,1,0,8,0"/><path class="cls-4" d="M247.7,14.1V26.9c0,5.3-3.1,7.4-6.8,7.4a6.7129,6.7129,0,0,1-6.3-4.2l2.7-1.1a3.9046,3.9046,0,0,0,3.6,2.5c2.3,0,3.8-1.5,3.8-4.2v-1h-.1a4.6868,4.6868,0,0,1-3.8,1.6,7.0054,7.0054,0,0,1-6.8-7.1,7.1645,7.1645,0,0,1,6.8-7.2,5.1891,5.1891,0,0,1,3.8,1.6h.1V14h3ZM245,20.8a3.9953,3.9953,0,0,0-3.8-4.3,4.0865,4.0865,0,0,0-4,4.3,4.0865,4.0865,0,0,0,4,4.3,3.9953,3.9953,0,0,0,3.8-4.3"/><rect class="cls-7" x="250.9" y="6.6" width="3.1" height="20.9"/><path class="cls-5" d="M267.4,23.2l2.4,1.6a7.0786,7.0786,0,0,1-13-3.9,6.7982,6.7982,0,0,1,6.7-7.1,6.5924,6.5924,0,0,1,6.1,4.5l.3.8L260.4,23a3.735,3.735,0,0,0,3.5,2.2,4.8643,4.8643,0,0,0,3.5-2m-7.5-2.6,6.4-2.6a2.76,2.76,0,0,0-2.6-1.5,3.7507,3.7507,0,0,0-3.8,4.1"/></g></g><rect class="cls-1" x="-9" y="-10.2" width="179" height="57.2"/><path class="cls-8" d="M28.8,26.6s-4.8,2.1-11-1.4-6,2.8-4.7,4.3c1.5,1.8,3.7,3.2,7.6,2.4C24.8,31.3,28.8,26.6,28.8,26.6Z"/><path class="cls-9" d="M77.2,19.8l-3.8-7.1h3.2l2.3,4.9,2.4-4.9h3.2l-3.9,7.1,4,7.7H81.4L78.8,22l-2.6,5.5H73Z"/><path class="cls-9" d="M10.3,10.1s4.8-2.1,11,1.4,6-2.8,4.7-4.3C24.5,5.4,22.3,4,18.4,4.8,14.4,5.5,10.3,10.1,10.3,10.1Z"/><path class="cls-9" d="M27.7,9.1s2.1,4.8-1.4,11,2.8,6,4.3,4.7c1.8-1.5,3.2-3.7,2.4-7.6C32.3,13.2,27.7,9.1,27.7,9.1Z"/><path class="cls-10" d="M38.7,7.8h3.1V27.4H38.7Z"/><path class="cls-10" d="M43.8,12.6h2.8v1.7h.1a4.173,4.173,0,0,1,3.8-2.1c2.3,0,3.7,1,3.7,4V27.4h-3V17.3c0-1.9-.6-2.7-2.1-2.7-1.2,0-2.4,1-2.4,2.9v9.9h-3V12.6Z"/><path class="cls-10" d="M56.9,14.8H54.8V12.6h2.1V11.2c0-2.8,1.3-3.7,3.8-3.7a7.5886,7.5886,0,0,1,1.6.1V9.9h-.8c-1.1,0-1.6.4-1.6,1.4v1.3h2.4v2.2H59.9V27.4h-3Z"/><path class="cls-10" d="M67.7,12.2c4.3,0,5.5,3.2,5.5,7.8s-1.4,7.8-5.5,7.8-5.5-3.2-5.5-7.8C62.1,15.4,63.4,12.2,67.7,12.2Zm0,13.4c2.2,0,2.6-1.8,2.6-5.6,0-3.3-.4-5.6-2.6-5.6-2.1,0-2.5,2.3-2.5,5.6C65.1,23.8,65.5,25.6,67.7,25.6Z"/><path class="cls-10" d="M95.2,22c-.2,3.5-1.4,5.8-5.1,5.8-4.3,0-5.5-3.2-5.5-7.8s1.2-7.8,5.5-7.8c4.4-.1,5.1,3.5,5.1,5.3h-3c0-1.4-.4-3.2-2.1-3.1-2.1,0-2.5,2.3-2.5,5.6s.4,5.6,2.5,5.6c1.7,0,2.3-1.3,2.3-3.6Z"/><path class="cls-10" d="M96.3,7.8h3v6.4l.1.1a4.106,4.106,0,0,1,3.6-2c2.3,0,3.7,1,3.7,4V27.5h-3V17.3c0-1.9-.6-2.7-2.1-2.7-1.2,0-2.4,1-2.4,2.9v9.9h-3V7.8Z"/><path class="cls-10" d="M118.3,24.3c0,.6.3,1,.8,1a.7494.7494,0,0,0,.5-.1v1.9a3.3128,3.3128,0,0,1-1.5.4c-1.3,0-2.4-.5-2.5-2h-.1a3.859,3.859,0,0,1-3.7,2.2c-2.4,0-3.9-1.3-3.9-4.2,0-3.3,1.4-4,3.4-4.6l2.3-.6c1.1-.3,1.7-.6,1.7-1.9s-.5-2.2-2-2.2c-2,0-2.3,1.4-2.3,2.8h-2.8c0-3.1,1.3-4.9,5.2-4.9,2.6,0,4.7,1,4.7,3.6v8.6Zm-2.8-4.7a19.2345,19.2345,0,0,1-3.3,1.4,2.3494,2.3494,0,0,0-1.2,2.4c0,1.2.6,2.2,1.8,2.2,1.8,0,2.7-1.3,2.7-3.5Z"/><path class="cls-10" d="M120.4,12.6h2.8v1.7h.1a4.1731,4.1731,0,0,1,3.8-2.1c2.3,0,3.7,1,3.7,4V27.4h-3V17.3c0-1.9-.6-2.7-2.1-2.7-1.2,0-2.4,1-2.4,2.9v9.9h-3V12.6Z"/><path class="cls-10" d="M135.6,28.7a1.94,1.94,0,0,0,2.1,1.8,2.5044,2.5044,0,0,0,2.5-2.8V25.3h-.1a3.5836,3.5836,0,0,1-3.4,2c-3.5,0-4.4-3.4-4.4-7.5,0-3.2.5-7.6,4.7-7.6a3.16,3.16,0,0,1,3.2,2.2h.1V12.6h2.8V26.7c0,3.6-1.5,5.8-5.5,5.8-4.4,0-4.9-2.6-4.9-3.8Zm2.1-3.7c2.3,0,2.6-2.9,2.6-5.3s-.3-5.1-2.4-5.1-2.5,2.2-2.5,5C135.4,22.1,135.5,25,137.7,25Z"/><path class="cls-10" d="M147.5,20.4v.9c0,2,.2,4.5,2.5,4.5,2.1,0,2.4-2.4,2.4-3.3h2.8c0,3.3-2,5.3-5.2,5.3-2.4,0-5.4-.7-5.4-7.6,0-3.9.8-8,5.5-8,4.1,0,5.2,2.5,5.2,6.6v1.6Zm4.7-2v-.8c0-1.9-.6-3.3-2.3-3.3-1.9,0-2.5,1.9-2.5,3.8v.3Z"/><path class="cls-10" d="M11.3,27.3s-2.1-4.8,1.4-11-2.8-6-4.3-4.7C6.6,13.1,5.2,15.3,6,19.2,6.7,23.2,11.3,27.3,11.3,27.3Z"/><path d="M584.8,25c-.4,0-.6-.6-.1-1.1a14.6517,14.6517,0,0,1,2.1-1.4c.9,0-.8,2.5-2,2.5m47.5-5.1a2.2681,2.2681,0,0,0-1.8-.5s.1.2-.5.8l-.2.2a24.1722,24.1722,0,0,1-10.1,4.7c1.2-.7,4.1-3.6,2.1-5.1-1.2-.9-3.2-.5-5.2.5a2.5415,2.5415,0,0,0,.5-2.1c-.2-.9-2-1.2-3-.8a2.51,2.51,0,0,1-.4,1.7c-4.3,3.8-10,6.1-10.5,5.6-.4-.4.9-2.1,1.3-2.7a1.3567,1.3567,0,0,0,.1-1.6c-.4-.7-1.1-.8-2.5-.5-1.9.3-3.2-.5-4.3-2.2-.5-.8-1.9-.7-2.6-.2a3.65,3.65,0,0,1,0,1.8c-1.1,2.7-4.6,2.7-5.9,1.8-.2-.6-.7-1.6-1.7-1.7a4.2,4.2,0,0,0-4.6,2c-1.1,1.2-8.4,4.3-10.1,2.9-1.3-1-.2-4.6,2.2-8.3,3.6-5.6,5.2-5.6,5.8-5,.4.4.7,1.1,0,2.5-.1.1-.1.2-.2.3-1.2,2-1.7,1.9-1.7,1.9a1.8406,1.8406,0,0,0,.5,2.2,1.1311,1.1311,0,0,0,1.2.2A2.3673,2.3673,0,0,0,582,17c1.7-2.7,2.8-6.9,0-8.5-2-1.1-5.4.4-9.2,6.5-3.3,5.4-4.3,9.5-1.9,11.6,2.9,2.5,9.1-.6,11.1-1.6-.1.4.1,2.6,2.1,2.5,2.6-.2,4.2-2.5,4.9-3.7a6.6568,6.6568,0,0,0,8.1-2.8,7.524,7.524,0,0,0,4.2,1.5c-.8,1.4-1.8,3.4-.3,4.5,2,1.6,9.1-2.5,11.1-3.7-1.2,2.1-3.2,6.9-5.2,11.1-.8,1.7-2,4.1-.8,4.7a1.8,1.8,0,0,0,2.6-1.3,60.5735,60.5735,0,0,1,3-8.7c2.1-4.8,4.1-7.2,7.3-7.2a5.3305,5.3305,0,0,1-1.4,2c-1.2,1.2-2.5,1.1-2.4,2.4,0,.7.8,1,1,1,1.7.5,6.4-.9,8.2-1.6a44.759,44.759,0,0,0,7.3-3.6c1.3-.5,1.4-1.5.6-2.2"/><path d="M559.1,14.9c-1.8.1-4,.7-4.8,2.5-.7,1.5-.1,3.1,1.3,4.9a26.3819,26.3819,0,0,0,2,2.4,11.2949,11.2949,0,0,1-3.5-.2h0c-.3-.1-.6-.1-1-.2a2.1317,2.1317,0,0,1-1-.6l-.1.1h0l.1-.1a2.3791,2.3791,0,0,0-1.3.9,1.9552,1.9552,0,0,0-.4,1.6c.2.3.7.5,1.6.5,2,.1,5.7.6,6.5.7a2.067,2.067,0,0,0,2-1.3,1.65,1.65,0,0,0-.4-1.8c-1.8-2-4.3-4.3-3.4-6.2.4-.9,2.4-.7,3.1-.5,1.4.4,2.1-.1,2.4-1,.2-.5-.1-1.9-3.1-1.7"/><path d="M522.6,17.3c.3.3-.3.8-.8,1.1a27.017,27.017,0,0,1-3.5,1.7c1-2.1,3.9-3.3,4.3-2.8M552.7,22a1.1922,1.1922,0,0,0,.4-1.9,1.8563,1.8563,0,0,0-2.2-.3,3.9683,3.9683,0,0,1-2.3.6c-1.4.1-1.9-.5-2.8-.5-1,0-1.3.7-2.5,2.2-.6.8-2,2.6-2.6,2.6-.5,0-.7-1.5-.7-3.5,0-.9-.4-1.6-1.4-1.6-.9.1-1,1.2-1.4,1.7-1.3,1.6-2.4,3.1-2.9,3.1-.7,0-.9-1.5-.9-2.6,0,0,.2-1.8-1.4-2.1a2.516,2.516,0,0,0-1.4.3.6013.6013,0,0,1,.1.4c-.2.7-1.6,1.8-1.6,1.8-1.5,1.1-4.5,3.1-7.2,3.3-3.2.2-3.7-1.7-3.8-2.4a19.2681,19.2681,0,0,0,5.7-3.1c1.2-1,2.1-2,2-3.1a2.1941,2.1941,0,0,0-2.4-1.9c-2.2,0-5.8.9-7.6,5.8a4.8542,4.8542,0,0,1-1.7,0c-.6-.2-.6-.4-.6-.4a1.4094,1.4094,0,0,0-1.1,1,1.5174,1.5174,0,0,0,.8,1.9,4.1122,4.1122,0,0,0,2.4.3c.2,1.5,1.1,4.3,6.3,4.1,4.1-.2,8.9-3.6,9.3-3.9.2.8.8,3.9,2.5,3.9,2.1,0,4.2-3.2,4.2-3.2s.5,3.2,2.7,3.2c1.8,0,4-2.8,4.5-3.5.5-.5,1.3-1.6,1.8-1.6.5-.1,1.4.7,4.1.2-.1-.2,1.1-.4,1.7-.8"/><path d="M519.2,6.6a1.1647,1.1647,0,0,0-.3-1.3,1.9114,1.9114,0,0,0-2.7.4,21.47,21.47,0,0,0-2.3,3.6,142.0381,142.0381,0,0,0-7.3,13.8,25.9359,25.9359,0,0,1-1.2-6c-.1-2.5-.3-4.9-.4-6a1.5256,1.5256,0,0,0-1-1.5,3.3169,3.3169,0,0,0-2.2,0,8.5805,8.5805,0,0,1-.4,2.1c-.3.9-2.5,5.1-2.8,5.7-1.9,3.3-4.3,7.4-4.4,7.7-.5.9-1.2,2.2,0,2.6s2.2.2,2.7-.6a1.4253,1.4253,0,0,0,.2-.4s-.3-.3.4-2c.2-.5.5-1,.8-1.6.1-.1.1-.2.2-.3.1-.2.2-.3.2-.4,1.2-2.4,2.8-5.5,4.3-8.2a40.7009,40.7009,0,0,0,.3,5c.3,2.8,1,3.9,1.3,6.2,0,1.5.1,1.8,1.2,2.1a1.4471,1.4471,0,0,0,2-.9c1.5-3.7,5.7-12.3,9.3-16.9.3-.6,1.7-2,2.1-3.1"/><path class="cls-11" d="M644.9,21l3.9-10,4.1,10ZM648,9.4l-7.3,17.8h1.7l1.9-5h9l2,5h1.9L649.6,9.4Z"/><path class="cls-11" d="M669.4,14.8h-1.5v6.5c0,2.5-.9,4.8-3.7,4.8-2.6,0-3.2-2-3.2-4.3v-7h-1.5v7.6c0,3.1,1.1,5,4.4,5a4.3208,4.3208,0,0,0,4-2.1v2h1.5c-.1-1.2-.1-2.5-.1-3.7l.1-8.8Z"/><path class="cls-11" d="M674.4,17.8c0-1.5,1.6-2.1,2.9-2.1,1.7,0,2.6.7,2.7,2.4h1.5c-.1-2.6-1.9-3.6-4.3-3.6-2.1,0-4.3,1-4.3,3.4,0,4.4,7.4,2.6,7.4,6,0,1.7-1.7,2.4-3.2,2.4-1.8,0-3.1-.9-3.1-2.8h-1.5c0,2.7,1.9,3.9,4.5,3.9,2.4,0,4.7-1.1,4.7-3.8.1-4.3-7.3-2.5-7.3-5.8"/><path class="cls-11" d="M687.3,24V15.9h2.8V14.8h-2.8V11.6l-1.5.7v2.6h-2.5V16h2.5v8.8c0,1.8.8,2.7,2.6,2.7.6,0,1.2-.1,1.7-.1V26c-.4,0-.7.1-1.1.1-1.5,0-1.7-.7-1.7-2.1"/><path class="cls-11" d="M694.9,16.8l-.1-1.9h-1.5c-.1,1.2.1,2.4.1,3.6v8.8h1.5v-7c0-2.5.8-4,3.5-4,.3,0,.7.1,1,.1V14.9c-.2,0-.5-.1-.7-.1a3.772,3.772,0,0,0-3.8,2"/><path class="cls-11" d="M704.8,26.4c-1.6,0-3.1-.9-3.1-2.6,0-2.9,3.5-3,5.6-3a4.8687,4.8687,0,0,1,1.2.1c0,2.7-.2,5.5-3.7,5.5M710,19c0-3.1-1.4-4.4-4.5-4.4-2.2,0-4.3.9-4.4,3.4h1.5c.2-1.8,1.3-2.3,2.9-2.3,2.2,0,3,1.1,3,3.2v.9h-.6c-3.1,0-7.7.1-7.7,4.1,0,2.5,2.1,3.6,4.3,3.6a4.54,4.54,0,0,0,4.2-2.1c.1.6.1,1.2.2,1.8h1.4a36.1758,36.1758,0,0,1-.2-4.6L710,19Z"/><rect class="cls-11" x="713.9" y="9.4" width="1.5" height="17.8"/><rect class="cls-11" x="719.4" y="9.4" width="1.8" height="1.9"/><rect class="cls-11" x="719.5" y="14.8" width="1.5" height="12.4"/><path class="cls-11" d="M729,26.4c-1.6,0-3.1-.9-3.1-2.6,0-2.9,3.5-3,5.6-3a4.8687,4.8687,0,0,1,1.2.1c0,2.7-.2,5.5-3.7,5.5m5.2-3.8V19c0-3.1-1.4-4.4-4.5-4.4-2.2,0-4.3.9-4.4,3.4h1.5c.2-1.8,1.3-2.3,2.9-2.3,2.2,0,3,1.1,3,3.2v.9H732c-3.1,0-7.7.1-7.7,4.1,0,2.5,2.1,3.6,4.3,3.6a4.54,4.54,0,0,0,4.2-2.1c.1.6.1,1.2.2,1.8h1.4c-.1-1.5-.2-3-.2-4.6"/><path class="cls-12" d="M335.7561,16.2993a5.3565,5.3565,0,0,0-2.5867.667v7.5161a.3821.3821,0,0,1-.3742.39h-1.7245a.3821.3821,0,0,1-.3742-.39V14.7049a.3784.3784,0,0,1,.3742-.3742h1.6269a.3682.3682,0,0,1,.3742.3742v.39a4.2988,4.2988,0,0,1,2.6843-.8948.3784.3784,0,0,1,.3742.3742v1.35a.3784.3784,0,0,1-.3742.3742m9.3707,4.181h-6.1007v.0488a2.1107,2.1107,0,0,0,2.2451,2.3752c1.3666,0,2.6518-.1139,3.4327-.179h.0651c.1952,0,.3416.0976.3416.2766v1.22c0,.2928-.0488.4393-.39.4881a16.3511,16.3511,0,0,1-3.6279.3254,4.3037,4.3037,0,0,1-4.5227-4.7016V18.9511c0-2.9284,1.6269-4.75,4.49-4.75,2.88,0,4.4576,1.9685,4.4576,4.75v1.0412c0,.3091-.1139.4881-.39.4881m-2.0987-1.8384c0-1.4642-.8134-2.2939-1.9685-2.2939a2.0125,2.0125,0,0,0-2.001,2.2939v.0813h3.97V18.642Zm11.0627,6.2309h-1.5943a.3784.3784,0,0,1-.3742-.3742v-.2928a5.1152,5.1152,0,0,1-2.6355.83c-1.5455,0-3.2375-.6019-3.2375-3.1236v-.0813c0-2.1312,1.3015-3.2375,4.5552-3.2375h1.1713V17.78c0-1.22-.5369-1.513-1.6431-1.513a27.7068,27.7068,0,0,0-3.0422.1464h-.0813c-.1952,0-.3416-.0651-.3416-.3254V14.8839c0-.2115.1139-.3254.3579-.39a16.1757,16.1757,0,0,1,3.1236-.3091c2.6518,0,4.116,1.1713,4.116,3.5791v6.7352a.3784.3784,0,0,1-.3742.3742m-2.0987-4.62h-1.1713c-1.7082,0-2.0824.5369-2.0824,1.5943v.0813c0,.9273.4067,1.1551,1.35,1.1551a4.1554,4.1554,0,0,0,1.9034-.5206Zm5.8893,4.62h-1.7407a.3821.3821,0,0,1-.3742-.39V11.0282a.3682.3682,0,0,1,.3742-.3742h1.7407a.3549.3549,0,0,1,.3579.3742V24.4824a.38.38,0,0,1-.3579.39m10.054-4.3925h-6.1007v.0488a2.1025,2.1025,0,0,0,2.2451,2.3752c1.3666,0,2.6518-.1139,3.4327-.179h.0651c.179,0,.3416.0976.3416.2766v1.22c0,.2928-.0488.4393-.39.4881a16.4494,16.4494,0,0,1-3.6279.3254,4.3037,4.3037,0,0,1-4.5227-4.7016V18.9511c0-2.9284,1.6269-4.75,4.4739-4.75,2.88,0,4.4576,1.9685,4.4576,4.75v1.0412c0,.3091-.1139.4881-.3742.4881m-2.1149-1.8384c0-1.4642-.7972-2.2939-1.9685-2.2939a2.0125,2.0125,0,0,0-2.001,2.2939v.0813h3.9533V18.642Zm7.1582,6.3936a15.7134,15.7134,0,0,1-3.3513-.3742.4353.4353,0,0,1-.3579-.4393V23.1a.306.306,0,0,1,.3091-.2928h.0813c.8948.0976,2.5867.1952,3.14.1952,1.1713,0,1.334-.39,1.334-.8948,0-.3579-.2278-.5694-.8134-.96l-2.57-1.5618a3.0927,3.0927,0,0,1-1.5781-2.5867c0-1.8709,1.1876-2.7982,3.5628-2.7982a13.6718,13.6718,0,0,1,3.3351.3742.4176.4176,0,0,1,.3254.423v1.0737c0,.2278-.1139.3579-.2928.3579h-.0813a26.1447,26.1447,0,0,0-3.091-.2278c-.8948,0-1.2852.2115-1.2852.7809,0,.3091.2766.4881.7484.7646l2.4566,1.4967a3.0168,3.0168,0,0,1,1.79,2.847c0,1.6431-1.2039,2.9446-3.66,2.9446m10.3957-.13a7,7,0,0,1-1.269.13c-2.1149,0-2.9772-.4718-2.9772-2.9772v-5.873l-1.757-.26a.39.39,0,0,1-.3742-.3742v-.83a.3682.3682,0,0,1,.3742-.3742h1.757V11.8742a.39.39,0,0,1,.3742-.3742l1.7407-.2928h.0813a.269.269,0,0,1,.2928.2766V14.347h1.6757a.3682.3682,0,0,1,.3742.3742v1.1063a.3784.3784,0,0,1-.3742.3742h-1.6919v5.873c0,.9273.0488,1.0412.7321,1.0412h.9924c.244,0,.39.0976.39.2766v1.1713c.0163.1952-.0976.2928-.3416.3416m8.8013-.0325h-1.5943a.3682.3682,0,0,1-.3742-.3742v-.2928a5.1152,5.1152,0,0,1-2.6355.83c-1.5455,0-3.2375-.6019-3.2375-3.1236v-.0813c0-2.1312,1.3015-3.2375,4.5552-3.2375h1.1876V17.78c0-1.22-.5369-1.513-1.6431-1.513a27.938,27.938,0,0,0-3.0422.1464h-.0976c-.1952,0-.3416-.0651-.3416-.3254V14.8839c0-.2115.1139-.3254.3579-.39a16.3216,16.3216,0,0,1,3.1236-.3091c2.6518,0,4.116,1.1713,4.116,3.5791v6.7352a.3682.3682,0,0,1-.3742.3742m-2.0824-4.62h-1.1876c-1.7082,0-2.0661.5369-2.0661,1.5943v.0813c0,.9273.4067,1.1551,1.35,1.1551a4.1554,4.1554,0,0,0,1.9034-.5206Zm9.1267,4.6528a7.1487,7.1487,0,0,1-1.269.13c-2.1149,0-2.9772-.4718-2.9772-2.9772v-5.873l-1.757-.26a.39.39,0,0,1-.3742-.3742v-.83a.3682.3682,0,0,1,.3742-.3742h1.757V11.8742a.4023.4023,0,0,1,.3742-.3742l1.7407-.2928h.0813a.269.269,0,0,1,.2928.2766V14.347h1.6757a.3682.3682,0,0,1,.3742.3742v1.1063a.3682.3682,0,0,1-.3742.3742H397.463v5.873c0,.9273.0651,1.0412.7321,1.0412h.9924c.244,0,.4067.0976.4067.2766v1.1713c-.0163.1952-.13.2928-.3742.3416m9.566-4.4251h-6.0845v.0488a2.1107,2.1107,0,0,0,2.2451,2.3752c1.3666,0,2.6518-.1139,3.449-.179h.0651c.179,0,.3416.0976.3416.2766v1.22c0,.2928-.0488.4393-.39.4881a16.4494,16.4494,0,0,1-3.6279.3254,4.3037,4.3037,0,0,1-4.5227-4.7016V18.9511c0-2.9284,1.6269-4.75,4.49-4.75,2.88,0,4.4413,1.9685,4.4413,4.75v1.0412c-.0163.3091-.13.4881-.4067.4881m-2.0987-1.8384c0-1.4642-.8134-2.2939-1.9522-2.2939a2.0125,2.0125,0,0,0-2.001,2.2939v.0813h3.9533V18.642Zm5.2548,6.2309h-1.6594a.3682.3682,0,0,1-.3742-.3742V22.3837a.3549.3549,0,0,1,.3742-.3579h1.6594a.3549.3549,0,0,1,.3742.3579v2.1149a.3784.3784,0,0,1-.3742.3742m7.6951-.0813a10.1792,10.1792,0,0,1-2.4078.244c-2.424,0-4.2624-1.4967-4.2624-4.539V18.7558c0-3.0422,1.8221-4.539,4.2624-4.539a10.0673,10.0673,0,0,1,2.4078.244c.3254.0813.39.1952.39.4881v1.22c0,.179-.1464.2766-.3416.2766h-.0488a15.4587,15.4587,0,0,0-2.4078-.13c-.8785,0-1.79.5043-1.79,2.4566v1.7245c0,1.936.911,2.44,1.79,2.44a15.4587,15.4587,0,0,0,2.4078-.13h.0488c.1952,0,.3416.0813.3416.2766v1.22c0,.2928-.0651.4067-.39.4881m5.7591.244c-2.9284,0-4.4739-1.9848-4.4739-4.6528V18.87c0-2.6681,1.5293-4.6528,4.4739-4.6528,2.9284,0,4.4576,1.9848,4.4576,4.6528v1.513c0,2.6681-1.5293,4.6528-4.4576,4.6528m2.0011-6.1658c0-1.5293-.7-2.5216-2.001-2.5216-1.3178,0-2.001.9924-2.001,2.5216v1.513c0,1.5293.6833,2.5216,2.001,2.5216,1.3015,0,2.001-.9924,2.001-2.5216Zm16.5777,6.0031h-1.7245a.3821.3821,0,0,1-.3742-.39v-6.361c0-1.4479-.2928-1.8221-1.35-1.8221a4.2768,4.2768,0,0,0-1.7407.4555,11.5864,11.5864,0,0,1,.0813,1.35v6.361a.3821.3821,0,0,1-.3742.39h-1.7245a.3821.3821,0,0,1-.3742-.39v-6.361c0-1.4479-.244-1.8221-1.2852-1.8221a4.2367,4.2367,0,0,0-1.7245.6182V24.45a.3821.3821,0,0,1-.3742.39h-1.7245a.3821.3821,0,0,1-.3742-.39V14.6724a.3682.3682,0,0,1,.3742-.3742h1.6269a.3682.3682,0,0,1,.3742.3742v.39a4.682,4.682,0,0,1,2.6681-.8948,2.6816,2.6816,0,0,1,2.1963.846,5.8207,5.8207,0,0,1,3.0748-.846c2.5379,0,3.1073,1.7407,3.1073,3.937v6.361a.3645.3645,0,0,1-.3579.4067m3.4815,0h-1.6594a.3682.3682,0,0,1-.3742-.3742V22.3837a.3549.3549,0,0,1,.3742-.3579h1.6594a.3549.3549,0,0,1,.3742.3579v2.1149a.3784.3784,0,0,1-.3742.3742m9.0942,0h-1.5943a.3682.3682,0,0,1-.3742-.3742v-.2928a5.1152,5.1152,0,0,1-2.6355.83c-1.5455,0-3.2375-.6019-3.2375-3.1236v-.0813c0-2.1312,1.3015-3.2375,4.5552-3.2375h1.1713V17.78c0-1.22-.5369-1.513-1.6431-1.513a28.28,28.28,0,0,0-3.0585.1464h-.0813c-.1952,0-.3416-.0651-.3416-.3254V14.8839c0-.2115.1139-.3254.3579-.39a16.3216,16.3216,0,0,1,3.1236-.3091c2.6518,0,4.116,1.1713,4.116,3.5791v6.7352a.3549.3549,0,0,1-.3579.3742m-2.0986-4.62h-1.1713c-1.7082,0-2.0824.5369-2.0824,1.5943v.0813c0,.9273.4067,1.1551,1.334,1.1551a4.2222,4.2222,0,0,0,1.92-.5206Zm11.9574,4.62h-1.7245a.3784.3784,0,0,1-.3742-.3742v-.423a4.8284,4.8284,0,0,1-2.9284.9273,3.2364,3.2364,0,0,1-2.31-.7809,4.7551,4.7551,0,0,1-.9273-3.4V14.7212a.3821.3821,0,0,1,.3742-.39h1.7245a.3927.3927,0,0,1,.3742.39V20.822c0,.9273.0651,1.4642.423,1.79a1.6254,1.6254,0,0,0,1.1713.3416,5.2236,5.2236,0,0,0,2.1149-.7484V14.7212a.3821.3821,0,0,1,.3742-.39h1.7245a.3927.3927,0,0,1,.3742.39v9.7775a.3927.3927,0,0,1-.39.3742"/><path class="cls-13" d="M295.8,19.52A15.0325,15.0325,0,1,0,310.9138,4.57h-.0813A15.0425,15.0425,0,0,0,295.8,19.52"/><path class="cls-14" d="M320.6913,17.552h0L311.76,8.653a1.2629,1.2629,0,0,0-.9273-.4067h0a1.2908,1.2908,0,0,0-.9273.4067l-8.9315,8.899h0a1.9327,1.9327,0,0,0,1.3666,3.2863h1.22V27.606a1.2673,1.2673,0,0,0,1.2527,1.269h12.0225a1.2568,1.2568,0,0,0,1.2527-1.269V20.8382h1.2364a1.9268,1.9268,0,0,0,1.92-1.936,1.8267,1.8267,0,0,0-.5531-1.35m-4.9457.96V26.516h-9.81V18.5118h-2.5867l7.4836-7.451,7.4836,7.451Z"/></svg>