<?xml version="1.0" encoding="utf-8"?>
<!-- Generator: Adobe Illustrator 24.0.2, SVG Export Plug-In . SVG Version: 6.00 Build 0)  -->
<svg version="1.1" id="Layer_1" xmlns="http://www.w3.org/2000/svg" xmlns:xlink="http://www.w3.org/1999/xlink" x="0px" y="0px"
	 viewBox="0 0 944.2 166.5" style="enable-background:new 0 0 944.2 166.5;" xml:space="preserve">
<style type="text/css">
	.st0{fill:none;}
	.st1{fill:#81848A;}
	.st2{fill:#EF3829;}
	.st3{fill:#231F20;}
	.st4{enable-background:new    ;}
</style>
<title>Ask_Izzy_powered-by-Infoxchange_CMYK</title>
<rect x="423.5" class="st0" width="520.7" height="166.5"/>
<path class="st1" d="M533.7,107.3c0,0-13.8,6.2-31.9-4.1s-17.3,8-13.7,12.5c4.2,5.3,10.7,9.2,22.2,7.1S533.7,107.3,533.7,107.3z"/>
<path class="st2" d="M674.3,87.2l-11.1-20.7h9.4l6.7,14.2l7-14.2h9.3l-11.2,20.7l11.7,22.3h-9.4l-7.5-15.9l-7.5,15.9h-9.2
	L674.3,87.2z"/>
<path class="st2" d="M479.8,59.2c0,0,13.8-6.2,31.9,4.1s17.3-8,13.7-12.6c-4.2-5.3-10.7-9.2-22.2-7.1S479.8,59.2,479.8,59.2z"/>
<path class="st2" d="M530.3,56.3c0,0,6.2,13.8-4.1,31.9s8,17.3,12.6,13.7c5.3-4.2,9.2-10.6,7.1-22.2S530.3,56.3,530.3,56.3z"/>
<path class="st3" d="M562.3,52.4h9.1v57.1h-9.1V52.4z"/>
<path class="st3" d="M577.2,66.5h8.2v5h0.2c2.3-3.9,6.5-6.3,11-6.2c6.6,0,10.7,3,10.7,11.7v32.5h-8.6V80c0-5.6-1.7-7.8-6-7.8
	c-3.5,0-6.9,2.8-6.9,8.4v28.9h-8.6L577.2,66.5z"/>
<path class="st3" d="M615.5,72.9h-6v-6.4h6v-4c0-8.2,3.9-10.7,11-10.7c1.6,0,3.2,0.1,4.7,0.2v6.6h-2.4c-3.2,0-4.6,1.2-4.6,4.1v3.8h7
	v6.4h-7v36.6h-8.6L615.5,72.9z"/>
<path class="st3" d="M646.6,65.4c12.6,0,16.1,9.3,16.1,22.6s-4.1,22.6-16.1,22.6s-16-9.3-16-22.6S634.1,65.4,646.6,65.4z
	 M646.6,104.3c6.3,0,7.4-5.3,7.4-16.2c0-9.5-1.1-16.2-7.4-16.2s-7.4,6.7-7.4,16.2C639.2,99,640.3,104.3,646.6,104.3z"/>
<path class="st3" d="M726.8,93.9c-0.6,10.3-4.1,16.8-14.7,16.8c-12.5,0-16-9.3-16-22.6s3.5-22.6,16-22.6
	c12.9-0.2,14.8,10.1,14.8,15.4h-8.6c0-4-1.1-9.2-6.2-9c-6.2,0-7.4,6.7-7.4,16.2s1.1,16.2,7.4,16.2c4.8,0.1,6.6-3.9,6.6-10.4
	L726.8,93.9z"/>
<path class="st3" d="M730,52.4h8.6v18.7l0.2,0.2c2.3-3.7,6.3-5.9,10.6-5.9c6.6,0,10.7,3,10.7,11.7v32.5h-8.6V80c0-5.6-1.7-7.8-6-7.8
	c-3.5,0-6.9,2.8-6.9,8.4v28.9H730V52.4z"/>
<path class="st3" d="M794,100.5c0,1.6,1,3,2.2,3c0.5,0,1-0.1,1.4-0.2v5.6c-1.3,0.6-2.8,1-4.2,1c-3.8,0-7-1.5-7.3-5.7H786
	c-2,4.1-6.2,6.6-10.7,6.3c-6.9,0-11.2-3.8-11.2-12.1c0-9.6,4.2-11.6,10-13.5l6.7-1.8c3.1-0.9,5-1.8,5-5.5c0-3.9-1.4-6.4-5.9-6.4
	c-5.8,0-6.6,4.1-6.6,8.2h-8.2c0-9.1,3.8-14.2,15.1-14.2c7.6,0,13.7,3,13.7,10.6L794,100.5z M785.8,86.8c-2.2,1.8-7,2.8-9.6,4
	s-3.5,3.8-3.5,7c0,3.6,1.8,6.5,5.4,6.5c5.2,0,7.8-3.9,7.8-10.2V86.8z"/>
<path class="st3" d="M800,66.5h8.2v5h0.2c2.3-3.9,6.5-6.3,11-6.2c6.6,0,10.7,3,10.7,11.7v32.5h-8.6V80c0-5.6-1.7-7.8-6-7.8
	c-3.5,0-6.9,2.8-6.9,8.4v28.9H800V66.5z"/>
<path class="st3" d="M844.3,113.2c0,2.6,2.4,5.1,6.2,5.1c4.5,0,7.3-3.1,7.3-8.1v-7h-0.2c-1.6,3.8-5.6,5.9-9.8,5.9
	c-10.1,0-12.9-9.9-12.9-21.6c0-9.4,1.4-22.2,13.7-22.2c5,0,8.6,3.3,9.4,6.4h0.2v-5.2h8.2v41c0,10.5-4.5,16.8-16.1,16.8
	c-12.8,0-14.2-7.5-14.2-11L844.3,113.2z M850.4,102.3c6.7,0,7.4-8.5,7.4-15.3c0-7-0.9-14.8-6.9-14.8c-6.2,0-7.3,6.4-7.3,14.4
	C843.6,94,844,102.3,850.4,102.3L850.4,102.3z"/>
<path class="st3" d="M878.8,89.1v2.5c0,5.8,0.7,13.1,7.2,13.1c6.2,0,6.9-7,6.9-9.6h8.2c0,9.5-5.8,15.5-15.1,15.5
	c-7,0-15.8-2.1-15.8-22c0-11.3,2.4-23.3,15.9-23.3c12,0,15.2,7.2,15.2,19.2v4.6H878.8z M892.6,83.2v-2.3c0-5.4-1.8-9.6-6.6-9.6
	c-5.5,0-7.2,5.4-7.2,11v0.9L892.6,83.2z"/>
<path class="st3" d="M482.8,109.2c0,0-6.2-13.8,4.1-31.9s-8-17.3-12.5-13.7c-5.3,4.2-9.2,10.6-7.1,22.2S482.8,109.2,482.8,109.2z"/>
<g class="st4">
	<path class="st3" d="M2.2,97.2L13.3,73c0.4-0.9,1-1.4,1.9-1.4h0.2c0.9,0,1.6,0.5,1.9,1.4l11.1,24.2c0.1,0.3,0.2,0.5,0.2,0.8
		c0,0.8-0.7,1.5-1.5,1.5c-0.7,0-1.2-0.5-1.5-1.1L22.7,92h-15l-2.8,6.4c-0.3,0.7-0.8,1.1-1.5,1.1C2.6,99.4,2,98.8,2,98
		C2,97.8,2,97.5,2.2,97.2z M21.5,89.2l-6.3-14l-6.3,14H21.5z"/>
	<path class="st3" d="M32.8,97.1c-0.3-0.2-0.5-0.6-0.5-1.1c0-0.7,0.6-1.3,1.3-1.3c0.3,0,0.5,0.1,0.7,0.2c2.1,1.4,4.2,2.1,6.4,2.1
		c2.4,0,4.2-1.2,4.2-3.2v-0.1c0-2-2.4-2.8-5-3.5c-3.2-0.9-6.7-2-6.7-5.7v-0.1c0-3.5,2.9-5.8,6.9-5.8c2.1,0,4.5,0.7,6.4,1.7
		c0.4,0.2,0.7,0.7,0.7,1.2c0,0.7-0.6,1.3-1.3,1.3c-0.3,0-0.5-0.1-0.7-0.2c-1.7-1-3.5-1.6-5.3-1.6c-2.4,0-3.9,1.2-3.9,2.9v0.1
		c0,1.9,2.5,2.7,5.2,3.5c3.1,0.9,6.5,2.1,6.5,5.8v0.1c0,3.8-3.2,6-7.2,6C37.9,99.6,35,98.6,32.8,97.1z"/>
	<path class="st3" d="M53.4,72.1c0-0.8,0.7-1.5,1.5-1.5c0.9,0,1.5,0.7,1.5,1.5v18.5l10.9-11.1c0.4-0.4,0.7-0.6,1.2-0.6
		c0.8,0,1.4,0.7,1.4,1.4c0,0.5-0.2,0.8-0.6,1.2l-6.6,6.5l7.2,9.1c0.3,0.4,0.4,0.6,0.4,1c0,0.8-0.6,1.4-1.4,1.4
		c-0.5,0-0.9-0.2-1.3-0.7l-7-8.8L56.4,94v3.9c0,0.9-0.6,1.5-1.5,1.5c-0.9,0-1.5-0.7-1.5-1.5V72.1z"/>
	<path class="st3" d="M88,73.3c0-0.9,0.7-1.6,1.5-1.6c0.9,0,1.6,0.7,1.6,1.6v24.6c0,0.9-0.7,1.6-1.6,1.6c-0.8,0-1.5-0.7-1.5-1.6
		V73.3z"/>
	<path class="st3" d="M97.4,98L97.4,98c0-0.6,0.2-1,0.6-1.4l12.8-15H99c-0.7,0-1.3-0.5-1.3-1.2S98.3,79,99,79h14.4
		c0.8,0,1.4,0.5,1.4,1.2v0.1c0,0.5-0.2,0.9-0.6,1.4l-12.8,15h12.3c0.7,0,1.3,0.6,1.3,1.2c0,0.7-0.6,1.3-1.3,1.3H98.8
		C98,99.2,97.4,98.7,97.4,98z"/>
	<path class="st3" d="M119.1,98L119.1,98c0-0.6,0.2-1,0.6-1.4l12.8-15h-11.8c-0.7,0-1.3-0.5-1.3-1.2s0.6-1.3,1.3-1.3h14.4
		c0.8,0,1.4,0.5,1.4,1.2v0.1c0,0.5-0.2,0.9-0.6,1.4l-12.8,15h12.3c0.7,0,1.3,0.6,1.3,1.2c0,0.7-0.6,1.3-1.3,1.3h-14.9
		C119.7,99.2,119.1,98.7,119.1,98z"/>
	<path class="st3" d="M141.5,105c-0.5-0.2-0.9-0.6-0.9-1.3c0-0.7,0.6-1.3,1.3-1.3c0.3,0,0.5,0.1,0.7,0.2c0.6,0.2,1.2,0.4,2.2,0.4
		c1.9,0,3-1.1,4.1-3.6L149,99l-8.4-17.9c-0.1-0.3-0.2-0.5-0.2-0.8c0-0.8,0.7-1.5,1.5-1.5c0.8,0,1.2,0.5,1.5,1.2l7,15.8l6.2-15.9
		c0.2-0.6,0.7-1.1,1.4-1.1c0.8,0,1.5,0.7,1.5,1.5c0,0.2-0.1,0.5-0.2,0.7l-7.9,18.8c-1.8,4.2-3.7,5.7-6.7,5.7
		C143.5,105.6,142.5,105.3,141.5,105z"/>
	<path class="st3" d="M176.5,72.7c0-1,0.8-1.6,1.8-1.6c1,0,1.8,0.6,1.8,1.6v0.5c0,0.9-0.8,1.6-1.8,1.6c-1,0-1.8-0.7-1.8-1.6V72.7z
		 M176.8,80.4c0-0.8,0.7-1.5,1.5-1.5c0.9,0,1.5,0.7,1.5,1.5v17.5c0,0.9-0.6,1.5-1.5,1.5c-0.9,0-1.5-0.7-1.5-1.5V80.4z"/>
	<path class="st3" d="M185.7,97.1c-0.3-0.2-0.5-0.6-0.5-1.1c0-0.7,0.6-1.3,1.3-1.3c0.3,0,0.5,0.1,0.7,0.2c2.1,1.4,4.2,2.1,6.4,2.1
		c2.4,0,4.2-1.2,4.2-3.2v-0.1c0-2-2.4-2.8-5-3.5c-3.2-0.9-6.7-2-6.7-5.7v-0.1c0-3.5,2.9-5.8,6.9-5.8c2.1,0,4.5,0.7,6.4,1.7
		c0.4,0.2,0.7,0.7,0.7,1.2c0,0.7-0.6,1.3-1.3,1.3c-0.3,0-0.5-0.1-0.7-0.2c-1.7-1-3.5-1.6-5.3-1.6c-2.4,0-3.9,1.2-3.9,2.9v0.1
		c0,1.9,2.5,2.7,5.2,3.5c3.1,0.9,6.5,2.1,6.5,5.8v0.1c0,3.8-3.2,6-7.2,6C190.8,99.6,187.9,98.6,185.7,97.1z"/>
	<path class="st3" d="M217.9,80.4c0-0.9,0.7-1.5,1.5-1.5c0.9,0,1.5,0.7,1.5,1.5v2.7c1.6-2.4,4-4.5,7.7-4.5c4.8,0,9.6,3.8,9.6,10.5
		v0.1c0,6.6-4.8,10.5-9.6,10.5c-3.7,0-6.2-2-7.7-4.3v8.8c0,0.9-0.6,1.5-1.5,1.5c-0.9,0-1.5-0.7-1.5-1.5V80.4z M235.2,89.2
		L235.2,89.2c0-4.8-3.3-7.9-7.1-7.9c-3.7,0-7.3,3.2-7.3,7.8v0.1c0,4.7,3.5,7.8,7.3,7.8C232,96.9,235.2,94.1,235.2,89.2z"/>
</g>
<g class="st4">
	<path class="st3" d="M242.5,89.2L242.5,89.2c0-5.8,4.4-10.6,10.5-10.6c6,0,10.5,4.8,10.5,10.5v0.1c0,5.7-4.5,10.5-10.6,10.5
		C246.9,99.7,242.5,94.9,242.5,89.2z M260.5,89.2L260.5,89.2c0-4.4-3.2-8-7.5-8c-4.4,0-7.4,3.5-7.4,7.8v0.1c0,4.3,3.2,7.8,7.4,7.8
		C257.4,97,260.5,93.5,260.5,89.2z"/>
	<path class="st3" d="M272.3,98.1l-6.1-17c-0.1-0.2-0.2-0.5-0.2-0.8c0-0.7,0.6-1.4,1.5-1.4c0.8,0,1.3,0.5,1.5,1.2l5.1,15.1l5.1-15.2
		c0.2-0.7,0.7-1.2,1.5-1.2h0.2c0.8,0,1.3,0.5,1.6,1.2l5.1,15.2l5.1-15.2c0.2-0.6,0.6-1.2,1.4-1.2c0.9,0,1.5,0.7,1.5,1.4
		c0,0.3-0.1,0.6-0.2,0.8l-6.2,17.1c-0.3,0.9-0.9,1.4-1.6,1.4h-0.1c-0.8,0-1.4-0.5-1.6-1.4l-5-14.7l-5.1,14.7
		c-0.3,0.9-0.9,1.4-1.6,1.4h-0.1C273.2,99.5,272.6,99,272.3,98.1z"/>
</g>
<g class="st4">
	<path class="st3" d="M309.5,99.7c-5.5,0-10.1-4.3-10.1-10.5v-0.1c0-5.8,4.1-10.5,9.7-10.5c6,0,9.4,4.9,9.4,10.2
		c0,0.8-0.7,1.4-1.4,1.4h-14.6c0.4,4.4,3.5,6.8,7.1,6.8c2.5,0,4.3-1,5.8-2.3c0.2-0.2,0.5-0.4,0.9-0.4c0.7,0,1.3,0.6,1.3,1.3
		c0,0.4-0.2,0.7-0.5,1C315.2,98.5,313,99.7,309.5,99.7z M315.5,88c-0.3-3.7-2.4-6.9-6.4-6.9c-3.5,0-6.2,2.9-6.6,6.9H315.5z"/>
</g>
<g class="st4">
	<path class="st3" d="M323.8,80.4c0-0.8,0.7-1.5,1.5-1.5c0.9,0,1.5,0.7,1.5,1.5v3.8c1.5-3.4,4.4-5.4,6.9-5.4c0.9,0,1.5,0.7,1.5,1.5
		c0,0.8-0.5,1.4-1.3,1.5c-3.9,0.5-7.1,3.4-7.1,9.2v6.9c0,0.8-0.6,1.5-1.5,1.5c-0.9,0-1.5-0.7-1.5-1.5V80.4z"/>
</g>
<g class="st4">
	<path class="st3" d="M347.6,99.7c-5.5,0-10.1-4.3-10.1-10.5v-0.1c0-5.8,4.1-10.5,9.7-10.5c6,0,9.4,4.9,9.4,10.2
		c0,0.8-0.7,1.4-1.4,1.4h-14.6c0.4,4.4,3.5,6.8,7.1,6.8c2.5,0,4.3-1,5.8-2.3c0.2-0.2,0.5-0.4,0.9-0.4c0.7,0,1.3,0.6,1.3,1.3
		c0,0.4-0.2,0.7-0.5,1C353.3,98.5,351,99.7,347.6,99.7z M353.5,88c-0.3-3.7-2.4-6.9-6.4-6.9c-3.5,0-6.2,2.9-6.6,6.9H353.5z"/>
	<path class="st3" d="M381,97.9c0,0.9-0.7,1.5-1.5,1.5c-0.9,0-1.5-0.7-1.5-1.5v-2.7c-1.6,2.4-4,4.5-7.7,4.5c-4.8,0-9.6-3.8-9.6-10.5
		v-0.1c0-6.6,4.8-10.5,9.6-10.5c3.7,0,6.2,2,7.7,4.3V72.1c0-0.9,0.6-1.5,1.5-1.5c0.9,0,1.5,0.7,1.5,1.5V97.9z M363.8,89.1
		L363.8,89.1c0,4.8,3.3,7.9,7.1,7.9c3.7,0,7.3-3.2,7.3-7.8v-0.1c0-4.6-3.5-7.8-7.3-7.8C367,81.3,363.8,84.2,363.8,89.1z"/>
</g>
<g class="st4">
	<path class="st3" d="M399.4,72.1c0-0.9,0.7-1.5,1.5-1.5c0.9,0,1.5,0.7,1.5,1.5v11c1.6-2.4,4-4.5,7.7-4.5c4.8,0,9.6,3.8,9.6,10.5
		v0.1c0,6.6-4.8,10.5-9.6,10.5c-3.7,0-6.2-2-7.7-4.3v2.5c0,0.8-0.6,1.5-1.5,1.5c-0.9,0-1.5-0.7-1.5-1.5V72.1z M416.7,89.2
		L416.7,89.2c0-4.8-3.3-7.9-7.1-7.9c-3.7,0-7.3,3.2-7.3,7.8v0.1c0,4.7,3.5,7.8,7.3,7.8C413.5,96.9,416.7,94.1,416.7,89.2z"/>
</g>
<g class="st4">
	<path class="st3" d="M424.1,105c-0.5-0.2-0.9-0.6-0.9-1.3c0-0.7,0.6-1.3,1.3-1.3c0.3,0,0.5,0.1,0.7,0.2c0.6,0.2,1.2,0.4,2.2,0.4
		c1.9,0,3-1.1,4.1-3.6l0.2-0.3l-8.4-17.9c-0.1-0.3-0.2-0.5-0.2-0.8c0-0.8,0.7-1.5,1.5-1.5c0.8,0,1.2,0.5,1.5,1.2l7,15.8l6.2-15.9
		c0.2-0.6,0.7-1.1,1.4-1.1c0.8,0,1.5,0.7,1.5,1.5c0,0.2-0.1,0.5-0.2,0.7l-7.9,18.8c-1.8,4.2-3.7,5.7-6.7,5.7
		C426.1,105.6,425.1,105.3,424.1,105z"/>
</g>
</svg>
