<?xml version="1.0" encoding="UTF-8" standalone="no"?>
<svg
   xmlns:dc="http://purl.org/dc/elements/1.1/"
   xmlns:cc="http://creativecommons.org/ns#"
   xmlns:rdf="http://www.w3.org/1999/02/22-rdf-syntax-ns#"
   xmlns:svg="http://www.w3.org/2000/svg"
   xmlns="http://www.w3.org/2000/svg"
   xmlns:sodipodi="http://sodipodi.sourceforge.net/DTD/sodipodi-0.dtd"
   xmlns:inkscape="http://www.inkscape.org/namespaces/inkscape"
   version="1.1"
   id="svg2"
   xml:space="preserve"
   width="609.07532"
   height="643.90717"
   viewBox="0 0 609.0753 643.90717"
   sodipodi:docname="main-symbol-yellow.svg"
   inkscape:version="1.0 (6e3e5246a0, 2020-05-07)"><metadata
     id="metadata8"><rdf:RDF><cc:Work
         rdf:about=""><dc:format>image/svg+xml</dc:format><dc:type
           rdf:resource="http://purl.org/dc/dcmitype/StillImage" /><dc:title></dc:title></cc:Work></rdf:RDF></metadata><defs
     id="defs6"><clipPath
       clipPathUnits="userSpaceOnUse"
       id="clipPath18"><path
         d="M 0,595.28 H 841.89 V 0 H 0 Z"
         id="path16" /></clipPath></defs><sodipodi:namedview
     inkscape:document-rotation="0"
     pagecolor="#ffffff"
     bordercolor="#666666"
     borderopacity="1"
     objecttolerance="10"
     gridtolerance="10"
     guidetolerance="10"
     inkscape:pageopacity="0"
     inkscape:pageshadow="2"
     inkscape:window-width="1850"
     inkscape:window-height="1136"
     id="namedview4"
     showgrid="false"
     inkscape:zoom="0.82020226"
     inkscape:cx="-173.57956"
     inkscape:cy="307.44581"
     inkscape:window-x="70"
     inkscape:window-y="27"
     inkscape:window-maximized="1"
     inkscape:current-layer="g10"
     lock-margins="false"
     fit-margin-top="30"
     fit-margin-left="30"
     fit-margin-right="30"
     fit-margin-bottom="30" /><g
     id="g10"
     inkscape:groupmode="layer"
     inkscape:label="Ask-Izzy-Main-Symbol-mono"
     transform="matrix(1.3333333,0,0,-1.3333333,-281.29293,704.29913)"><g
       transform="rotate(-12,422.16765,288.4764)"
       id="g12"
       style="fill:#fed800;fill-opacity:0.3187744"><g
         id="g14"
         clip-path="url(#clipPath18)"
         style="fill:#fed800;fill-opacity:0.3187744"><g
           id="g20"
           transform="translate(384.877,335.2771)"
           style="fill:#fed800;fill-opacity:0.3187744"><path
             d="m 0,0 c 13.497,-28.063 -14.005,-55.565 -42.068,-42.068 -5.318,2.557 -9.671,6.911 -12.228,12.228 -13.497,28.063 14.004,55.565 42.068,42.068 C -6.911,9.671 -2.557,5.317 0,0"
             style="fill:#fed800;fill-opacity:0.3187744;fill-rule:nonzero;stroke:none"
             id="path22" /></g><g
           id="g24"
           transform="translate(513.3284,333.307)"
           style="fill:#fed800;fill-opacity:0.3187744"><path
             d="m 0,0 c 11.327,-27.359 -15.543,-53.279 -42.949,-40.098 -5.318,2.557 -9.671,6.911 -12.229,12.228 -13.18,27.406 12.74,54.277 40.098,42.95 C -8.263,12.257 -2.822,6.817 0,0"
             style="fill:#fed800;fill-opacity:0.3187744;fill-rule:nonzero;stroke:none"
             id="path26" /></g><g
           id="g28"
           transform="translate(574.2361,136.3159)"
           style="fill:#fed800;fill-opacity:0.3187744"><path
             d="m 0,0 -38.048,47.86 c 9.911,4.01 15.046,15.092 11.452,25.273 -3.697,10.485 -15.177,15.991 -25.661,12.276 l -22.689,-8.768 -28.882,-9.429 c -21.202,-5.697 -41.912,-7.939 -61.364,-7.939 -51.385,0 -93.854,15.57 -113.482,24.203 -8.896,5.062 -12.092,13.458 -13.232,18.847 l -18.709,169.857 c -0.556,2.17 -0.858,4.433 -0.808,6.772 0.009,0.424 0.063,0.833 0.093,1.25 l -0.167,1.867 0.354,-0.006 c 1.844,12.583 13.007,22.262 26.298,22.262 0.186,0 0.374,-0.003 0.562,-0.006 l 265.58,-1.251 C -5.871,302.807 4.714,293.6 6.904,281.717 l 0.456,-0.006 z m 44.12,298.054 c -8.825,26.13 -33.573,44.653 -61.998,45.236 -0.212,0.003 -0.424,0.006 -0.636,0.006 l -265.336,1.25 c -0.332,0.006 -0.664,0.006 -0.995,0.006 -30.084,0 -56.389,-20.304 -64.341,-48.418 -1.957,-5.24 -2.817,-10.885 -2.462,-16.575 -0.081,-4.647 0.351,-9.336 1.287,-13.974 l 19.925,-180.894 c 1.434,-13.025 9.121,-24.534 20.602,-30.847 2.584,-1.421 64.208,-34.802 144.642,-34.802 22.677,0 44.72,2.636 65.963,7.831 1.598,0.153 7.689,2.017 7.689,2.017 4.059,1.121 8.097,2.311 12.093,3.625 l 46.593,-55.732 c 7.671,-10.855 20.022,-17.014 32.856,-17.014 3.756,0 7.552,0.526 11.285,1.617 16.493,4.822 28.102,19.587 28.899,36.75 l 7.36,281.709 c 0.293,6.315 -0.908,12.543 -3.426,18.209"
             style="fill:#fed800;fill-opacity:0.3187744;fill-rule:nonzero;stroke:none"
             id="path30" /></g></g></g></g></svg>
